SplineFontDB: 3.0
FontName: StickNoBillsSinhala-light
FullName: Stick No Bills
FamilyName: Stick No Bills
OS2StyleName: "regular"
Weight: Light
Copyright: Remove All VKern Pairs
UComments: "2015-2-15: Created with FontForge (http://fontforge.org) The  Free Font Editor"
Version: 1.0
ItalicAngle: 0
UnderlinePosition: 0
UnderlineWidth: 0
Ascent: 774
Descent: 250
InvalidEm: 0
UFOAscent: 819
UFODescent: -205
LayerCount: 4
Layer: 0 0 "Back" 1
Layer: 1 0 "Fore" 0
Layer: 2 0 "Back 2" 1
Layer: 3 0 "Back 3" 1
PreferredKerning: 4
FSType: 0
OS2Version: 0
OS2_WeightWidthSlopeOnly: 0
OS2_UseTypoMetrics: 0
CreationTime: 1435774564
ModificationTime: 1442926218
PfmFamily: 16
TTFWeight: 400
TTFWidth: 5
LineGap: 0
VLineGap: 0
OS2TypoAscent: 0
OS2TypoAOffset: 1
OS2TypoDescent: 0
OS2TypoDOffset: 1
OS2TypoLinegap: 0
OS2WinAscent: 0
OS2WinAOffset: 1
OS2WinDescent: 0
OS2WinDOffset: 1
HheadAscent: 0
HheadAOffset: 1
HheadDescent: 0
HheadDOffset: 1
OS2CapHeight: 0
OS2XHeight: 0
OS2Vendor: 'PfEd'
OS2UnicodeRanges: 00000002.00000000.00000000.00000000
Lookup: 4 0 0 "si_akhands" { "si_akhands subtable"  } ['akhn' ('sinh' <'dflt' > ) ]
Lookup: 4 0 0 "si_reph" { "si_reph subtable"  } ['rphf' ('sinh' <'dflt' > ) ]
Lookup: 4 0 0 "si_halant_1" { "si_halant_1 subtable"  } ['haln' ('sinh' <'dflt' > ) ]
Lookup: 4 0 0 "si_abvs_1" { "si_abvs_1 subtable"  } ['abvs' ('sinh' <'dflt' > ) ]
Lookup: 4 0 0 "si_abvs_2" { "si_abvs_2 subtable"  } ['abvs' ('sinh' <'dflt' > ) ]
Lookup: 4 0 0 "si_abvs_3" { "si_abvs_3 subtable"  } ['abvs' ('sinh' <'dflt' > ) ]
Lookup: 4 0 0 "si_abvs_4" { "si_abvs_4 subtable"  } ['abvs' ('sinh' <'dflt' > ) ]
Lookup: 4 0 0 "si_abvs_5" { "si_abvs_5 subtable"  } ['abvs' ('sinh' <'dflt' > ) ]
Lookup: 4 0 0 "si_abvs_6" { "si_abvs_6 subtable"  } ['abvs' ('sinh' <'dflt' > ) ]
Lookup: 4 0 0 "si_abvs_7" { "si_abvs_7 subtable"  } ['abvs' ('sinh' <'dflt' > ) ]
Lookup: 4 0 0 "si_blws_1" { "si_blws_1 subtable"  } ['blws' ('sinh' <'dflt' > ) ]

StartChar: si_A
Encoding: 3 3461 0
GlifName: si_A_
Width: 541
VWidth: 0
Flags: W
HStem: 0 140<185.272 256 441 513> 263 135<185.515 312> 454 121<177.207 317.026>
VStem: 29 143<153.262 247.419> 311 202<0 140 434 445.507> 311 130<-169 0 140 466>
LayerCount: 4
Back
SplineSet
312 -169 m 261
 312 380 l 262xf4
 312 466 338 529 484 579 c 261
 514 434 l 261xf8
 436.915039062 414 442 389.00390625 442 348 c 262
 442 140 l 261xf4
 494 140 l 261
 494 0 l 261xf8
 442 0 l 261
 442 -169 l 261
 312 -169 l 261
30 198 m 260
 30 337.016601562 125.044921875 402 256 402 c 262
 313 402 l 261
 313 439.3671875 278.239257812 457.174804688 243.4296875 457.174804688 c 4
 213.982421875 457.174804688 184.5 444.4296875 176 420 c 261
 58 459 l 261
 79.41796875 539.204101562 157.759765625 577.969726562 238.147460938 577.969726562 c 4
 338.48046875 577.969726562 442 517.580078125 442 402 c 262
 442 263 l 261
 256 263 l 262
 217 263 173 257.190429688 173 198 c 261
 173 146 220 136 257 136 c 260
 257 0 l 260
 137 0 30 59.3916015625 30 198 c 260
EndSplineSet
Fore
SplineSet
392 -169 m 257
 392 433 l 258xf4
 392 519 446 570 503 583 c 257
 511 545 l 257xf8
 453 532 432 474.00390625 432 433 c 258
 432 41 l 257xf4
 494 41 l 257
 494 0 l 257xf8
 432 0 l 257
 432 -169 l 257
 392 -169 l 257
30 199 m 256
 30 335.290039062 125.044921875 402 256 402 c 258
 392 402 l 257
 392 493.372070312 320.287109375 537.564453125 242.646484375 537.564453125 c 0
 181.682617188 537.564453125 123.614257812 504.8515625 107 443 c 257
 68 456 l 257
 89.4072265625 536.278320312 163.420898438 579.36328125 240.706054688 579.36328125 c 0
 339.015625 579.36328125 432 518.502929688 432 389 c 258
 432 362 l 257
 246 362 l 258
 130.018554688 362 71.6240234375 293.45703125 71.6240234375 199 c 0
 71.6240234375 108.484375 133.124023438 40 257 40 c 257
 337 40 l 1
 337 0 l 1
 257 0 l 256
 137 0 30 60.3916015625 30 199 c 256
EndSplineSet
Layer: 2
Layer: 3
EndChar

StartChar: si_Ba
Encoding: 48 3510 4
GlifName: si_B_a
Width: 586
VWidth: 0
Flags: HMW
LayerCount: 4
Back
SplineSet
324 616 m 1
 324 755 l 1
 345 755 l 257
 478.701171875 755 579 679.96875 579 500 c 258
 579 200 l 257
 439 200 l 257
 439 478 l 258
 439 556.997070312 422.428196405 616 345 616 c 257
 324 616 l 1
41 566 m 257
 178 530 l 257
 178 595.735351562 217.258789062 616.5 257.666992188 616.5 c 1
 268 616.5 l 1
 268 755 l 1
 257.666992188 755 l 1
 151.126953125 755 41 672.125976562 41 566 c 257
30 187 m 0
 30 283 l 258
 30 493.931640625 382 525.915039062 382 272 c 258
 382 174 l 258
 382 125.53515625 439 125.580078125 439 174 c 257
 439 214 l 1
 579 214 l 1
 579 174 l 257
 579 -59.72265625 247 -64.7982111603 247 138 c 258
 247 267 l 258
 247 328.615234375 162.069334588 328.810562213 162 267 c 258
 161.916992188 193 l 0
 162 151 180.45703125 140 211 140 c 257
 211 0 l 257
 91.10546875 0 30 55 30 187 c 0
EndSplineSet
Fore
SplineSet
41.375 563 m 5xf4
 41.375 673.920898438 154.922851562 755 251 755 c 5
 263 755 l 5
 263 715 l 5
 251 715 l 5
 166.505859375 715 80.375 644.131835938 80.375 553 c 5
 41.375 563 l 5xf4
556 241 m 4
 514 241 l 4
 514 514 l 4
 514 661.71484375 444.055664062 715 331 715 c 5
 320 715 l 5
 320 755 l 5
 331 755 l 5
 490.370117188 755 556 671.037109375 556 514 c 4
 556 241 l 4
30 187 m 4
 30 284 l 262
 30 494.931640625 309 497.915039062 309 284 c 262
 309 138 l 262
 309 5.53515625 514 2.580078125 514 138 c 261
 514 264 l 5
 556 264 l 5
 556 138 l 261
 556 -57.72265625 268 -56.7978515625 268 138 c 262
 268 284 l 262
 268 435.615234375 71.1312651767 435.810493327 71 284 c 262
 70.9169921875 187 l 4
 71 75 123.45703125 40 211 40 c 261
 211 0 l 261
 91.10546875 0 30 55 30 187 c 4
EndSplineSet
PickledDataWithLists: "(dp1
S'com.fontlab.hintData'
p2
(dp3
S'vhints'
p4
(lp5
(dp6
S'position'
p7
I236
sS'width'
p8
I142
sa(dp9
g7
I462
sg8
I143
sasS'hhints'
p10
(lp11
(dp12
g7
I-7
sg8
I142
sa(dp13
g7
I310
sg8
I142
sa(dp14
g7
I588
sg8
I142
sass."
Layer: 2
SplineSet
290 8 m 261xbd
 290 251 l 260
 290.030273438 280.508789062 289 314 243 314 c 260
 202 314 195 291 195 251 c 260
 195 202 l 4
 195 166 199.263671875 140 244 140 c 261
 243 0 l 261
 91 0 63 92 63 189 c 260
 63 273 l 4
 63.015625 396.71875 145.911132812 452 262 452 c 260
 326 452 425 423 425 290 c 262x7b
 425 -65 l 5
 290 -65 l 5
 290 8 l 261xbd
EndSplineSet
Layer: 3
EndChar

StartChar: si_Da
Encoding: 42 3503 5
GlifName: si_D_a
Width: 522
VWidth: 0
Flags: HW
HStem: -204 126<324.815 421.261> 0 136<193.491 351.178> 263 135<187.772 315> 454 121<180.207 302.01>
VStem: 32 143<153.262 247.371>
LayerCount: 4
Back
SplineSet
173 -45 m 261
 173 -136.260742188 239.999023438 -204 359 -204 c 260
 464.501953125 -204 520.119140625 -148.451171875 542 -81 c 261
 409 -47 l 261
 403.827148438 -67.37109375 379.689453125 -78 359 -78 c 260
 330.2890625 -78 310 -61.1494140625 310 -45 c 261
 173 -45 l 261
30 198 m 0
 30 334.290039062 123.043945312 402 256 402 c 2
 313 402 l 1
 313 473.444335938 192 471 176 420 c 1
 58 459 l 1
 104.717773438 636.689453125 442 614.799804688 442 399 c 2
 442 263 l 1
 256 263 l 2
 217 263 173 257.190429688 173 198 c 0
 173 146 220 136 257 136 c 2
 294 136 l 2
 326.727539062 136 356 140 369 172 c 1
 497 138 l 1
 472 52 386.826171875 0.1318359375 294 0 c 2
 257 0 l 2
 137 0 30 59.3916015625 30 198 c 0
EndSplineSet
Fore
SplineSet
532 -76 m 261
 493 -66 l 261
 457 -214 233 -184.919921875 233 -45 c 261
 193 -45 l 261
 193 -246.49609375 494 -256 532 -76 c 261
30 199 m 260
 30 335.290039062 125.044921875 402 256 402 c 262
 392 402 l 261
 392 493.372070312 320.287109375 537.564453125 242.646484375 537.564453125 c 4
 181.682617188 537.564453125 123.614257812 504.8515625 107 443 c 261
 68 456 l 261
 89.4072265625 536.278320312 163.420898438 579.36328125 240.706054688 579.36328125 c 4
 339.015625 579.36328125 432 518.502929688 432 389 c 262
 432 362 l 261
 246 362 l 262
 130.018554688 362 71.6240234375 293.45703125 71.6240234375 199 c 4
 71.6240234375 108.484375 133.124023438 40 257 40 c 261
 296 40 l 5
 367 40 426.998046875 74.5439453125 461 148 c 5
 498 138 l 5
 456.008602951 22.3045081003 353 0 296 0 c 5
 257 0 l 260
 137 0 30 60.3916015625 30 199 c 260
EndSplineSet
Layer: 2
Layer: 3
EndChar

StartChar: si_Ddha
Encoding: 37 3498 6
GlifName: si_D_dha
Width: 624
VWidth: 0
Flags: HMW
HStem: 0 40<154.471 274.868 393.132 513.529> 235 7<552 594> 309 40<11.0254 102 131.246 315> 450 40.6484<148.841 285.583> 464 40<423.146 497> 715 40<367 466.726>
VStem: 74 42<78.1523 293.878 396.407 417.035> 313 42<52.25 192 349 421.623> 327 39.9502<558.857 715> 552 42<78.1523 625.518>
LayerCount: 4
Back
SplineSet
30 251 m 261
 30 353 l 261
 281 353 l 5
 281 359 l 261
 281.052734375 388.333007812 259.720703125 399 239 399 c 260
 229.146484375 399 203.971679688 396 199 375 c 261
 100 401 l 261
 126.404296875 488.737304688 202.591796875 502 239 502 c 260
 282.907226562 502 327.606763026 485.113555373 351 458 c 260
 374.37109375 430.912109375 384 404.666992188 384 349 c 262
 384 251 l 261
 242 251 l 5
 211.474609375 251 207 231 207 219 c 5
 207 166 l 4
 207 154 216 132 246 132 c 4
 276 132 284 152.875 284 166 c 4
 284 202 l 261
 384 202 l 261
 384 166 l 4
 384 152.875 392 132 422 132 c 4
 452.769230769 132 462 154 462 166 c 4
 462 202 l 5
 602 202 l 261
 602 160 l 4
 602 58 535.380859375 -8 443 -8 c 260
 409.151595745 -8 367.92478391 3.466796875 339 35 c 261
 315.108398438 3.466796875 278.958984375 -8 251 -8 c 260
 145.767578125 -8 72 58 72 160 c 4
 72 219 l 261
 72 226 72 246 80 251 c 5
 30 251 l 261
287 617 m 260
 287 755 l 261
 367 755 l 261
 501.272799141 755 602 700 602 517 c 262
 602 195 l 261
 462 195 l 261
 462 498 l 262
 462 577 445.25184581 616 367 616 c 261
 367 616 l 261
 367 563.071428572 392.652173913 547.238095238 426 540 c 261
 426 454 l 261
 322.61875 473.607246377 287 544.038095238 287 617 c 260
EndSplineSet
Fore
SplineSet
30 349 m 1
 315 349 l 257
 314.505859375 450.283203125 169.243164062 467.491210938 136 389 c 257
 97 399 l 257
 127.676757812 516.998046875 355.0625 506.46875 354.931640625 354 c 2
 355 309 l 257
 306 309 l 258
 191 309 l 1xf740
 154.630859375 309 116 301.575195312 116 235 c 4
 116 139 l 4
 116 104.05859375 138.845703125 40 215 40 c 4
 290.154296875 40 313 104.05859375 313 139 c 4
 313 192 l 5
 355 192 l 261
 355 133 l 4
 355 52.25 296.892578125 0 215 0 c 260
 132.107421875 0 74 52.25 74 133 c 4
 74 235 l 4
 74 266.713867188 80.8193359375 297.654296875 102 309 c 1
 30.025390625 309 l 1
 30 349 l 1
313 133 m 4
 313 192 l 261
 355 192 l 5
 355 139 l 4
 355 104.05859375 377.845703125 40 453 40 c 4
 529.154296875 40 552 104.05859375 552 139 c 4
 552 242 l 5
 594 242 l 261
 594 133 l 4
 594 52.25 535.892578125 0 453 0 c 260
 371.107421875 0 313 52.25 313 133 c 4
327 637 m 256
 327 755 l 257xeec0
 367 755 l 257
 496.702148438 755 594 700 594 517 c 258
 594 235 l 261
 552 235 l 261
 552 498 l 258
 552 643.279296875 504.384765625 715 367 715 c 257
 366.950195312 637 l 0
 367 536.673828125 434.3515625 504 497 504 c 257
 497 464 l 257
 380 464 327 540.655273438 327 637 c 256
EndSplineSet
PickledDataWithLists: "(dp1
S'com.fontlab.hintData'
p2
(dp3
S'vhints'
p4
(lp5
(dp6
S'position'
p7
I54
sS'width'
p8
I141
sa(dp9
g7
I294
sg8
I117
sa(dp10
g7
I309
sg8
I91
sa(dp11
g7
I512
sg8
I142
sasS'hhints'
p12
(lp13
(dp14
g7
I-6
sg8
I131
sa(dp15
g7
I251
sg8
I144
sa(dp16
g7
I296
sg8
I100
sa(dp17
g7
I409
sg8
I89
sa(dp18
g7
I433
sg8
I117
sa(dp19
g7
I624
sg8
I134
sass."
Layer: 2
Layer: 3
SplineSet
247.18359375 251 m 5
 214.18359375 251 207.18359375 231 207.18359375 219 c 5
 207.18359375 171 l 4
 207.18359375 145.036132812 226.1640625 132 251.18359375 132 c 4
 278.18359375 132 299.18359375 141.392578125 299.18359375 173 c 4
 299.18359375 202 l 261
 399.18359375 202 l 261
 399.18359375 173 l 4
 399.18359375 141.392578125 418.783203125 132 448.18359375 132 c 4
 471.07421875 132 491.18359375 143.705078125 491.18359375 173 c 4
 491.18359375 202 l 5
 630.18359375 202 l 261
 630.18359375 160 l 4
 630.18359375 50 558.208007812 -8 448.18359375 -8 c 260
 411.90234375 -8 375.49609375 3.466796875 350.18359375 35 c 261
 323.909179688 3.466796875 288.84375 -8 251.18359375 -8 c 260
 144.690429688 -8 72.18359375 58 72.18359375 160 c 4
 72.18359375 219 l 261
 72.18359375 226 72.18359375 246 80.18359375 251 c 5
 30.18359375 251 l 261
 30.18359375 353 l 261
 247.18359375 353 l 5
 247.18359375 359 l 261
 247.236328125 388.333007812 225.904296875 399 205.18359375 399 c 260
 195.330078125 399 170.155273438 396 165.18359375 375 c 261
 66.18359375 401 l 261
 92.587890625 488.737304688 168.775390625 502 205.18359375 502 c 260
 249.090820312 502 293.790039062 485.11328125 317.18359375 458 c 260
 340.5546875 430.912109375 350.18359375 404.666992188 350.18359375 349 c 262
 350.18359375 251 l 261
 247.18359375 251 l 5
491.18359375 201 m 261
 491.18359375 472 l 260
 491.18359375 499.39453125 487.872070312 525.59375 475.18359375 549 c 260
 463.001953125 571.47265625 442.127929688 590.053710938 407.18359375 598 c 261
 407.18359375 537.428710938 428.052734375 502.095703125 455.18359375 492 c 261
 455.18359375 389 l 261
 351.05859375 415.463867188 315.18359375 510.5234375 315.18359375 609 c 260
 315.18359375 755 l 261
 442.18359375 755 572.596679688 709.760742188 606.18359375 609 c 260
 628.80078125 541.1484375 630.18359375 478.544921875 630.18359375 380 c 262
 630.18359375 201 l 261
 491.18359375 201 l 261
EndSplineSet
EndChar

StartChar: si_Ga
Encoding: 23 3484 7
GlifName: si_G_a
Width: 703
VWidth: 0
Flags: HW
HStem: -8 40<136.684 206 262 328.14 477 546.316> 271 40<274 333.994> 524 40<136.684 206 331.981 421 477 546.316>
VStem: 30.0791 39.9209<110.383 447.902> 233 41<380 466.914> 613 39.9209<110.383 216 340 447.902>
LayerCount: 4
Back
SplineSet
271 241 m 5
 283 241 l 260xec
 335.527392578 241 337 205.036946615 337 188 c 260
 337 170.963053385 335.527392578 135 283 135 c 260
 283 -8 l 261
 399.689548399 -8 461 45.3371438419 461 166 c 260
 460.849609375 216 l 4
 461 325.407079646 407.086301457 347 371 347 c 261
 271 347 l 5
 271 241 l 5
30.0791015625 198 m 4
 30.0791015625 358 l 4
 30.4200932897 474.262413025 87.7039680752 564 227 564 c 261
 227 421 l 261
 174.887369792 421 171 375.856937629 171 348 c 260
 171 198 l 260
 171 173.959081224 174.887369792 135 227 135 c 261
 227 -8 l 261
 87.7039680752 -8 30.4200932897 81.7375869755 30.0791015625 198 c 4
490 -8 m 261
 629.296031925 -8 686.57990671 81.7375869755 686.920898438 198 c 4
 686.920898438 358 l 4
 686.57990671 474.262413025 629.296031925 564 490 564 c 261
 490 421 l 261
 542.112630208 421 546 375.856937629 546 348 c 260
 546 198 l 260
 546 173.959081224 542.112630208 135 490 135 c 261
 490 -8 l 261
254 241 m 260xf4
 393 240.5 l 5
 392.834960938 350 l 4
 393.466254113 376.492313059 388.192647697 421 434 421 c 261
 434 564 l 261
 290.062199519 564 254 468.006510417 254 350 c 4
 254 241 l 260xf4
EndSplineSet
Fore
SplineSet
633 216 m 260
 633 98.142578125 579.112304688 32 487 32 c 261
 487 -8 l 261
 606.295898438 -8 672.580078125 79.7373046875 672.920898438 216 c 4
 672.920898438 340 l 4
 672.580078125 476.262695312 606.295898438 564 487 564 c 261
 487 524 l 261
 582.112304688 524 633 457.857421875 633 340 c 260
 633 216 l 260
70 216 m 260
 70 98.142578125 123.887695312 32 216 32 c 261
 216 -8 l 261
 96.7041015625 -8 30.419921875 79.7373046875 30.0791015625 216 c 4
 30.0791015625 340 l 4
 30.419921875 476.262695312 96.7041015625 564 216 564 c 261
 216 524 l 261
 120.887695312 524 70 457.857421875 70 340 c 260
 70 216 l 260
269 271 m 5
 306 271 l 262
 391.498046875 271 399.125976562 199.5859375 399.125976562 152.124023438 c 4
 399.125976562 66.2490234375 351.817382812 32 272 32 c 261
 272 -8 l 261
 371.866210938 -8 439 42.873046875 439 145 c 4
 439 164 l 4
 439 233 408.232421875 311 306 311 c 262
 269 311 l 5
 269 271 l 5
252 271 m 260
 293 271 l 5
 293 361 l 4
 293 443 324.192382812 524 431 524 c 261
 431 564 l 261
 309.0625 564 252 478.006835938 252 360 c 4
 252 271 l 260
EndSplineSet
PickledDataWithLists: "(dp1
S'com.fontlab.hintData'
p2
(dp3
S'vhints'
p4
(lp5
(dp6
S'position'
p7
I29
sS'width'
p8
I142
sa(dp9
g7
I293
sg8
I142
sa(dp10
g7
I376
sg8
I142
sa(dp11
g7
I634
sg8
I142
sasS'hhints'
p12
(lp13
(dp14
g7
I-7
sg8
I142
sa(dp15
g7
I447
sg8
I142
sass."
Layer: 2
Layer: 3
EndChar

StartChar: si_Ka
Encoding: 21 3482 8
GlifName: si_K_a
Width: 760
VWidth: 0
Flags: HMW
LayerCount: 4
Back
SplineSet
120 439 m 261
 134 537 226.521484375 567 288 567 c 260
 360.694335938 567 410 533 427 502 c 5
 335 402 l 5xa4
 335 437 304.168945312 446 288 446 c 260
 254.069335938 446 237 422.741210938 237 402 c 261
 120 439 l 261
120 160 m 261
 237 255 l 5
 255.91015625 239.06640625 270.861328125 220.712890625 270.879882812 202 c 5
 271 160 l 6
 271.107421875 122.479492188 330 122.545898438 330 160 c 6
 330 202 l 261
 429.879882812 202 l 5
 430 162 l 6
 430.122070312 121.4765625 490 121.547851562 490 162 c 4
 490.00390625 202.127929688 l 4
 490.00390625 233.327148438 483.873046875 258.736328125 441 276 c 5
 538.223632812 354.095703125 l 5
 601.6015625 326.930664062 619 279.827148438 619 218 c 4
 619 136 l 6
 619 2.603515625 453.235351562 -52.767578125 380 36 c 261
 319.787109375 -51.9111328125 154.981445312 8.5439453125 155 106 c 6
 155.002929688 121.755859375 l 4
 155.002929688 141.9453125 154.315429688 161.90625 131.2734375 161.90625 c 4
 127.990234375 161.90625 124.252929688 161.299804688 120 160 c 261
120 160 m 5
 120 259 l 5
 391 480 l 5
 545.716796875 639.302734375 860 601.889648438 860 321 c 6
 860 205 l 4
 859.580078125 88.7373046875 803.295898438 -1 664 -1 c 261
 664 142 l 261
 716.112304688 142 720 180.958984375 720 205 c 4
 720 307 l 6
 720 416.044921875 599 475 515 400 c 5
 245 181.391601562 l 5
 120 160 l 5
EndSplineSet
Fore
SplineSet
33 452 m 257
 98 622 291 576 320 473 c 1
 289 445 l 1xa4
 265 531 121 563 72 440 c 257
 33 452 l 257
30 196 m 257
 30 246 l 1
 100 237 105.981445312 184.712890625 106 166 c 1
 106 114 l 2
 106 19.873046875 256 4.505859375 256 114 c 2
 256 192 l 257
 295.879882812 192 l 1
 296 114 l 2
 296.16796875 4.611328125 462.997070312 19.7900390625 463 114 c 2
 463.00390625 240 l 0
 463.00390625 331.19921875 426 355 326.776367188 369.904296875 c 1
 365 403 l 1
 441 391 503 361.827148438 503 240 c 0
 503 114 l 2
 503 -11.1279296875 357.299804688 -35.56640625 276 36 c 257
 203.389648438 -42.912109375 65.0029296875 -2.125 65.0029296875 114 c 2
 65.048828125 146.190429688 l 0
 65.048828125 167.919921875 63.5771484375 199 44 199 c 0
 40.716796875 199 34.2529296875 197.299804688 30 196 c 257
30 196 m 5
 30 246 l 5
 320 494 l 5
 474.245117188 613.712890625 730 579.477539062 730 314 c 6
 730 192 l 4
 729.580078125 65.7373046875 693.295898438 -1 554 -1 c 261
 554 39 l 261
 616.112304688 39 690 47.958984375 690 192 c 4
 690 314 l 6
 690 528.307617188 474.436523438 570.135742188 349 466 c 5
 69 225 l 5
 30 196 l 5
EndSplineSet
Layer: 2
Layer: 3
EndChar

StartChar: si_La
Encoding: 54 3517 9
GlifName: si_L_a
Width: 606
VWidth: 0
Flags: W
HStem: -169 40<172.35 270 330 429.539> 290.5 40<203 276 319 393> 290.5 9<276 319> 530 40<172.35 270 330 440.468>
VStem: 30 42.8047<-28.2866 75.5 325.5 429.287> 276 43<174.143 299.5> 534 42<189.886 441.717>
LayerCount: 4
Back
SplineSet
344 -33 m 261
 344 -173 l 261
 443.056237817 -173 559.600969387 -140.1431321 589 -0.875 c 5
 454 36.7705078125 l 5xcf
 440.864069231 -13.0364758886 398.158217424 -33 344 -33 c 261
30 321.5 m 4
 30 522.215835141 168.19858321 566 283 566 c 261
 283 426 l 261
 217.666992188 426 169 396.94813278 168.8046875 321.5 c 4
 168.8046875 73.5 l 4
 169 -1.94813278 217.666992188 -30.5 283 -30.5 c 261
 283 -170.5 l 261
 172.948434905 -170.5 30.3330078125 -122.854899357 30.3330078125 73.5 c 4
 30 321.5 l 4
206 250.5 m 5
 206 364.5 l 5xef
 418 364.5 l 5
 418 250.5 l 5
 206 250.5 l 5
248 214.5 m 262
 248 214.5 248 310.902684564 248 322.5 c 261
 376 322.5 l 261xdf
 376 234.5 l 262
 376 215.626984127 382.848064456 193.5 417.333007812 193.5 c 260
 453.689855861 193.5 458 222.880952381 458 239.5 c 260
 458.1953125 321.5 l 4
 458 396.94813278 409.333007812 426 344 426 c 261
 344 566 l 261
 458.34765625 566 596 522.215835141 596 321.5 c 4
 596 239.5 l 260
 596 122.360262009 529.553190499 53.5 417.333007812 53.5 c 260
 276.721219179 53.5 248 138.168802947 248 214.5 c 262
EndSplineSet
Fore
SplineSet
72.8046875 75.5 m 0x9e
 72.8046875 325.5 l 0
 73.1318359375 473.147460938 160.614257812 530 270 530 c 257
 270 570 l 257
 163.8203125 570 30 526.215820312 30 325.5 c 0
 30 75.5 l 0
 30 -125.215820312 163.8203125 -169 270 -169 c 257
 270 -129 l 257
 160.614257812 -129 73.1318359375 -72.1474609375 72.8046875 75.5 c 0x9e
330 -129.099609375 m 257
 330 -169.099609375 l 257
 427.03515625 -169.099609375 519.201171875 -137.796875 563 -10.875 c 1
 524 0 l 1
 490.998046875 -90.0126953125 428.962890625 -129.099609375 330 -129.099609375 c 257
203 290.5 m 1xde
 203 330.5 l 1
 393 330.5 l 1
 393 290.5 l 1
 203 290.5 l 1xde
276 234.5 m 258
 276 234.5 276 292.51953125 276 299.5 c 257
 319 299.5 l 257xbe
 319 234.5 l 258
 319 102.018554688 533.545945018 102.091455964 534 262.5 c 258
 534.1953125 335.5 l 0
 533.856445312 493.147460938 443.390625 530 330 530 c 257
 330 570 l 257
 438.90234375 570 576 546.215820312 576 335.5 c 0
 576 262.5 l 258
 576 40.6396484375 276 46.455078125 276 234.5 c 258
EndSplineSet
PickledDataWithLists: "(dp1
S'com.fontlab.hintData'
p2
(dp3
S'vhints'
p4
(lp5
(dp6
S'position'
p7
I21
sS'width'
p8
I139
sa(dp9
g7
I268
sg8
I132
sa(dp10
g7
I515
sg8
I136
sasS'hhints'
p11
(lp12
(dp13
g7
I-210
sg8
I146
sa(dp14
g7
I-20
sg8
I20
sa(dp15
g7
I24
sg8
I137
sa(dp16
g7
I252
sg8
I114
sa(dp17
g7
I465
sg8
I143
sass."
Layer: 2
SplineSet
216.666992188 365 m 1xef
 428.666992188 365 l 1
 428.666992188 251 l 1
 216.666992188 251 l 1
 216.666992188 365 l 1xef
514.666992188 35 m 257
 611.666992188 -46 l 257
 539.65929988 -161 414.132376803 -169 358.666992188 -170 c 257
 358.666992188 -30 l 257
 371 -30 461.666992188 -31 514.666992188 35 c 257
297.666992188 -30 m 257
 297.666992188 -170 l 257
 181.08203125 -170 30 -108.686222944 30 144 c 0
 30 236 l 256
 30 399 64.6669921875 566.5 297.666992188 566.5 c 257
 297.666992188 426.5 l 257
 189 426.5 170.666992188 353.402088773 170.666992188 236 c 256
 170.666992188 144 l 0
 170.666992188 -21.9069767442 260 -30 297.666992188 -30 c 257
386.666992188 323 m 257xdf
 386.666992188 235 l 258
 386.666992188 216.126984127 393.515056644 194 428 194 c 256
 467.932902838 194 472.666992188 223.380952381 472.666992188 240 c 256
 472.862304688 322 l 0
 472.666992188 397.44813278 424 426.5 358.666992188 426.5 c 257
 358.666992188 566.5 l 257
 473.014648438 566.5 610.666992188 522.715835141 610.666992188 322 c 0
 610.666992188 240 l 256
 610.666992188 122.860262009 542.732570259 54 428 54 c 256
 287.388211366 54 258.666992188 138.668802947 258.666992188 215 c 258
 258.666992188 215 258.666992188 311.402684564 258.666992188 323 c 257
 386.666992188 323 l 257xdf
EndSplineSet
Layer: 3
SplineSet
183.471679688 322 m 4
 183.666992188 397.44813278 232.333984375 426.5 297.666992188 426.5 c 1285
EndSplineSet
EndChar

StartChar: si_Lla
Encoding: 60 3525 10
GlifName: si_L_la
Width: 609
VWidth: 0
Flags: HMW
LayerCount: 4
Back
SplineSet
344 -33 m 261
 344 -173 l 261
 443.056237817 -173 559.600969387 -140.1431321 589 -0.875 c 5
 454 36.7705078125 l 5
 440.864069231 -13.0364758886 398.158217424 -33 344 -33 c 261
144 216 m 261
 235 301 l 261
 235 195.927943366 309.198242188 185 334 185 c 260
 354 185 l 4
 390.10546875 185 419.388671875 200.704101562 429 222 c 261
 542 193 l 261
 499 82 403.733398438 66.9765625 355 66.8896484375 c 4
 322 67 l 260
 214.262695312 67 144 162 144 216 c 261
30 77 m 260
 30 194 l 4
 30 322.197080293 132.979005248 386.744550785 216 387 c 262
 541 388 l 261
 541 256 l 261
 248 256 l 262
 203.378266735 256 169.002144444 227.881559221 168.99609375 146 c 4
 169 75 l 260
 169 3.4310134156 210.412007298 -31 283 -31 c 260
 283 -170 l 260
 131.834572296 -170 30.115448609 -89.9692882178 30 77 c 260
115.025390625 421.275390625 m 261
 115.025390625 445.525390625 l 261
 115.025390625 524.574912623 169.425313938 574.724609375 253.575195312 574.724609375 c 260
 284.870649858 574.724609375 311.297922588 565.374747984 330.075195312 548.375 c 261
 349.943377133 569.62468498 378.784286223 574.724609375 400.575195312 574.724609375 c 260
 489.82482017 574.724609375 539.974609375 517.444670025 539.974609375 436.525390625 c 261
 424.375 436.525390625 l 261
 424.375 453.877775494 412.948514193 464 397 464 c 260
 378.514907267 464 370.924804688 450.262695313 370.924804688 436.525390625 c 261
 286.075195312 436.525390625 l 261
 285.39831543 450.762695313 280.57173684 465 259 465 c 260
 236.839574136 465 230.625 448.960731908 230.625 434.525390625 c 261
 115.025390625 421.275390625 l 261
EndSplineSet
Fore
SplineSet
324.7578125 515.948242188 m 257
 347.43359375 551.099609375 388.21484375 564 418 564 c 0
 496.37890625 564 540.125 519.284046714 540.125 437 c 1
 499.854492188 437 l 1
 499.849609375 495.544921875 467.639648438 522.297851562 421.2578125 522.297851562 c 256
 379.686523438 522.297851562 345.150390625 492 345.075195312 436.375976562 c 257
 305.075195312 436.375976562 l 257
 305 492 269.829101562 522.297851562 228.2578125 522.297851562 c 256
 177.875976562 522.297851562 148.30078125 495.544921875 148.295898438 425 c 1
 108 415 l 1
 108.025390625 437 l 1
 108.025390625 519.284179688 156.13671875 564 231.515625 564 c 0
 261.30078125 564 302.08203125 551.099609375 324.7578125 515.948242188 c 257
344 -130 m 257
 344 -170 l 257
 443.056640625 -170 559.600969387 -140.1431321 589 -0.875 c 1
 549 10 l 1
 523 -102 436.158203125 -130 344 -130 c 257
115 323 m 257
 156 349.200195312 l 257
 156 302.127929688 160.198242188 139.110351562 315 139.110351562 c 256
 367 139.110351562 l 0
 432.10546875 139.110351562 478.388671875 167.704101562 499 216 c 257
 540 205 l 257
 515 146 462.733398438 99.0869140625 367 99 c 0
 315 99.1103515625 l 256
 107.262695312 99.1103515625 115 323 115 323 c 257
30 77 m 256
 30 194 l 0
 30 322.197080293 131.979492188 388 215 388 c 258
 540 388 l 257
 540 348 l 257
 218 348 l 258
 149.377929688 348 72.001953125 296.881835938 71.99609375 195 c 0
 72 77 l 256
 72 -84.5693359375 184.412109375 -129 283 -129 c 256
 283 -170 l 256
 131.834572296 -170 30.115448609 -89.9692882178 30 77 c 256
EndSplineSet
Layer: 2
Layer: 3
SplineSet
454 36.7705078125 m 5
 440.864069231 -13.0364758886 398.158217424 -33 344 -33 c 261
 344 -173 l 261
 443.056237817 -173 559.600969387 -140.1431321 589 -0.875 c 5
 454 36.7705078125 l 5
32 321.5 m 4
 32 522.215835141 169.65234375 566 284 566 c 261
 283 426 l 261
 217.666992188 426 169 396.94813278 168.8046875 321.5 c 4
 168.8046875 73.5 l 4
 169 -1.94813278 217.666992188 -30.5 283 -30.5 c 261
 283 -170.5 l 261
 172.948434905 -170.5 30.3330078125 -122.854899357 30.3330078125 73.5 c 4
 32 321.5 l 4
206 364.5 m 5xef
 418 364.5 l 5
 418 250.5 l 5
 206 250.5 l 5
 206 364.5 l 5xef
376 322.5 m 261xdf
 376 234.5 l 262
 376 215.626984127 382.848064456 193.5 417.333007812 193.5 c 260
 453.689855861 193.5 458 222.880952381 458 239.5 c 260
 458.1953125 321.5 l 4
 458 396.94813278 409.333007812 426 344 426 c 261
 344 566 l 261
 458.34765625 566 596 522.215835141 596 321.5 c 4
 596 239.5 l 260
 596 122.360262009 529.553190499 53.5 417.333007812 53.5 c 260
 276.721219179 53.5 248 138.168802947 248 214.5 c 262
 248 214.5 248 310.902684564 248 322.5 c 261
 376 322.5 l 261xdf
EndSplineSet
EndChar

StartChar: si_Ma
Encoding: 50 3512 11
GlifName: si_M_a
Width: 570
VWidth: 0
Flags: HMW
AnchorPoint: "si_rakar" 320 -3 basechar 0
LayerCount: 4
Back
SplineSet
570 498 m 4
 570 621.85546875 527.504882812 754 317 754 c 5
 317 615 l 5
 385.4140625 615 430 603 430 498 c 262
 430 252 l 262
 430 147 385.413736584 135 317 135 c 5
 317 -5 l 5
 527.5047305 -5 570 127 570 252 c 262
 570 498 l 4
30 252 m 260
 30 299 l 6
 30 512.997323003 272 518.105203982 272 364 c 262
 272 348 l 6
 272 325.37890625 303 325.57421875 303 348 c 262
 303 469 l 261
 395 469 l 261
 395 340 l 262
 395 263.042318867 342.455078125 228.663085938 290.440429688 228.663085938 c 4
 239.465820312 228.663085938 189 261.681757186 189 320 c 6
 189 328 l 262
 189 341.305288283 181.157234739 348.080078125 173.361328125 348.080078125 c 4
 165.657787339 348.080078125 158 341 158 328 c 262
 158 252 l 262
 158 153.84765625 200.990499795 135 260.666992188 135 c 261
 260.666992188 -5 l 261
 64.9495442708 -5 30 143 30 252 c 260
34 565 m 261
 171 529 l 261
 171 600.55078125 213.008789062 615.5 261 615.5 c 5
 261 754 l 5
 147.947265625 754 34 676.958984375 34 565 c 261
EndSplineSet
Fore
SplineSet
30.375 563 m 1
 30.375 673.920898438 146.922851562 755 243 755 c 1
 243 715 l 1
 158.505859375 715 69.375 644.131835938 69.375 553 c 1
 30.375 563 l 1
299 0 m 1
 458.370117188 0 540 83.962890625 540 241 c 0
 540 514 l 0
 540 671.037109375 458.370117188 755 299 755 c 1
 299 715 l 1
 412.055664062 715 499 661.71484375 499 514 c 0
 499 241 l 0
 499 95.28515625 412.055664062 40 299 40 c 1
 299 0 l 1
30 252 m 256
 30 336 l 6
 30 519.997070312 234 516.10546875 234 380 c 262
 234 315 l 6
 234 262.37890625 317 262.57421875 317 315 c 262
 317 469 l 261
 357 469 l 261
 357 310 l 262
 357 203.736328125 194 203.596679688 194 310 c 6
 194 380 l 262
 194 455.750976562 70 472.624023438 70 336 c 262
 70 252 l 258
 70 53.84765625 203.323242188 40 243 40 c 257
 243 0 l 257
 67.2822265625 0 30 143 30 252 c 256
EndSplineSet
PickledDataWithLists: "(dp1
S'com.fontlab.hintData'
p2
(dp3
S'vhints'
p4
(lp5
(dp6
S'position'
p7
I54
sS'width'
p8
I40
sa(dp9
g7
I201
sg8
I40
sa(dp10
g7
I341
sg8
I40
sa(dp11
g7
I524
sg8
I41
sasS'hhints'
p12
(lp13
(dp14
g7
I0
sg8
I41
sa(dp15
g7
I253
sg8
I40
sa(dp16
g7
I435
sg8
I39
sa(dp17
g7
I712
sg8
I40
sass."
Layer: 2
Layer: 3
EndChar

StartChar: si_MatraAe
Encoding: 64 3536 12
GlifName: si_M_atraA_e
Width: 277
VWidth: 0
Flags: HW
HStem: -0.00292969 40.0029<125.183 227> 534 40<30 167>
VStem: 30 40<100.692 389.77>
LayerCount: 4
Back
SplineSet
30 200 m 4
 30 288 l 4
 30 386.580078125 48 434 167 534 c 261
 30 534 l 261xa0
 30 574 l 261xc0
 227 574 l 261
 227 534 l 261xc0
 74 408 70 368 70 290 c 4
 70 200 l 260xa0
 70 151.20703125 75.8037109375 40 195 40 c 4
 203.854492188 40 222.680664062 40 227 40 c 261
 227 0 l 261xc0
 219.533203125 -0.001953125 212.229492188 -0.0029296875 205.190429688 -0.0029296875 c 4
 98.365234375 -0.0029296875 29.8537694516 49.9849364618 30 200 c 4
EndSplineSet
Fore
SplineSet
70 183 m 256
 70 134 72.8037109375 40 195 40 c 0
 203.854492188 40 222.680664062 40 227 40 c 257
 227 0 l 257
 219.533203125 -0.001953125 203.229492188 -0.0029296875 196.190429688 -0.0029296875 c 0
 99.365234375 -0.0029296875 30 56 30 183 c 0
 30 309 l 0
 30 407.580078125 48 434 167 534 c 257
 30 534 l 257
 30 574 l 257
 227 574 l 257
 227 534 l 257
 74 408 70 387 70 309 c 0
 70 183 l 256
EndSplineSet
PickledDataWithLists: "(dp1
S'com.fontlab.hintData'
p2
(dp3
S'hhints'
p4
(lp5
(dp6
S'position'
p7
I7
sS'width'
p8
I122
sa(dp9
g7
I465
sg8
I138
sass."
Layer: 2
SplineSet
30.0791015625 368 m 4
 30.419921875 484.262695312 87.7041015625 574 227 574 c 261
 247 574 l 5
 247 431 l 5
 227 431 l 261
 174.887695312 431 171 385.857421875 171 358 c 260
 171 206 l 260
 171 181.958984375 174.887695312 143 227 143 c 261
 247 143 l 5
 247 0 l 5
 227 0 l 261
 87.7041015625 0 30.419921875 89.7373046875 30.0791015625 206 c 4
 30.0791015625 368 l 4
EndSplineSet
Layer: 3
EndChar

StartChar: si_MatraI
Encoding: 66 3538 13
GlifName: si_M_atraI_i
Width: 583
VWidth: 0
Flags: HMW
LayerCount: 4
Back
SplineSet
30 602 m 5
 30 630 l 261
 29.623046875 723.409179688 106.741210938 789 206 789 c 5
 377 789 l 5
 476.258789062 789 553.376953125 723.409179688 553 630 c 261
 553 602 l 5
 423 602 l 261
 423 654.112304688 387.857421875 658 361 659 c 5
 222 659 l 5
 195.142578125 658 160 654.112304688 160 602 c 261
 30 602 l 5
EndSplineSet
Fore
SplineSet
377 789 m 1
 206 789 l 1
 105.741210938 789 30 723 30 630 c 257
 30 602 l 1
 70 602 l 257
 70 654.112304688 79.142578125 749 222 749 c 1
 361 749 l 1
 503.857421875 749 513 654.112304688 513 602 c 257
 553 602 l 1
 553 630 l 257
 553 723 477.258789062 789 377 789 c 1
EndSplineSet
PickledDataWithLists: "(dp1
S'com.fontlab.hintData'
p2
(dp3
S'vhints'
p4
(lp5
(dp6
S'position'
p7
I-391
sS'width'
p8
I114
sa(dp9
g7
I-6
sg8
I112
sasS'hhints'
p10
(lp11
(dp12
g7
I676
sg8
I104
sass."
Layer: 2
Layer: 3
SplineSet
236 818.920898438 m 4
 119.737304688 818.580078125 30 761.295898438 30 622 c 261
 30 612 l 5
 170 612 l 5
 170 622 l 261
 170 674.112304688 215.142578125 678 243 678 c 260
 341 678 l 260
 365.041015625 678 404 674.112304688 404 622 c 261
 404 612 l 5
 544 612 l 5
 544 622 l 261
 544 761.295898438 454.262695312 818.580078125 338 818.920898438 c 4
 236 818.920898438 l 4
EndSplineSet
EndChar

StartChar: si_Na
Encoding: 44 3505 14
GlifName: si_N_a
Width: 728
VWidth: 0
Flags: HW
HStem: -8 135<211.762 347.938> 436.016 137.732<417.08 553.257> 446 121<165.048 272.047>
VStem: 44 118<150.343 270 304 344> 139 23<165 303.963> 602 140<145.686 385.151>
LayerCount: 4
Back
SplineSet
46 439 m 261
 60 537 152.521484375 567 214 567 c 260
 282.510742188 567 345 522 345 506 c 5
 261 402 l 5xa4
 261 437 230.168945312 446 214 446 c 260
 180.069335938 446 163 422.741210938 163 402 c 261
 46 439 l 261
139 165 m 5
 139 304 l 4
 163.771484375 303.962890625 l 4
 190.3203125 303.962890625 265.206054688 435.953125 297.456054688 479 c 5
 339.869140625 542.879882812 414.299804688 573.748046875 490.267578125 573.748046875 c 4xcc
 614.091796875 573.748046875 742 491.739257812 742 337 c 6
 742 198 l 4
 741.580078125 81.7373046875 685.295898438 -8 546 -8 c 261
 546 135 l 261
 598.112304688 135 602 173.958984375 602 198 c 4
 602 317 l 6
 602 391.166992188 544.397460938 436.015625 484.745117188 436.015625 c 4
 448.87890625 436.015625 413.422851562 418.932617188 387 384 c 6
 309.092773438 281 l 5
 253.657226562 208 215.848632812 165 168 165 c 5
 139 165 l 5
44 256 m 5
 44 344 l 261
 162 344 l 261
 162 313 162 301 162 270 c 4x94
 162 150.342773438 222.982421875 127 292 127 c 4
 372.633789062 127 403 218 350 251 c 5
 426.21484375 354.311523438 l 5
 583 271 532.120117188 -7.8505859375 296 -8 c 4
 148 -8.09375 44 85.072265625 44 256 c 5
EndSplineSet
Fore
SplineSet
698 336 m 2
 698 192 l 0
 697.580078125 65.7373046875 661.295898438 -1 522 -1 c 257
 522 39 l 257
 584.112304688 39 658 47.958984375 658 192 c 0
 658 336 l 2
 658 522.208007812 422.555664062 581.887695312 324 452 c 2
 245.998046875 349.200195312 l 2
 193.392578125 280.186523438 126 201 50 214 c 1
 50 258 l 0
 100.330078125 242.676757812 169.999023438 321.200195312 196.999023438 356.200195312 c 2
 294.012695312 485 l 2
 391.119140625 613.922851562 698 597.162109375 698 336 c 2
33 452 m 257
 98 622 291 576 320 473 c 1
 289 445 l 1xa4
 265 531 121 563 72 440 c 257
 33 452 l 257
30 256 m 2
 30 344 l 257
 71 344 l 257
 71 313 71 301 71 270 c 0x94
 71 -31.7568359375 447.907226562 -26.55859375 447.907226562 207.78125 c 0
 447.907226562 269.001953125 423.598632812 334.852539062 330 370 c 1
 355 403 l 1
 451.48046875 372.244140625 492.4140625 287.1875 492.4140625 208.131835938 c 0
 492.4140625 -80.54296875 30 -85.455078125 30 256 c 2
EndSplineSet
Layer: 2
Layer: 3
EndChar

StartChar: si_Nna
Encoding: 38 3499 16
GlifName: si_N_na
Width: 963
VWidth: 0
Flags: HMW
LayerCount: 4
Back
Fore
SplineSet
529.473632812 494.919921875 m 1
 576.298828125 545.831054688 680 524.724609375 680 432 c 2
 680 251 l 1
 720 251 l 1
 720 432 l 2
 720 562.587890625 581.764648438 596.830078125 509.655273438 534.323242188 c 1
 529.473632812 494.919921875 l 1
535 160 m 258
 535 202 l 257
 575 202 l 257
 575 160 l 258
 575 -8.0107421875 893 -8.5517578125 893 160 c 258
 893 202 l 257
 933 202 l 257
 933 160 l 258
 933 -62.490234375 535 -61.7880859375 535 160 c 258
9.9990234375 5 m 257
 48 82 110.74609375 84.625 140.293945312 84.625 c 0
 218.580078125 84.625 256.1484375 40.662109375 317.311523438 40.662109375 c 0
 359.779296875 40.662109375 439 71.5 439 176 c 256
 439 383 l 0
 439 511.833984375 363.322265625 566 268 566 c 256
 114.169921875 566 96 434.25390625 96 398 c 0
 96 365.455078125 105.838867188 242 257 242 c 0
 277.512695312 242 287 242 303 242 c 257
 303 202 l 257
 293 202 262.15625 201.958984375 236.25 201.958984375 c 0
 139.377929688 201.958984375 56 275.274414062 56 398 c 256
 56 535 158 606 268 606 c 256
 478.698242188 606 480.075195312 430.731445312 480.075195312 383 c 0
 480.075195312 368.861328125 480 194.315429688 480 176 c 256
 480 38.7333984375 374.319335938 0.19921875 318.14453125 0.19921875 c 0
 246.228515625 0.19921875 205.196289062 43.357421875 140.293945312 43.357421875 c 0
 104.716796875 43.357421875 66 34 49 -5 c 257
 9.9990234375 5 l 257
362.27734375 581 m 1
 515.999023438 784 l 1
 562 772 l 1
 390.999023438 546 l 1
 362.27734375 581 l 1
680 432 m 1
 680 251 l 1
 720 251 l 1
 720 432 l 2
 720 552.049804688 893 551.764648438 893 432 c 2
 893 251 l 1
 933 251 l 1
 933 432 l 2
 933 608.666015625 680 609 680 432 c 1
EndSplineSet
PickledDataWithLists: "(dp1
S'com.fontlab.hintData'
p2
(dp3
S'vhints'
p4
(lp5
(dp6
S'position'
p7
I128
sS'width'
p8
I40
sa(dp9
g7
I579
sg8
I40
sa(dp10
g7
I686
sg8
I38
sa(dp11
g7
I777
sg8
I40
sa(dp12
g7
I1035
sg8
I40
sasS'hhints'
p13
(lp14
(dp15
g7
I0
sg8
I41
sa(dp16
g7
I66
sg8
I40
sa(dp17
g7
I529
sg8
I40
sa(dp18
g7
I537
sg8
I40
sa(dp19
g7
I573
sg8
I40
sass."
Layer: 2
Layer: 3
EndChar

StartChar: si_Pa
Encoding: 46 3508 17
GlifName: si_P_a
Width: 620
VWidth: 0
Flags: HW
HStem: -12 135<199.74 428.012> 283 119<175.85 250 378 452.174> 378 24<250 378> 451 123.548<152.464 240.697 387.31 475.537>
VStem: 34 140<151.819 202 251 277.921> 250 128<378 441.312> 454 140<153.184 202 251 278.718>
CounterMasks: 1 0e
LayerCount: 4
Back
SplineSet
584 422 m 261
 448 422 l 261
 448 446 431 460 410 460 c 260
 386 460 371 441 371 422 c 261
 250 422 l 261
 249 441 236 460 210 460 c 260
 187 460 173 440 173 422 c 261
 37 422 l 261
 37 515 101 574 200 574 c 260
 245 574 283 563 310 543 c 261
 341 568 386 574 420 574 c 260
 525 574 584 511 584 422 c 261
EndSplineSet
Fore
SplineSet
290 379 m 261
 330 379 l 5
 330 415 l 5
 330 469 360.79296875 524 439 524 c 260
 501.579101562 524 536.52734375 500.315429688 550 464 c 261
 589 477 l 261
 563.29296875 541.87109375 502.880859375 564 439 564 c 260
 388.022460938 564 290.000976562 539.44921875 290.048828125 415 c 5
 290 379 l 261
31 477 m 261
 70 464 l 261
 83.47265625 500.315429688 118.420898438 524 181 524 c 260
 259.20703125 524 290 469 290 415 c 5
 290 379 l 5
 330 379 l 261
 329.951171875 415 l 5
 329.999023438 539.44921875 231.977539062 564 181 564 c 260
 117.119140625 564 56.70703125 541.87109375 31 477 c 261
341 -12 m 4
 518 -12 590 59.24609375 590 202 c 261
 550 202 l 261
 550 71.80078125 474 28 341 28 c 4
 279 28 l 4
 146 28 70 70.80078125 70 202 c 261
 30 202 l 261
 30 59.24609375 102 -12 279 -12 c 4
 341 -12 l 4
30 251 m 261
 30 373 97 402 194 402 c 262
 419 402 l 262
 527 402 590 377 590 251 c 261
 550 251 l 261
 550 329 530 362 421 362 c 262xde
 195 362 l 262
 85.73828125 362 70.0009765625 317.104492188 70 251 c 261
 30 251 l 261
EndSplineSet
Layer: 2
SplineSet
971 478 m 261
 968 478 l 262
 945 478 928 461 928 424 c 262
 928 420 l 261
 823 460 l 261
 823 462 l 262
 823 533 900 590 968 590 c 262
 971 590 l 261
 971 478 l 261
EndSplineSet
Layer: 3
SplineSet
377 389 m 1xbc
 377 377.908203125 l 1
 242 378 l 1
 242 389 l 1
 242 440.395507812 197.41796875 450 146 450 c 256
 125 450 71 446 46 431 c 257
 46 551 l 257
 68 564 111 571 157 571 c 256
 200.737304688 571 266 564 309 509 c 257
 352 564 418.262695312 571 462 571 c 256
 508 571 550 562 572 549 c 257
 572 431 l 257
 537 444 490 447 469 447 c 256
 417.58203125 447 377 440.395507812 377 389 c 1xbc
448 202 m 257
 588 202 l 257
 588 64 505 -12 336 -12 c 256
 283 -12 l 0
 106 -12 28 59.24609375 28 202 c 257
 168 202 l 257
 168 148.80078125 209 123 272 123 c 0
 344 123 l 256
 409 123 448 151 448 202 c 257
420 283 m 258xdc
 203 283 l 258
 169.73828125 283 168.000976562 262.104492188 168 251 c 257
 29 251 l 257
 29 373 95 402 192 402 c 258
 417 402 l 258
 525 402 588 377 588 251 c 257
 449 251 l 257
 449 263 449 283 420 283 c 258xdc
EndSplineSet
EndChar

StartChar: si_Sa
Encoding: 58 3523 18
GlifName: si_S_a
Width: 677
VWidth: 0
Flags: HMW
HStem: 0 40<158.404 301.972 422.028 565.596> 362 40<132.246 192 531 589.602> 523 40<154.939 300.585 425.415 571.061>
VStem: 77 40<79.7367 141 288 346.197> 342 40<55.528 140 192 192 414 538.45> 607 40<79.7367 141 288 345.541>
LayerCount: 4
Back
SplineSet
67 160 m 0
 67 202 l 257
 206 202 l 1
 206 171 l 2
 206 144.934689091 229.005735768 131.396782147 252.008603115 131.396782147 c 0
 275.005735053 131.396782147 298 144.927938996 298 173 c 2
 298 202 l 257
 426 202 l 257
 426 173 l 2
 426 145.085968661 449.285280698 131.382513218 472.426596846 131.382513218 c 0
 495.283522345 131.382513218 518 144.751226415 518 171 c 2
 518 202 l 1
 657 202 l 257
 657 160 l 0
 657 50 585.024533357 -8 475 -8 c 256
 432.054846939 -8 388.961734694 3.73333333333 359 36 c 257
 330.071428571 3.73333333333 291.464285714 -8 250 -8 c 256
 141.126953125 -8 67 58 67 160 c 0
78 460 m 257
 102.045964826 536.590850926 169.807514688 574.548060452 241.251853053 574.548060452 c 0
 282.892209188 574.548060452 325.783601913 561.654065069 362 536 c 257
 398.253384942 561.680264891 441.124337936 574.5641096 482.729863568 574.5641096 c 0
 554.220574764 574.5641096 621.97504885 536.523918476 646 460 c 257
 528 421 l 257
 523.584045584 436 508.783216783 451 481 451 c 256
 465.668933796 451 426 443.165126768 426 397 c 1
 426 378 l 1
 298 378 l 1
 298 397 l 1
 298 443.165126768 258.331066204 451 243 451 c 256
 215.216783217 451 200.415954416 436 196 421 c 257
 78 460 l 257
30 283 m 257
 30 402 l 257
 503 402 l 258
 565.360482743 402 657 391.936523438 657 279 c 2
 657 251 l 257
 518 251 l 257
 518 266 509 283 481 283 c 258
 246 283 l 258
 213 283 206 263 206 251 c 257
 67 251 l 257
 67.28125 256.169921875 68 281 71 283 c 257
 30 283 l 257
EndSplineSet
Fore
SplineSet
343 379 m 257
 383 379 l 1
 383 415 l 1
 383 469 413.79296875 524 492 524 c 256
 554.579101562 524 589.52734375 500.315429688 603 464 c 257
 642 477 l 257
 616.29296875 541.87109375 555.880859375 564 492 564 c 256
 441.022460938 564 343.000976562 539.44921875 343.048828125 415 c 1
 343 379 l 257
30 362 m 261
 105 362 l 261
 83.8190466385 350.654338322 77 319.714285714 77 288 c 4
 77 241 l 261
 117 241 l 261
 117 288 l 4
 117 354.574829932 155.630643203 362 192 362 c 261
 532 362 l 261
 568.369356797 362 607 354.574829932 607 288 c 4
 607 241 l 261
 647 241 l 261
 647 288 l 4
 647 336.857142857 641.794520548 402 531 402 c 261
 30 402 l 261
 30 362 l 261
342 140 m 0
 342 55.5279503106 409.673076923 0 495 0 c 256
 579.326923077 0 647 55.5279503106 647 140 c 0
 647 192 l 257
 607 192 l 1
 607 141 l 0
 607 74.3120582676 558.263151703 40 495 40 c 0
 430.736848297 40 382 74.3120582676 382 141 c 0
 382 192 l 1
 342 192 l 257
 342 140 l 0
77 140 m 0
 77 55.5279503106 144.673076923 0 229 0 c 256
 314.326923077 0 382 55.5279503106 382 140 c 0
 382 192 l 257
 342 192 l 1
 342 141 l 0
 342 74.3120582676 293.263151703 40 229 40 c 0
 165.736848297 40 117 74.3120582676 117 141 c 0
 117 192 l 1
 77 192 l 257
 77 140 l 0
84 477 m 257
 123 464 l 257
 136.47265625 500.315429688 171.420898438 524 234 524 c 256
 312.20703125 524 343 469 343 415 c 1
 343 379 l 1
 383 379 l 257
 382.951171875 415 l 1
 382.999023438 539.44921875 284.977539062 564 234 564 c 256
 170.119140625 564 109.70703125 541.87109375 84 477 c 257
EndSplineSet
PickledDataWithLists: "(dp1
S'com.fontlab.hintData'
p2
(dp3
S'vhints'
p4
(lp5
(dp6
S'position'
p7
I63
sS'width'
p8
I139
sa(dp9
g7
I316
sg8
I123
sa(dp10
g7
I554
sg8
I139
sasS'hhints'
p11
(lp12
(dp13
g7
I-6
sg8
I132
sa(dp14
g7
I251
sg8
I163
sa(dp15
g7
I295
sg8
I119
sa(dp16
g7
I498
sg8
I113
sass."
Layer: 2
Layer: 3
EndChar

StartChar: si_Ssa
Encoding: 57 3522 19
GlifName: si_S_sa
Width: 620
VWidth: 0
Flags: HMW
LayerCount: 4
Back
SplineSet
48 460 m 257
 72.045979566 536.590711255 139.807570965 574.547851562 211.251953125 574.547851562 c 0
 252.89227475 574.547851562 295.783631928 561.653926051 332 536 c 257
 368.253273422 561.680493648 411.124094539 574.564453125 452.729492188 574.564453125 c 0
 524.220365999 574.564453125 591.974994202 536.524147936 616 460 c 257
 498 421 l 257
 493.584045584 436 478.783216783 451 451 451 c 256
 435.668933796 451 396 443.165126768 396 397 c 1
 396 378 l 1
 268 378 l 1
 268 397 l 1
 268 443.165126768 228.331066204 451 213 451 c 256
 185.216783217 451 170.415954416 436 166 421 c 257
 48 460 l 257
244 168 m 5
 244 276.976190476 330 345 392 367 c 5
 558 367 l 5
 483 342 378 259.975961538 378 170 c 5
 244 168 l 5
30 202 m 257
 170 202 l 257
 170 148.80078125 211 123 274 123 c 0
 386 123 l 256
 451 123 490 151 490 202 c 257
 630 202 l 257
 630 64 547 -12 378 -12 c 256
 285 -12 l 0
 108 -12 30 59.24609375 30 202 c 257
31 251 m 257
 31 377.039735099 97 407 194 407 c 258
 459 407 l 258
 567 407 630 381.17218543 630 251 c 257
 491 251 l 257
 491 264.875 491 288 462 288 c 258
 205 288 l 258
 171.73828125 288 170.000976562 263.839569092 170 251 c 257
 31 251 l 257
EndSplineSet
Fore
SplineSet
322 168 m 1
 282 168 l 1
 282 257.975585938 340 337 444 367 c 5
 510 367 l 1
 402 318 322 276.9765625 322 168 c 1
290 379 m 257
 330 379 l 1
 330 415 l 1
 330 469 360.79296875 524 439 524 c 256
 501.579101562 524 536.52734375 500.315429688 550 464 c 257
 589 477 l 257
 563.29296875 541.87109375 502.880859375 564 439 564 c 256
 388.022460938 564 290.000976562 539.44921875 290.048828125 415 c 1
 290 379 l 257
31 477 m 257
 70 464 l 257
 83.47265625 500.315429688 118.420898438 524 181 524 c 256
 259.20703125 524 290 469 290 415 c 1
 290 379 l 1
 330 379 l 257
 329.951171875 415 l 1
 329.999023438 539.44921875 231.977539062 564 181 564 c 256
 117.119140625 564 56.70703125 541.87109375 31 477 c 257
341 -12 m 0
 518 -12 590 59.24609375 590 202 c 257
 550 202 l 257
 550 71.80078125 474 28 341 28 c 0
 279 28 l 0
 146 28 70 70.80078125 70 202 c 257
 30 202 l 257
 30 59.24609375 102 -12 279 -12 c 0
 341 -12 l 0
30 251 m 257
 30 373 97 402 194 402 c 258
 419 402 l 258
 527 402 590 377 590 251 c 257
 550 251 l 257
 550 329 530 362 421 362 c 258xde
 195 362 l 258
 85.73828125 362 70.0009765625 317.104492188 70 251 c 257
 30 251 l 257
EndSplineSet
PickledDataWithLists: "(dp1
S'com.fontlab.hintData'
p2
(dp3
S'vhints'
p4
(lp5
(dp6
S'position'
p7
I49
sS'width'
p8
I130
sa(dp9
g7
I267
sg8
I109
sa(dp10
g7
I532
sg8
I120
sasS'hhints'
p11
(lp12
(dp13
g7
I-6
sg8
I131
sa(dp14
g7
I296
sg8
I118
sa(dp15
g7
I486
sg8
I124
sass."
Layer: 2
Layer: 3
EndChar

StartChar: si_Ta
Encoding: 40 3501 20
GlifName: si_T_a
Width: 760
VWidth: 0
Flags: HW
HStem: -1 40<206.176 363.983 524 610.206>
VStem: 660 40<92.6874 409.351>
LayerCount: 4
Back
SplineSet
253 402 m 5xb0
 253 437 222.168945312 446 206 446 c 260
 172.069335938 446 155 422.741210938 155 402 c 261
 38 439 l 261
 52 537 144.521484375 567 206 567 c 260
 274.510742188 567 337 522 337 506 c 5
 253 402 l 5xb0
323 258 m 261
 423 342 l 261
 583.951171875 226.397460938 500.317382812 -7.9501953125 312 -7.9501953125 c 4
 105.728515625 -7.9501953125 110 167.5 31 154 c 261
 75 254 l 261
 215.415039062 254 196.282226562 130 292 130 c 4
 384.887695312 130 389.385742188 236.400390625 323 258 c 261
302 480 m 5
 446.8203125 639.302734375 741 581.889648438 741 321 c 6
 741 205 l 4
 740.580078125 88.7373046875 684.295898438 -1 545 -1 c 261
 545 142 l 261
 597.112304688 142 601 180.958984375 601 205 c 4
 601 307 l 6
 601 416.044921875 497.70703125 455 426 400 c 5
 156 181.391601562 l 5
 31 154 l 5
 31 259 l 5
 302 480 l 5
EndSplineSet
Fore
SplineSet
30 196 m 1
 30 246 l 1
 320 494 l 1
 474.245117188 613.712890625 730 579.477539062 730 314 c 2
 730 192 l 0
 729.580078125 65.7373046875 693.295898438 -1 554 -1 c 257
 554 39 l 257
 616.112304688 39 690 47.958984375 690 192 c 0
 690 314 l 2
 690 528.307617188 474.436523438 570.135742188 349 466 c 1
 69 225 l 1
 30 196 l 1
65 452 m 257
 130 622 323 576 352 473 c 1
 321 445 l 1
 297 531 153 563 104 440 c 257
 65 452 l 257
30 196 m 257
 49.765625 234.220703125 l 257
 53.7685546875 234.96875 57.6396484375 235.327148438 61.3896484375 235.327148438 c 0
 148.852539062 235.327148438 160.451171875 36.154296875 314 36.154296875 c 0
 499.830078125 36.154296875 533.000976562 320 298.77734375 348.904296875 c 1
 336 381 l 1
 583 334.200195312 554.002929688 -4.3447265625 314 -4.3447265625 c 0
 132.818359375 -4.3447265625 116.524414062 197.860351562 42.5546875 197.860351562 c 0
 38.4892578125 197.860351562 34.3115234375 197.26171875 30 196 c 257
EndSplineSet
PickledDataWithLists: "(dp1
S'com.fontlab.hintData'
p2
(dp3
S'vhints'
p4
(lp5
(dp6
S'position'
p7
I355
sS'width'
p8
I120
sa(dp9
g7
I584
sg8
I124
sasS'hhints'
p10
(lp11
(dp12
g7
I0
sg8
I118
sa(dp13
g7
I0
sg8
I110
sa(dp14
g7
I473
sg8
I122
sass."
Layer: 2
SplineSet
253 402 m 5xb0
 253 437 222.168945312 446 206 446 c 260
 172.069335938 446 155 422.741210938 155 402 c 261
 38 439 l 261
 52 537 144.521484375 567 206 567 c 260
 274.510742188 567 337 522 337 506 c 5
 253 402 l 5xb0
384 396 m 6
 126 68 l 5
 31.5546875 150.484375 l 5
 281 476 l 5
 403 645 763 607.510742188 763 313 c 6
 763 198 l 4
 762.580078125 81.7373046875 706.295898438 -8 567 -8 c 261
 567 135 l 261
 619.112304688 135 623 173.958984375 623 198 c 4
 623 313 l 6
 623 448.591796875 452.262695312 482.783203125 384 396 c 6
351 272 m 261
 429 374 l 261
 606 303 556.090820312 -7.9501953125 332 -7.9501953125 c 4
 210.107421875 -7.9501953125 169.416992188 110.137695312 126 68 c 261
 170 162 l 261
 242 244 254.954101562 130 322 130 c 4
 409.642578125 130 416.0703125 250.295898438 351 272 c 261
EndSplineSet
Layer: 3
EndChar

StartChar: si_Tta
Encoding: 34 3495 21
GlifName: si_T_ta
Width: 551
VWidth: 0
Flags: HW
HStem: 0 40.0693<160.19 239.625 296 392.669> 431.931 40.0693<156.041 239.625> 715 40<162.986 240 296 392.669>
VStem: 30.375 39<563 621.908> 37 41<120.599 355.857> 480 41<131.533 241 514 623.467>
LayerCount: 4
Back
SplineSet
297 -5 m 257
 493 -5 528 138 528 237 c 256
 528 520 l 0
 528 678 456.408203125 755 297 755 c 257
 297 616 l 257
 346.5546875 616 388 603 388 508 c 0
 388 248 l 256
 388 148.601851852 346.5546875 135 297 135 c 257
 297 -5 l 257
30 566 m 257
 30 672.125976562 137.077148438 755 240.666992188 755 c 1
 240.666992188 616.5 l 1
 203.301757812 616.5 167 595.735351562 167 530 c 257
 30 566 l 257
29.9990234375 261.92578125 m 0
 29.9990234375 343.692808447 44.6669921875 474 240.666992188 474 c 257
 240.666992188 336 l 257
 200.666992188 336 168 322 168 262 c 256
 168 222 l 2
 168 182.580197218 189 135 240.666992188 135 c 257
 240.666992188 -5 l 257
 96.6669921875 -5 30 116.579646018 30 208 c 256
 29.9990234375 261.92578125 l 0
EndSplineSet
Fore
SplineSet
30.375 563 m 1xf4
 30.375 673.920898438 143.922851562 755 240 755 c 1
 240 715 l 1
 155.505859375 715 69.375 644.131835938 69.375 553 c 1
 30.375 563 l 1xf4
296 0 m 1
 455.370117188 0 521 83.962890625 521 241 c 0
 521 514 l 0
 521 671.037109375 455.370117188 755 296 755 c 1
 296 715 l 1
 409.055664062 715 480 661.71484375 480 514 c 0
 480 241 l 0
 480 95.28515625 409.055664062 40 296 40 c 1
 296 0 l 1
36.9990234375 270 m 4
 36.9990234375 354.560546875 79.66015625 470 239.625 470 c 5
 239.625 429.930664062 l 5
 127.965820312 429.99609375 78 357.23046875 78 270 c 4
 78 200 l 4
 78 112 138.889648438 40.00390625 239.625 40.0693359375 c 5
 239.625 0 l 5
 90.3837890625 0 37 116 37 200 c 4xec
 36.9990234375 270 l 4
EndSplineSet
PickledDataWithLists: "(dp1
S'com.fontlab.hintData'
p2
(dp3
S'vhints'
p4
(lp5
(dp6
S'position'
p7
I73
sS'width'
p8
I40
sa(dp9
g7
I524
sg8
I41
sasS'hhints'
p10
(lp11
(dp12
g7
I0
sg8
I40
sa(dp13
g7
I434
sg8
I40
sa(dp14
g7
I712
sg8
I40
sass."
Layer: 2
Layer: 3
EndChar

StartChar: si_Va
Encoding: 55 3520 22
GlifName: si_V_a
Width: 551
VWidth: 0
Flags: HW
HStem: 0 40<153.724 240 296 392.669> 309 40<128.34 274> 450 40.6484<107.841 244.582> 715 40<162.986 240 296 392.669>
VStem: 33 40<115.639 260.194 563 630.955> 274 39.9316<349 418.602> 480 41<131.533 241 514 623.467>
LayerCount: 4
Back
SplineSet
30.3330078125 566 m 257
 167.333007812 530 l 257
 167.333007812 595.735351562 206.591456815 616.5 247 616.5 c 1
 247 755 l 1
 140.459817157 755 30.3330078125 672.125976562 30.3330078125 566 c 257
30 401 m 257
 55 479.754436649 115.74340045 501.6484375 170 501.6484375 c 0
 251.635095257 501.6484375 314 449.685236451 314 369 c 258
 314 252 l 257
 230 252 l 258
 200 252 171 242 171 195 c 256
 171 165.780894886 193.503125 135 247 135 c 257
 247 -5 l 257
 119.557711088 -5 33 87.232421875 33 192 c 256
 33 241 34.1772669293 291.09323436 91 333 c 256
 123.542372881 357 159.13559322 369 211 369 c 257
 211 387.973632812 193.962810558 399.184570312 170 399.184570312 c 0
 152.769079152 399.184570312 133.131158838 393.124187526 129 375 c 257
 30 401 l 257
303 -5 m 257
 457.967828396 -4.833984375 538 78.4931640625 538 250 c 258
 538 520 l 258
 538 699.96875 437.272799141 755 303 755 c 257
 303 616 l 257
 381.25184581 616 398 577 398 498 c 258
 398 250 l 258
 398 149.137118253 345.410714286 135 303 135 c 257
 303 -5 l 257
EndSplineSet
Fore
SplineSet
313.931640625 354 m 6
 314 309 l 261
 265 309 l 262
 127.373046875 309 73 285.76171875 73 181 c 260
 73 111.889648438 132.708007812 40 240 40 c 261
 240 0 l 261
 120.895507812 0 33 85.7333984375 33 181 c 260
 33 230.760742188 44.2470703125 268.244140625 70 296 c 4
 112.61328125 341.928710938 179.439453125 349 274 349 c 261
 273.505859375 450.283203125 128.243164062 467.491210938 95 389 c 261
 56 399 l 261
 86.6767578125 516.998046875 314 506 313.931640625 354 c 6
30.375 563 m 1
 30.375 673.920898438 143.922851562 755 240 755 c 1
 240 715 l 1
 155.505859375 715 69.375 644.131835938 69.375 553 c 1
 30.375 563 l 1
296 0 m 1
 455.370117188 0 521 83.962890625 521 241 c 0
 521 514 l 0
 521 671.037109375 455.370117188 755 296 755 c 1
 296 715 l 1
 409.055664062 715 480 661.71484375 480 514 c 0
 480 241 l 0
 480 95.28515625 409.055664062 40 296 40 c 1
 296 0 l 1
EndSplineSet
PickledDataWithLists: "(dp1
S'com.fontlab.hintData'
p2
(dp3
S'vhints'
p4
(lp5
(dp6
S'position'
p7
I18
sS'width'
p8
I127
sa(dp9
g7
I398
sg8
I134
sasS'hhints'
p10
(lp11
(dp12
g7
I-4
sg8
I132
sa(dp13
g7
I629
sg8
I131
sass."
Layer: 2
SplineSet
240.666992188 616.5 m 5
 240.666992188 755 l 5
 137.077148438 755 30 672.125976562 30 566 c 261
 167 530 l 261
 167 595.735351562 203.301757812 616.5 240.666992188 616.5 c 5
241 140 m 261
 241 -5 l 261
 117.130859375 -5 33 87.232421875 33 192 c 260
 33 241 35 290 91 333 c 260
 123 357 158 369 209 369 c 261
 209 387.973632812 175.794921875 399.184570312 137.34375 399.184570312 c 4
 106.890625 399.184570312 73.146484375 391.034179688 50 382 c 261
 50 492 l 261
 77.0361328125 501.293945312 112.129882812 506.6484375 147.934570312 506.6484375 c 4
 196.887695312 506.6484375 247.168945312 496.638671875 280 473 c 260
 307 454 327 416 327 349 c 262
 327 252 l 261
 230 252 l 262
 200 252 171 242 171 195 c 260
 171 168.215820312 191.7265625 140 241 140 c 261
528 520 m 262
 528 250 l 262
 528 78.4931640625 449.330078125 -4.833984375 297 -5 c 261
 297 140 l 261
 337.625 140 388 153.522460938 388 250 c 262
 388 498 l 262
 388 577 371.95703125 616 297 616 c 261
 297 755 l 261
 428.987304688 755 528 699.96875 528 520 c 262
EndSplineSet
Layer: 3
SplineSet
240.666992188 616.5 m 5
 240.666992188 755 l 5
 137.077148438 755 30 672.125976562 30 566 c 261
 167 530 l 261
 167 595.735351562 203.301757812 616.5 240.666992188 616.5 c 5
241 140 m 261
 241 -5 l 261
 117.130859375 -5 33 87.232421875 33 192 c 260
 33 241 35 290 91 333 c 260
 123 357 158 369 209 369 c 261
 209 387.973632812 175.794921875 399.184570312 137.34375 399.184570312 c 4
 106.890625 399.184570312 73.146484375 391.034179688 50 382 c 261
 50 492 l 261
 77.0361328125 501.293945312 112.129882812 506.6484375 147.934570312 506.6484375 c 4
 196.887695312 506.6484375 247.168945312 496.638671875 280 473 c 260
 307 454 327 416 327 349 c 262
 327 252 l 261
 230 252 l 262
 200 252 171 242 171 195 c 260
 171 168.215820312 191.7265625 140 241 140 c 261
528 520 m 262
 528 250 l 262
 528 78.4931640625 449.330078125 -4.833984375 297 -5 c 261
 297 140 l 261
 337.625 140 388 153.522460938 388 250 c 262
 388 498 l 262
 388 577 371.95703125 616 297 616 c 261
 297 755 l 261
 428.987304688 755 528 699.96875 528 520 c 262
EndSplineSet
EndChar

StartChar: si_Ya
Encoding: 52 3514 23
GlifName: si_Y_a
Width: 630
VWidth: 0
Flags: HMW
LayerCount: 4
Back
SplineSet
30 160 m 4
 30 202 l 261
 169 202 l 5
 169 171 l 6
 169 144.934493109 192.005828747 131.396484375 215.008789062 131.396484375 c 4
 238.00582802 131.396484375 261 144.927738072 261 173 c 6
 261 202 l 261
 389 202 l 261
 389 173 l 6
 389 145.086169397 412.28536143 131.3828125 435.426757812 131.3828125 c 4
 458.28360258 131.3828125 481 144.751424706 481 171 c 6
 481 202 l 5
 620 202 l 261
 620 160 l 4
 620 50 548.024533357 -8 438 -8 c 260
 395.054846939 -8 351.961734694 3.73333333333 322 36 c 261
 293.071428571 3.73333333333 254.464285714 -8 213 -8 c 260
 104.126953125 -8 30 58 30 160 c 4
293 283 m 261
 293 366 l 262
 293 489.77734375 340.893554688 566 467 566 c 4
 522.747983871 566 589 543 625 458 c 261
 515 421 l 261
 503.118041992 441.99609375 485.367024739 445.798828125 467 445.798828125 c 4
 443.179643112 445.798828125 423 433.2265625 423 402 c 261
 479 402 l 262
 587 402 620 339 620 269 c 262
 620 251 l 261
 480 251 l 261
 480 254 l 262
 480 268 478 283 437 283 c 262
 293 283 l 261
30 251 m 261
 30 340 l 262
 30 493.265217833 132.282803769 563 248 563 c 262
 265 563 l 261
 265 433 l 261
 245 433 l 262
 191.20492088 433 169 389.937761321 169 317 c 262
 169 251 l 261
 30 251 l 261
EndSplineSet
Fore
SplineSet
30 251 m 257
 30 340 l 258
 30 493.265217833 132.282803769 563 248 563 c 258
 265 563 l 257
 265 523 l 257
 246 523 l 258
 133.205078125 523 70 450.9375 70 341 c 258
 70 251 l 257
 30 251 l 257
30 140 m 0
 30 55.5283203125 97.6728515625 0 182 0 c 256
 267.327148438 0 335 55.5283203125 335 140 c 0
 335 192 l 257
 295 192 l 1
 295 141 l 0
 295 74.3125 246.262695312 40 182 40 c 0
 118.737304688 40 70 74.3125 70 141 c 0
 70 192 l 1
 30 192 l 257
 30 140 l 0
295 140 m 0
 295 55.5283203125 362.672851562 0 448 0 c 256
 532.327148438 0 600 55.5283203125 600 140 c 0
 600 192 l 257
 560 192 l 1
 560 141 l 0
 560 74.3125 511.262695312 40 448 40 c 0
 383.737304688 40 335 74.3125 335 141 c 0
 335 192 l 1
 295 192 l 257
 295 140 l 0
295 362 m 257
 480 362 l 6
 516 362 560 364.575195312 560 298 c 2
 560 251 l 1
 600 251 l 1
 600 298 l 2
 600 346.857421875 590 402 479 402 c 6
 335 402 l 1
 335 480.058814102 357.584630654 524 444 524 c 256
 506.579101562 524 541.52734375 500.315429688 555 464 c 257
 594 477 l 257
 568.29296875 541.87109375 507.880859375 564 444 564 c 256
 393.022460938 564 295.000976562 539.44921875 295.048828125 415 c 1
 295 362 l 257
EndSplineSet
PickledDataWithLists: "(dp1
S'com.fontlab.hintData'
p2
(dp3
S'vhints'
p4
(lp5
(dp6
S'position'
p7
I42
sS'width'
p8
I129
sa(dp9
g7
I279
sg8
I115
sa(dp10
g7
I505
sg8
I124
sasS'hhints'
p11
(lp12
(dp13
g7
I-11
sg8
I129
sa(dp14
g7
I251
sg8
I159
sa(dp15
g7
I297
sg8
I113
sa(dp16
g7
I481
sg8
I122
sass."
Layer: 2
SplineSet
429 -8 m 260
 378 -8 355 7 326 37 c 261
 296 4 267 -8 224 -8 c 260
 93 -8 30 79 30 202 c 261
 169 202 l 261
 169 189 l 262
 169 147 189 132 214 132 c 260
 237 132 263 141 263 186 c 261
 263 202 l 261
 386 202 l 261
 386 188 l 261
 386 145 405 132 433 132 c 260
 458 132 479 142 479 189 c 262
 479 202 l 261
 618 202 l 261
 618 51 531 -8 429 -8 c 260
292 366 m 262
 292 399 292.822265625 443.200195312 304 468 c 260
 345.631835938 560.3671875 462.7890625 584.802734375 597 552 c 261
 597 422 l 261
 523.7265625 458.078125 435 448.916015625 435 402 c 261
 478 402 l 262
 586 402 619 339 619 269 c 262
 619 251 l 261
 479 251 l 261
 479 254 l 262
 479 268 477 283 436 283 c 262
 292 283 l 261
 292 366 l 262
265 433 m 261
 245 433 l 262
 224 433 182 417 170 349 c 260
 169 339 169 314 169 277 c 262
 169 251 l 261
 30 251 l 261
 30 290 l 262
 30 369 41.1826171875 433.865234375 61 461 c 260
 126 550 207 563 248 563 c 262
 265 563 l 261
 265 433 l 261
EndSplineSet
Layer: 3
EndChar

StartChar: si_Kha
Encoding: 22 3483 25
GlifName: si_K_ha
Width: 586
VWidth: 0
Flags: W
HStem: 0 40<125.502 211> 241 23<514 556> 715 40<173.986 263 320 427.416>
VStem: 30 40.917<94.1344 353.334> 41.375 39<563 621.908> 268 41<138 353.31> 514 42<76.3621 626.073>
LayerCount: 4
Back
SplineSet
46 566 m 257
 183 530 l 257
 183 595.735351562 222.258789062 616.5 262.666992188 616.5 c 1
 273 616.5 l 1
 273 755 l 1
 262.666992188 755 l 1
 156.126953125 755 46 672.125976562 46 566 c 257
260 134 m 2
 260 222 l 1
 395 222 l 1
 395 176 l 2
 395 134.09375 455 135 455 176 c 258
 455 500 l 258
 455 579 438.251953125 616 360 616 c 257
 329 616 l 1
 329 755 l 1
 360 755 l 257
 494.272460938 755 595 699 595 500 c 258
 595 199 l 258
 595 -119 260 -8.8408203125 260 134 c 2
30 189 m 256
 30 273 l 2
 30 511.39453125 395 503.045898438 395 300 c 258
 395 -65 l 1
 260 -65 l 1
 260 8 l 257
 260 261 l 258
 260 331.477539062 165 329.173828125 165 261 c 258
 165 202 l 0
 165 166 169.263671875 140 214 140 c 257
 214 0 l 257
 62 0 30 92 30 189 c 256
EndSplineSet
Fore
SplineSet
41.375 563 m 1xee
 41.375 673.920898438 154.922851562 755 251 755 c 1
 263 755 l 1
 263 715 l 1
 251 715 l 1
 166.505859375 715 80.375 644.131835938 80.375 553 c 1
 41.375 563 l 1xee
556 241 m 0
 514 241 l 0
 514 514 l 0
 514 661.71484375 444.055664062 715 331 715 c 1
 320 715 l 1
 320 755 l 1
 331 755 l 1
 490.370117188 755 556 671.037109375 556 514 c 0
 556 241 l 0
309 192 m 5
 309 138 l 262
 309 5.53515625 514 2.580078125 514 138 c 261
 514 264 l 5
 556 264 l 5
 556 138 l 261
 556 -57.72265625 268 -56.7978515625 268 138 c 262
 268 192 l 5
 309 192 l 5
268 -65 m 1
 268 284 l 258
 268 435.615234375 71.130859375 435.810546875 71 284 c 258
 70.9169921875 187 l 0
 71 75 123.45703125 40 211 40 c 257
 211 0 l 257
 91.10546875 0 30 55 30 187 c 0
 30 284 l 258xf6
 30 494.931640625 309 497.915039062 309 284 c 258
 309 -65 l 1
 268 -65 l 1
EndSplineSet
Layer: 2
SplineSet
258.666992188 616.5 m 5
 258.666992188 755 l 5
 155.077148438 755 48 672.125976562 48 566 c 261
 185 530 l 261
 185 595.735351562 221.301757812 616.5 258.666992188 616.5 c 5
315 755 m 260
 459 754 597 713 597 491 c 262
 597 252 l 262
 597 68 556 -7 412 -7 c 260
 319 -7 262 40 262 138 c 260
 262 253 l 260
 262 279 260 314 217 314 c 260
 169 314 167 287 167 243 c 260
 166.916992188 193 l 4
 167 151 185.45703125 140 216 140 c 261
 215 0 l 261
 95.10546875 0 35 55 35 187 c 4
 35 270 l 260
 35 389 108 452 234 452 c 260
 298 452 397 423 397 290 c 260
 397 191 l 260
 397 158 397 140 426 140 c 260
 457 140 457 154 457 191 c 262
 457 478 l 262
 457 612 371 616.5 315 616.5 c 260
 315 755 l 260
EndSplineSet
Layer: 3
EndChar

StartChar: si_LU
Encoding: 384 -1 26
GlifName: si_L_U_
Width: 651
VWidth: 0
Flags: HW
HStem: -204 139<86 303 364 469> -30 112<233.39 303 364 525.992> 114 100<390.604 472.814> 251 114<222 258 386 434> 251 72<258 386> 434.5 140<223.138 303 364 441.559>
VStem: 30.333 145.667<137.342 391.335> 86 217<-204 -65> 258 128<221.153 323> 364 230<-204 -65 -31 82> 465 129<-65 -30.8623 11 82> 465 4<-204 -65> 478 143<219.522 396.057>
LayerCount: 4
Back
Fore
SplineSet
465 92 m 1xe420
 594 92 l 1
 594 -205 l 5xe440
 465 -205 l 5xe410
 465 92 l 1xe420
364 -66 m 5xe440
 469 -66 l 5
 469 -205 l 5xe410
 364 -205 l 5
 364 -66 l 5xe440
86 -66 m 5
 303 -66 l 5
 303 -205 l 5
 86 -205 l 5xe5
 86 -66 l 5
222 261 m 1
 222 375 l 1xf4
 434 375 l 1
 434 261 l 1
 222 261 l 1
364 -31 m 257
 364 92 l 257
 594 92 l 257xe440
 594 11 l 257
 565.167232525 -11.5626101395 525.991840445 -23.993370568 488 -30.8623046875 c 1
 364 -31 l 257
30.3330078125 214 m 0
 30.3330078125 294 l 256xe6
 30.3330078125 393.227031709 65.6475768996 574.5 303 574.5 c 257
 303 434.5 l 257xe5
 183 425.382506527 176 370.637971732 176 294 c 256
 176 214 l 0xe6
 176 110.802389824 272.624023438 94.4821716176 303 92 c 257xe5
 303 -30 l 257xe5
 163.863641898 -30 30.3330078125 47.3266025042 30.3330078125 214 c 0
258 285 m 256
 258 289.832214765 258 327.845637584 258 333 c 257
 386 333 l 257xec88
 386 265 l 258
 386 246.126984127 394.177777778 224 432 224 c 256
 473.720930233 224 478 254.380952381 478 271 c 256xec88
 478.1953125 342 l 0
 478 410.087339338 429.198242188 430.203270679 364 434.5 c 257
 364 574.5 l 257xec40
 480.616458953 574.5 621 518.817771961 621 332 c 0
 621 307 l 256
 621 191.126637555 549.106741573 124 430 124 c 256
 283.066666667 124 258 208.668802947 258 285 c 256
EndSplineSet
Layer: 2
Layer: 3
LCarets2: 1 0
Ligature2: "si_blws_1 subtable" si_La si_MatraU
EndChar

StartChar: si_MatraU.alt
Encoding: 85 -1 27
GlifName: si_M_atraU_.alt
Width: 277
VWidth: 0
Flags: HW
LayerCount: 4
Back
Fore
SplineSet
30 19 m 0
 29.853515625 147.37890625 118.365234375 197.002929688 225.190429688 197.002929688 c 0
 232.229492188 197.002929688 239.533203125 197.001953125 247 197 c 257xc0
 247 54 l 257
 242.680664062 54 234.854492188 54 226 54 c 0
 201.803710938 54 171 43.79296875 171 -5 c 256xa0
 171.176757812 -23 l 0
 30 -23 l 0
 30 19 l 0
30 15 m 0
 171.176757812 15 l 0
 171 -5 l 256xa0
 171 -53.79296875 201.803710938 -64 226 -64 c 0
 234.854492188 -64 242.680664062 -64 247 -64 c 257
 247 -205 l 257xc0
 239.533203125 -205.001953125 232.229492188 -205.002929688 225.190429688 -205.002929688 c 0
 118.365234375 -205.002929688 29.853515625 -155.936523438 30 -29 c 0
 30 15 l 0
EndSplineSet
Layer: 2
Layer: 3
EndChar

StartChar: si_MatraU
Encoding: 68 3540 28
GlifName: si_M_atraU_
Width: 498
VWidth: 0
Flags: HW
HStem: -197 140<30 202>
VStem: 30 172<-197 -57>
LayerCount: 4
Back
Fore
SplineSet
428 133 m 1
 428 -205 l 1
 468 -205 l 1
 468 133 l 1
 428 133 l 1
258 -165 m 1
 258 -205 l 1
 438 -205 l 1
 438 -165 l 1
 258 -165 l 1
20 -165 m 1
 202 -165 l 1
 202 -205 l 1
 20 -205 l 1
 20 -165 l 1
EndSplineSet
Layer: 2
Layer: 3
EndChar

StartChar: si_MatraUu
Encoding: 69 3542 29
GlifName: si_M_atraU_u
Width: 516
VWidth: 0
Flags: W
HStem: -199.417 41.1766<50.4971 165.971> -164 42<157.415 225 281 397.959>
LayerCount: 4
Back
Fore
SplineSet
30 -122 m 1x40
 61.1204427083 -149.180338542 84.9225260417 -158.240451389 105.573350694 -158.240451389 c 0x80
 146.875 -158.240451389 175.571614583 -122 225 -122 c 1
 225 -164 l 1x40
 177.079427083 -164 146.759114583 -199.417100694 104.954861111 -199.417100694 c 0x80
 84.052734375 -199.417100694 60.2796223958 -190.562825521 30 -164 c 1
 30 -122 l 1x40
446 123 m 1
 446 -205 l 1
 486 -205 l 1
 486 123 l 1
 446 123 l 1
281 -122 m 1x40
 281 -164 l 1
 299 -164 360.106445312 -160.638671875 446 -205 c 1
 446 -161 l 1
 363.1484375 -120.166992188 298 -122 281 -122 c 1x40
EndSplineSet
Layer: 2
Layer: 3
EndChar

StartChar: si_MatraR
Encoding: 70 3544 30
GlifName: si_M_atraR_
Width: 355
VWidth: 0
Flags: HW
LayerCount: 4
Back
SplineSet
10 157 m 0
 10 236.46875 54.1611328125 310.376953125 168 310.376953125 c 1
 168 196.376953125 l 1
 143.608398438 196.376953125 127 182.938476562 127 157 c 0
 127 137 143.641601562 118.376953125 168 118.376953125 c 0
 187.706054688 118.376953125 205 133 205 157 c 0
 205 382.376953125 l 1
 204 409.234375 200.112304688 444.376953125 148 444.376953125 c 257
 58 444.376953125 l 1
 58 574.376953125 l 1
 166 574.376953125 l 257
 256 574 325 497.635742188 325 398.376953125 c 1
 325 157 l 2
 325 50.2568359375 245.16015625 -0.1796875 168 -0.1796875 c 0
 87.7216796875 -0.1796875 10 54.4169921875 10 157 c 0
EndSplineSet
Fore
SplineSet
242.879882812 137 m 0
 242.879882812 83.9267578125 199.073242188 40.1201171875 146 40.1201171875 c 0
 92.9267578125 40.1201171875 49.1201171875 83.9267578125 49.1201171875 137 c 0
 49.1201171875 190.073242188 92.9267578125 233.879882812 146 233.879882812 c 0
 187 233.879882812 l 1
 187 274.2578125 l 1
 146 274.2578125 l 0
 70.8076171875 274.2578125 8.7421875 212.192382812 8.7421875 137 c 0
 8.7421875 61.8076171875 70.8076171875 -0.2578125 146 -0.2578125 c 0
 221.192382812 -0.2578125 283.2578125 61.8076171875 283.2578125 137 c 0
 283.2578125 398.623046875 l 1
 283.2578125 497.881835938 246 564 156 564 c 257
 68 564 l 1
 68 524 l 1
 158 524 l 257
 210.112304688 524 243 477.623046875 243 398.623046875 c 1
 242.879882812 137 l 0
EndSplineSet
Layer: 2
Layer: 3
EndChar

StartChar: si_MatraE
Encoding: 71 3545 31
GlifName: si_M_atraE_
Width: 447
VWidth: 0
Flags: W
HStem: -5 40<129.403 209.334 257.334 338.788> 314.2 40<233 375.462> 524 40<128.472 330.69>
VStem: 30 40<95.454 462.487> 387 40<80.7637 301.766 429.228 469.764>
LayerCount: 4
Back
SplineSet
423.658203125 430.84765625 m 5
 416.702148438 487.264648438 377.098632812 564 280.405273438 564 c 4
 259.333984375 564 l 261
 259.333984375 434 l 261
 288.009765625 434 298.408203125 421.595703125 301.958984375 399.76171875 c 5
 423.658203125 430.84765625 l 5
EndSplineSet
Fore
SplineSet
249.333984375 524 m 257
 249.333984375 564 l 257
 270.405273438 564 l 0
 367.098632812 564 416.702148438 487.264648438 423.658203125 430.84765625 c 1
 383.409179688 421 l 5
 379.858398438 442.833984375 368.009765625 524 249.333984375 524 c 257
233 314.200195312 m 257
 233 354.200195312 l 257
 320.071289062 354.200195312 l 0
 379 354.200195312 427 335 427 255 c 0
 427 157 l 256
 427 69.7470703125 383.66796875 -5 278.405273438 -5 c 0
 257.333984375 -5 l 257
 257.333984375 35 l 257
 350.232421875 35 387 80 387 154 c 0
 387.012695312 253.471679688 l 0
 387.012695312 311.458007812 347.3203125 314.200195312 320 314.200195312 c 0
 233 314.200195312 l 257
30 198 m 256
 30 371 l 256
 30 449.252929688 63 564 208.262695312 564 c 0
 249.333984375 564 l 257
 249.333984375 524 l 1
 209.333984375 524 l 257
 99.779296875 524 70 450.3984375 70 371 c 256
 70 198 l 256
 70 98.6015625 100.779296875 35 209.333984375 35 c 257
 209.333984375 -5 l 257
 188.262695312 -5 l 0
 43 -5 30 139.747070312 30 198 c 256
EndSplineSet
Layer: 2
Layer: 3
EndChar

StartChar: si_MatraLs
Encoding: 77 3551 37
GlifName: si_M_atraL_s
Width: 610
VWidth: 0
Flags: HW
VStem: 116 140.921<153.686 206 358 420.314>
LayerCount: 4
Back
SplineSet
10 166 m 6
 10 202 l 261
 137 202 l 261
 137 166 l 6
 137 130.446890196 165.962717179 111.110855761 194.165153816 111.110855761 c 4
 220.924817823 111.110855761 247 128.519119543 247 166 c 262
 247 423 l 262
 247 436 239.341796875 443.080078125 231.638671875 443.080078125 c 4
 223.842773438 443.080078125 216 436.305664062 216 423 c 262
 216 375 l 6
 216 257.173828125 10 252.623046875 10 405 c 262
 10 564 l 261
 102 564 l 261
 102 443 l 262
 102 420.57421875 133 420.37890625 133 443 c 6
 133 462 l 262
 133 535.112304688 189.604492188 571.401367188 249.264648438 571.401367188 c 4
 309.90234375 571.401367188 371.783203125 525.673828125 374 437 c 6
 374 166 l 262
 374 51.6238449426 280.575425362 -7.95992362662 188.387256375 -7.95992362662 c 4
 98.6073018959 -7.95992362662 10 48.5515134355 10 166 c 6
EndSplineSet
Fore
SplineSet
350 465 m 21
 350 599.826171875 160 600.376953125 160 465 c 269
 160 413 l 21
 160 337.37890625 50 337.57421875 50 413 c 265
 50 564 l 257
 10 564 l 257
 10 414 l 273
 10 278.623046875 200 279.173828125 200 414 c 13
 200 466 l 277
 200 541.42578125 310 541.62109375 310 466 c 13
 310 148 l 277
 310 -3.2626953125 50 2.48046875 50 148 c 9
 50 202 l 257
 10 202 l 257
 10 149 l 2
 10 -58.6240234375 350 -61.8955078125 350 149 c 269
 350 465 l 21
EndSplineSet
Layer: 2
Layer: 3
EndChar

StartChar: zwnj
Encoding: 81 8204 41
GlifName: zwnj
Width: 1019
VWidth: 0
Flags: HW
LayerCount: 4
Back
Fore
SplineSet
554 160 m 262
 554 202 l 261
 594 202 l 261
 594 160 l 262
 594 -8.0107421875 952 -8.5517578125 952 160 c 262
 952 202 l 261
 992 202 l 261
 992 160 l 262
 992 -62.4897641731 554 -61.7880859375 554 160 c 262
18.9990234375 2 m 261
 57 79 119.74609375 81.625 149.293945312 81.625 c 4
 227.580078125 81.625 275.1484375 37.662109375 336.311523438 37.662109375 c 4
 378.779296875 37.662109375 458 68.5 458 173 c 260
 458 383 l 4
 458 511.833984375 382.322265625 566 287 566 c 260
 133.169921875 566 105 434.25390625 105 398 c 4
 105 365.455078125 114.838867188 242 266 242 c 4
 286.512695312 242 306 242 322 242 c 261
 322 202 l 261
 312 202 271.15625 201.958984375 245.25 201.958984375 c 4
 148.377929688 201.958984375 65 275.274414062 65 398 c 260
 65 535 177 606 287 606 c 260
 497.698242188 606 499.075195312 430.731445312 499.075195312 383 c 4
 499.075195312 368.861328125 499 191.315429688 499 173 c 260
 499 35.7333984375 393.319335938 -2.80078125 337.14453125 -2.80078125 c 4
 265.228515625 -2.80078125 214.196289062 40.357421875 149.293945312 40.357421875 c 4
 113.716796875 40.357421875 75 31 58 -8 c 261
 18.9990234375 2 l 261
381.27734375 581 m 5
 534.999023438 784 l 5
 581 772 l 5
 409.999023438 546 l 5
 381.27734375 581 l 5
544.712890625 496.965820312 m 5
 565.938976939 514.641022592 592.834139794 523.918602599 619.10485536 523.918602599 c 4
 670.235137955 523.918602599 719 488.774918238 719 412 c 5
 719 251 l 5
 759 251 l 5
 759 412 l 6
 759 487.498481715 807.192565164 525.180460039 855.413822103 525.180460039 c 4
 903.69253096 525.180460039 952 487.408637869 952 412 c 6
 952 251 l 5
 992 251 l 5
 992 412 l 6
 992 514.767827961 925.214057198 564.55885318 857.707905518 564.55885318 c 4
 811.491573526 564.55885318 764.93767241 541.221300277 739.24604465 495.568479062 c 5
 713.782137245 541.438023518 667.227082427 563.793441802 620.728061573 563.793441802 c 4
 588.851873707 563.793441802 557.002018607 553.287670563 531.991210938 532.649414062 c 5
 544.712890625 496.965820312 l 5
EndSplineSet
Layer: 2
Layer: 3
EndChar

StartChar: zwj
Encoding: 82 8205 42
GlifName: zwj
Width: 515
VWidth: 0
Flags: W
HStem: -6 145<186.218 244 300 356.663>
VStem: 30 140<157.843 508.195> 375 140<155.129 410.374>
LayerCount: 4
Back
Fore
SplineSet
30 235 m 258
 30 427 l 258
 30 478 31 559.141601562 123 634.001953125 c 256
 318 793 l 257
 369 780 l 257
 147 599 l 256
 72 539 70 487 70 420 c 256
 70 235 l 258
 70 94 134.221679688 34 234 34 c 257
 234 -6 l 257
 131.578125 -6 30 51.1748046875 30 235 c 258
139.92578125 524 m 1
 181 564 l 257
 335 563.981445312 l 1
 467.508789062 563.953125 485 504.189453125 485 381 c 258
 485 235 l 258
 485 42.8447265625 402.532226562 -5 290 -5 c 257
 290 35 l 257
 400.5859375 35 445 102.590820312 445 235 c 258
 445 380 l 258
 445 513.865234375 405.7421875 524 334 524 c 258
 140 524 l 257
 139.92578125 524 l 1
EndSplineSet
Layer: 2
Layer: 3
EndChar

StartChar: dottedcircle
Encoding: 83 9676 43
GlifName: dottedcircle
Width: 636
VWidth: 0
Flags: HW
LayerCount: 4
Back
SplineSet
167.958007812 470.580078125 m 4
 167.958007812 489.580078125 182.958007812 504.580078125 201.958007812 504.580078125 c 4
 220.958007812 504.580078125 235.958007812 489.580078125 235.958007812 470.580078125 c 4
 235.958007812 451.580078125 220.958007812 436.580078125 201.958007812 436.580078125 c 4
 182.958007812 436.580078125 167.958007812 451.580078125 167.958007812 470.580078125 c 4
  Spiro
    167.958 470.58 o
    172.541 487.825 o
    184.714 499.997 o
    201.958 504.58 o
    219.202 499.997 o
    231.374 487.825 o
    235.958 470.58 o
    231.374 453.336 o
    219.202 441.164 o
    201.958 436.58 o
    184.714 441.164 o
    172.541 453.336 o
    0 0 z
  EndSpiro
82.419921875 385.041992188 m 4
 82.419921875 404.041992188 97.419921875 419.041992188 116.419921875 419.041992188 c 4
 135.419921875 419.041992188 150.419921875 404.041992188 150.419921875 385.041992188 c 4
 150.419921875 366.041992188 135.419921875 351.041992188 116.419921875 351.041992188 c 4
 97.419921875 351.041992188 82.419921875 366.041992188 82.419921875 385.041992188 c 4
  Spiro
    82.4196 385.042 o
    87.0034 402.286 o
    99.1754 414.459 o
    116.42 419.042 o
    133.664 414.459 o
    145.836 402.286 o
    150.42 385.042 o
    145.836 367.798 o
    133.664 355.626 o
    116.42 351.042 o
    99.1754 355.626 o
    87.0034 367.798 o
    0 0 z
  EndSpiro
167.958007812 59.419921875 m 4
 167.958007812 78.419921875 182.958007812 93.419921875 201.958007812 93.419921875 c 4
 220.958007812 93.419921875 235.958007812 78.419921875 235.958007812 59.419921875 c 4
 235.958007812 40.419921875 220.958007812 25.419921875 201.958007812 25.419921875 c 4
 182.958007812 25.419921875 167.958007812 40.419921875 167.958007812 59.419921875 c 4
  Spiro
    167.958 59.4196 o
    172.541 76.6637 o
    184.714 88.8357 o
    201.958 93.4196 o
    219.202 88.8357 o
    231.374 76.6637 o
    235.958 59.4196 o
    231.374 42.1754 o
    219.202 30.0034 o
    201.958 25.4196 o
    184.714 30.0034 o
    172.541 42.1754 o
    0 0 z
  EndSpiro
82.419921875 144.958007812 m 4
 82.419921875 163.958007812 97.419921875 178.958007812 116.419921875 178.958007812 c 4
 135.419921875 178.958007812 150.419921875 163.958007812 150.419921875 144.958007812 c 4
 150.419921875 125.958007812 135.419921875 110.958007812 116.419921875 110.958007812 c 4
 97.419921875 110.958007812 82.419921875 125.958007812 82.419921875 144.958007812 c 4
  Spiro
    82.4196 144.958 o
    87.0034 162.202 o
    99.1754 174.374 o
    116.42 178.958 o
    133.664 174.374 o
    145.836 162.202 o
    150.42 144.958 o
    145.836 127.714 o
    133.664 115.541 o
    116.42 110.958 o
    99.1754 115.541 o
    87.0034 127.714 o
    0 0 z
  EndSpiro
408.041992188 59.419921875 m 4
 408.041992188 78.419921875 423.041992188 93.419921875 442.041992188 93.419921875 c 4
 461.041992188 93.419921875 476.041992188 78.419921875 476.041992188 59.419921875 c 4
 476.041992188 40.419921875 461.041992188 25.419921875 442.041992188 25.419921875 c 4
 423.041992188 25.419921875 408.041992188 40.419921875 408.041992188 59.419921875 c 4
  Spiro
    408.042 59.4196 o
    412.626 76.6637 o
    424.798 88.8357 o
    442.042 93.4196 o
    459.286 88.8357 o
    471.459 76.6637 o
    476.042 59.4196 o
    471.459 42.1754 o
    459.286 30.0034 o
    442.042 25.4196 o
    424.798 30.0034 o
    412.626 42.1754 o
    0 0 z
  EndSpiro
493.580078125 144.958007812 m 4
 493.580078125 163.958007812 508.580078125 178.958007812 527.580078125 178.958007812 c 4
 546.580078125 178.958007812 561.580078125 163.958007812 561.580078125 144.958007812 c 4
 561.580078125 125.958007812 546.580078125 110.958007812 527.580078125 110.958007812 c 4
 508.580078125 110.958007812 493.580078125 125.958007812 493.580078125 144.958007812 c 4
  Spiro
    493.58 144.958 o
    498.164 162.202 o
    510.336 174.374 o
    527.58 178.958 o
    544.825 174.374 o
    556.997 162.202 o
    561.58 144.958 o
    556.997 127.714 o
    544.825 115.541 o
    527.58 110.958 o
    510.336 115.541 o
    498.164 127.714 o
    0 0 z
  EndSpiro
493.580078125 385.041992188 m 4
 493.580078125 404.041992188 508.580078125 419.041992188 527.580078125 419.041992188 c 4
 546.580078125 419.041992188 561.580078125 404.041992188 561.580078125 385.041992188 c 4
 561.580078125 366.041992188 546.580078125 351.041992188 527.580078125 351.041992188 c 4
 508.580078125 351.041992188 493.580078125 366.041992188 493.580078125 385.041992188 c 4
  Spiro
    493.58 385.042 o
    498.164 402.286 o
    510.336 414.459 o
    527.58 419.042 o
    544.825 414.459 o
    556.997 402.286 o
    561.58 385.042 o
    556.997 367.798 o
    544.825 355.626 o
    527.58 351.042 o
    510.336 355.626 o
    498.164 367.798 o
    0 0 z
  EndSpiro
408.041992188 470.580078125 m 4
 408.041992188 489.580078125 423.041992188 504.580078125 442.041992188 504.580078125 c 4
 461.041992188 504.580078125 476.041992188 489.580078125 476.041992188 470.580078125 c 4
 476.041992188 451.580078125 461.041992188 436.580078125 442.041992188 436.580078125 c 4
 423.041992188 436.580078125 408.041992188 451.580078125 408.041992188 470.580078125 c 4
  Spiro
    408.042 470.58 o
    412.626 487.825 o
    424.798 499.997 o
    442.042 504.58 o
    459.286 499.997 o
    471.459 487.825 o
    476.042 470.58 o
    471.459 453.336 o
    459.286 441.164 o
    442.042 436.58 o
    424.798 441.164 o
    412.626 453.336 o
    0 0 z
  EndSpiro
526 265 m 4
 526 284 541 299 560 299 c 4
 579 299 594 284 594 265 c 4
 594 246 579 231 560 231 c 4
 541 231 526 246 526 265 c 4
  Spiro
    526 265 o
    530.584 282.244 o
    542.756 294.416 o
    560 299 o
    577.244 294.416 o
    589.416 282.244 o
    594 265 o
    589.416 247.756 o
    577.244 235.584 o
    560 231 o
    542.756 235.584 o
    530.584 247.756 o
    0 0 z
  EndSpiro
288 27 m 4
 288 46 303 61 322 61 c 4
 341 61 356 46 356 27 c 4
 356 8 341 -7 322 -7 c 4
 303 -7 288 8 288 27 c 4
  Spiro
    288 27 o
    292.584 44.2441 o
    304.756 56.4162 o
    322 61 o
    339.244 56.4162 o
    351.416 44.2441 o
    356 27 o
    351.416 9.75585 o
    339.244 -2.41618 o
    322 -7 o
    304.756 -2.41618 o
    292.584 9.75585 o
    0 0 z
  EndSpiro
50 265 m 4
 50 284 65 299 84 299 c 4
 103 299 118 284 118 265 c 4
 118 246 103 231 84 231 c 4
 65 231 50 246 50 265 c 4
  Spiro
    50 265 o
    54.5838 282.244 o
    66.7559 294.416 o
    84 299 o
    101.244 294.416 o
    113.416 282.244 o
    118 265 o
    113.416 247.756 o
    101.244 235.584 o
    84 231 o
    66.7559 235.584 o
    54.5838 247.756 o
    0 0 z
  EndSpiro
288 503 m 4
 288 522 303 537 322 537 c 4
 341 537 356 522 356 503 c 4
 356 484 341 469 322 469 c 4
 303 469 288 484 288 503 c 4
  Spiro
    288 503 o
    292.584 520.244 o
    304.756 532.416 o
    322 537 o
    339.244 532.416 o
    351.416 520.244 o
    356 503 o
    351.416 485.756 o
    339.244 473.584 o
    322 469 o
    304.756 473.584 o
    292.584 485.756 o
    0 0 z
  EndSpiro
EndSplineSet
Fore
SplineSet
167.958007812 483.580078125 m 4
 167.958007812 502.580078125 182.958007812 517.580078125 201.958007812 517.580078125 c 4
 220.958007812 517.580078125 235.958007812 502.580078125 235.958007812 483.580078125 c 4
 235.958007812 464.580078125 220.958007812 449.580078125 201.958007812 449.580078125 c 4
 182.958007812 449.580078125 167.958007812 464.580078125 167.958007812 483.580078125 c 4
  Spiro
    167.958 483.58 o
    172.541 500.825 o
    184.714 512.997 o
    201.958 517.58 o
    219.202 512.997 o
    231.374 500.825 o
    235.958 483.58 o
    231.374 466.336 o
    219.202 454.164 o
    201.958 449.58 o
    184.714 454.164 o
    172.541 466.336 o
    0 0 z
  EndSpiro
82.419921875 398.041992188 m 4
 82.419921875 417.041992188 97.419921875 432.041992188 116.419921875 432.041992188 c 4
 135.419921875 432.041992188 150.419921875 417.041992188 150.419921875 398.041992188 c 4
 150.419921875 379.041992188 135.419921875 364.041992188 116.419921875 364.041992188 c 4
 97.419921875 364.041992188 82.419921875 379.041992188 82.419921875 398.041992188 c 4
  Spiro
    82.4196 398.042 o
    87.0034 415.286 o
    99.1754 427.459 o
    116.42 432.042 o
    133.664 427.459 o
    145.836 415.286 o
    150.42 398.042 o
    145.836 380.798 o
    133.664 368.626 o
    116.42 364.042 o
    99.1754 368.626 o
    87.0034 380.798 o
    0 0 z
  EndSpiro
167.958007812 72.419921875 m 4
 167.958007812 91.419921875 182.958007812 106.419921875 201.958007812 106.419921875 c 4
 220.958007812 106.419921875 235.958007812 91.419921875 235.958007812 72.419921875 c 4
 235.958007812 53.419921875 220.958007812 38.419921875 201.958007812 38.419921875 c 4
 182.958007812 38.419921875 167.958007812 53.419921875 167.958007812 72.419921875 c 4
  Spiro
    167.958 72.4196 o
    172.541 89.6637 o
    184.714 101.836 o
    201.958 106.42 o
    219.202 101.836 o
    231.374 89.6637 o
    235.958 72.4196 o
    231.374 55.1754 o
    219.202 43.0034 o
    201.958 38.4196 o
    184.714 43.0034 o
    172.541 55.1754 o
    0 0 z
  EndSpiro
82.419921875 157.958007812 m 4
 82.419921875 176.958007812 97.419921875 191.958007812 116.419921875 191.958007812 c 4
 135.419921875 191.958007812 150.419921875 176.958007812 150.419921875 157.958007812 c 4
 150.419921875 138.958007812 135.419921875 123.958007812 116.419921875 123.958007812 c 4
 97.419921875 123.958007812 82.419921875 138.958007812 82.419921875 157.958007812 c 4
  Spiro
    82.4196 157.958 o
    87.0034 175.202 o
    99.1754 187.374 o
    116.42 191.958 o
    133.664 187.374 o
    145.836 175.202 o
    150.42 157.958 o
    145.836 140.714 o
    133.664 128.541 o
    116.42 123.958 o
    99.1754 128.541 o
    87.0034 140.714 o
    0 0 z
  EndSpiro
408.041992188 72.419921875 m 4
 408.041992188 91.419921875 423.041992188 106.419921875 442.041992188 106.419921875 c 4
 461.041992188 106.419921875 476.041992188 91.419921875 476.041992188 72.419921875 c 4
 476.041992188 53.419921875 461.041992188 38.419921875 442.041992188 38.419921875 c 4
 423.041992188 38.419921875 408.041992188 53.419921875 408.041992188 72.419921875 c 4
  Spiro
    408.042 72.4196 o
    412.626 89.6637 o
    424.798 101.836 o
    442.042 106.42 o
    459.286 101.836 o
    471.459 89.6637 o
    476.042 72.4196 o
    471.459 55.1754 o
    459.286 43.0034 o
    442.042 38.4196 o
    424.798 43.0034 o
    412.626 55.1754 o
    0 0 z
  EndSpiro
493.580078125 157.958007812 m 4
 493.580078125 176.958007812 508.580078125 191.958007812 527.580078125 191.958007812 c 4
 546.580078125 191.958007812 561.580078125 176.958007812 561.580078125 157.958007812 c 4
 561.580078125 138.958007812 546.580078125 123.958007812 527.580078125 123.958007812 c 4
 508.580078125 123.958007812 493.580078125 138.958007812 493.580078125 157.958007812 c 4
  Spiro
    493.58 157.958 o
    498.164 175.202 o
    510.336 187.374 o
    527.58 191.958 o
    544.825 187.374 o
    556.997 175.202 o
    561.58 157.958 o
    556.997 140.714 o
    544.825 128.541 o
    527.58 123.958 o
    510.336 128.541 o
    498.164 140.714 o
    0 0 z
  EndSpiro
493.580078125 398.041992188 m 4
 493.580078125 417.041992188 508.580078125 432.041992188 527.580078125 432.041992188 c 4
 546.580078125 432.041992188 561.580078125 417.041992188 561.580078125 398.041992188 c 4
 561.580078125 379.041992188 546.580078125 364.041992188 527.580078125 364.041992188 c 4
 508.580078125 364.041992188 493.580078125 379.041992188 493.580078125 398.041992188 c 4
  Spiro
    493.58 398.042 o
    498.164 415.286 o
    510.336 427.459 o
    527.58 432.042 o
    544.825 427.459 o
    556.997 415.286 o
    561.58 398.042 o
    556.997 380.798 o
    544.825 368.626 o
    527.58 364.042 o
    510.336 368.626 o
    498.164 380.798 o
    0 0 z
  EndSpiro
408.041992188 483.580078125 m 4
 408.041992188 502.580078125 423.041992188 517.580078125 442.041992188 517.580078125 c 4
 461.041992188 517.580078125 476.041992188 502.580078125 476.041992188 483.580078125 c 4
 476.041992188 464.580078125 461.041992188 449.580078125 442.041992188 449.580078125 c 4
 423.041992188 449.580078125 408.041992188 464.580078125 408.041992188 483.580078125 c 4
  Spiro
    408.042 483.58 o
    412.626 500.825 o
    424.798 512.997 o
    442.042 517.58 o
    459.286 512.997 o
    471.459 500.825 o
    476.042 483.58 o
    471.459 466.336 o
    459.286 454.164 o
    442.042 449.58 o
    424.798 454.164 o
    412.626 466.336 o
    0 0 z
  EndSpiro
526 278 m 4
 526 297 541 312 560 312 c 4
 579 312 594 297 594 278 c 4
 594 259 579 244 560 244 c 4
 541 244 526 259 526 278 c 4
  Spiro
    526 278 o
    530.584 295.244 o
    542.756 307.416 o
    560 312 o
    577.244 307.416 o
    589.416 295.244 o
    594 278 o
    589.416 260.756 o
    577.244 248.584 o
    560 244 o
    542.756 248.584 o
    530.584 260.756 o
    0 0 z
  EndSpiro
288 40 m 4
 288 59 303 74 322 74 c 4
 341 74 356 59 356 40 c 4
 356 21 341 6 322 6 c 4
 303 6 288 21 288 40 c 4
  Spiro
    288 40 o
    292.584 57.2441 o
    304.756 69.4162 o
    322 74 o
    339.244 69.4162 o
    351.416 57.2441 o
    356 40 o
    351.416 22.7559 o
    339.244 10.5838 o
    322 6 o
    304.756 10.5838 o
    292.584 22.7559 o
    0 0 z
  EndSpiro
50 278 m 4
 50 297 65 312 84 312 c 4
 103 312 118 297 118 278 c 4
 118 259 103 244 84 244 c 4
 65 244 50 259 50 278 c 4
  Spiro
    50 278 o
    54.5838 295.244 o
    66.7559 307.416 o
    84 312 o
    101.244 307.416 o
    113.416 295.244 o
    118 278 o
    113.416 260.756 o
    101.244 248.584 o
    84 244 o
    66.7559 248.584 o
    54.5838 260.756 o
    0 0 z
  EndSpiro
288 516 m 4
 288 535 303 550 322 550 c 4
 341 550 356 535 356 516 c 4
 356 497 341 482 322 482 c 4
 303 482 288 497 288 516 c 4
  Spiro
    288 516 o
    292.584 533.244 o
    304.756 545.416 o
    322 550 o
    339.244 545.416 o
    351.416 533.244 o
    356 516 o
    351.416 498.756 o
    339.244 486.584 o
    322 482 o
    304.756 486.584 o
    292.584 498.756 o
    0 0 z
  EndSpiro
EndSplineSet
Layer: 2
Layer: 3
EndChar

StartChar: si_MatraUu.alt
Encoding: 86 -1 45
GlifName: si_M_atraU_u.alt
Width: 834
VWidth: 0
Flags: HW
LayerCount: 4
Back
Fore
SplineSet
52.9453125 -31 m 6
 52.9081336117 -1.08692871411 54.8388671875 5 66 20 c 4x8780
 243 20 l 1
 235.740234375 20 228.654296875 20 222 20 c 0
 202.469726562 20 193 11.3271484375 193 -18 c 4
 192.84375 -47 l 0
 192.963867188 -66.8330078125 203.775390625 -75 226 -75 c 0
 239.071289062 -75 250.624023438 -75 257 -75 c 257
 257 -205 l 257x6780
 185.190429688 -205.002929688 l 0
 129.065429688 -205.002929688 53 -162.809570312 53 -75 c 0
 52.9453125 -31 l 6
30 90 m 1x3780
 87 132 l 1
 267 132 l 1
 210 90 l 1
 30 90 l 1x3780
30 132 m 1
 30 202 l 1
 267 202 l 1
 267 132 l 1
 30 132 l 1
30 20 m 1
 30 90 l 1
 267 90 l 1
 267 20 l 1
 30 20 l 1
EndSplineSet
Layer: 2
Layer: 3
EndChar

StartChar: si_Reph
Encoding: 87 -1 46
GlifName: si_R_eph
Width: 404
VWidth: 0
Flags: HW
LayerCount: 4
Back
Fore
SplineSet
30.232421875 701.309570312 m 0
 30.232421875 759.793945312 68.984375 819 141 819 c 2
 252 819 l 2
 332.644652931 819 374 771.209641884 374 699.75 c 258
 374.046875 617.75 l 1
 276.046875 617.852539062 l 1
 276.046875 678.852539062 l 257
 276.046875 717.936523438 255.439453125 720.102539062 219.296875 720.852539062 c 1
 144.046875 720.852539062 l 2
 131.046875 720.852539062 120.046875 709.852539062 120.046875 696.852539062 c 0
 120.046875 683.852539062 131.046875 672.852539062 144.046875 672.852539062 c 0
 157.046875 672.852539062 168.046875 683.852539062 168.046875 696.852539062 c 1
 249.046875 696.852539062 l 1
 249.046875 646.985351562 231.009765625 587.852539062 146.046875 587.852539062 c 0
 67.1376953125 587.852539062 30.232421875 644.237304688 30.232421875 701.309570312 c 0
EndSplineSet
Layer: 2
Layer: 3
LCarets2: 1 0
Ligature2: "si_reph subtable" si_Ra si_Halant
EndChar

StartChar: si_Rakar
Encoding: 88 -1 47
GlifName: si_R_akar
Width: 547
VWidth: 0
Flags: HW
AnchorPoint: "si_rakar" 288 -5 mark 0
LayerCount: 4
Back
Fore
SplineSet
30 -47 m 1
 30 -75 l 256
 30 -181.124023438 149.78125 -234.375 272.578125 -234.375 c 0
 409.689453125 -234.375 517.002929688 -171.7734375 517.002929688 -48.638671875 c 0
 517.002929688 46.7177734375 448.985351562 115 288 115 c 1
 288 -5 l 0
 351 -5 382 -9.45703125 382 -47 c 257
 382 -84.54296875 326.83984375 -103.663085938 272.01171875 -103.663085938 c 0
 214.16015625 -103.663085938 160 -84.54296875 160 -47 c 257
 30 -47 l 1
EndSplineSet
Layer: 2
Layer: 3
SplineSet
508 -18 m 5
 508 -46 l 261
 508.376953125 -139.409179688 431.258789062 -205 332 -205 c 5
 206 -205 l 5
 106.741210937 -205 29.623046875 -139.409179688 30 -46 c 261
 30 -18 l 5
 160 -18 l 261
 160 -70.1123046875 195.142578125 -74 222 -75 c 5
 316 -75 l 5
 342.857421875 -74 378 -70.1123046875 378 -18 c 261
 508 -18 l 5
EndSplineSet
EndChar

StartChar: si_KU
Encoding: 92 -1 51
GlifName: si_K_U_
Width: 840
VWidth: 0
Flags: HW
LayerCount: 4
Back
Fore
SplineSet
553 19 m 4
 552.853769452 147.378580279 641.365005254 197.002929688 748.190429688 197.002929688 c 4
 755.229717539 197.002929688 762.532941194 197.001953125 770 197 c 261xc0
 770 54 l 261
 765.680726784 54 757.85448183 54 749 54 c 4
 724.803371648 54 694 43.793310139 694 -5 c 260xa0
 694.176757812 -23 l 4
 553 -23 l 4
 553 19 l 4
553 15 m 4
 694.176757812 15 l 4
 694 -5 l 260xa0
 694 -53.793310139 724.803371648 -64 749 -64 c 4
 757.85448183 -64 765.680726784 -64 770 -64 c 261
 770 -205 l 261xc0
 762.532941194 -205.001953125 755.229717539 -205.002929688 748.190429688 -205.002929688 c 4
 641.365005254 -205.002929688 552.853769452 -155.936148061 553 -29 c 4
 553 15 l 4
30 439 m 257
 44 537 136.521484375 567 198 567 c 256
 270.694604306 567 320 533 337 502 c 1
 245 402 l 1xa4
 245 437 214.168945312 446 198 446 c 256
 164.069335938 446 147 422.741210938 147 402 c 257
 30 439 l 257
30 160 m 257
 147 255 l 1
 165.91015625 239.06640625 180.861328125 220.712890625 180.879882812 202 c 1
 181 160 l 2
 181.107306171 122.479481605 241 122.545898438 241 160 c 2
 241 202 l 257
 340.879882812 202 l 1
 341 162 l 2
 341.123141551 120.992862461 400 121.547851562 400 162 c 0
 400.00390625 202.127929688 l 0
 400.00390625 233.327405245 393.873077864 258.736643703 351 276 c 1
 448.223632812 354.095703125 l 1
 511.601605812 326.930722781 529 279.826703425 529 218 c 0
 529 136 l 2
 529 2.603515625 363.929031122 -52.767578125 291 36 c 257
 230.519633598 -51.9111328125 64.9818787552 8.54394527549 65 106 c 2
 65.0029296875 121.755859375 l 0
 65.0029296875 141.9453125 64.3154296875 161.90625 41.2734375 161.90625 c 0
 37.990234375 161.90625 34.2529296875 161.299804688 30 160 c 257
30 160 m 1
 30 259 l 1
 301 480 l 1
 455.716746118 639.302368913 770 601.889648438 770 321 c 2
 770 145 l 0
 630 145 l 0
 630 307 l 2
 630 416.044921875 509 475 425 400 c 1
 155 181.391601562 l 1
 30 160 l 1
EndSplineSet
Layer: 2
Layer: 3
LCarets2: 1 0
Ligature2: "si_blws_1 subtable" si_Ka si_MatraU
EndChar

StartChar: si_KUu
Encoding: 93 -1 52
GlifName: si_K_U_u
Width: 834
VWidth: 0
Flags: HW
HStem: -205.003 205.003<630.12 806.367> -205 114<731.023 808> 0 70<591 808> 122 80<591 630 770 808> 191 11<630 770> 446 121<149.048 263.044>
VStem: 239 100<132.877 202> 400 129<132.707 260.563> 591 217<-166.418 -94 0 70 122 202> 630 140<191 370.825>
LayerCount: 4
Back
SplineSet
591 -94 m 4xe8
 590.989257812 -65.6416015625 l 4
 590.989257812 -40.217545666 598.99992264 -22.6586750367 635 0 c 5
 808 0 l 5xf0
 733.364963648 -39.4759586745 731 -32.9041906905 731 -69 c 260xe8
 731 -97.2711864407 762.363432951 -91 787 -91 c 4
 795.85448183 -91 803.680726784 -91 808 -91 c 261
 808 -205 l 261xf0
 773.142914892 -205.001953125 739.050631019 -205.002929688 706.190429688 -205.002929688 c 4
 643.148063513 -205.002929688 590.913702943 -174.057100999 591 -94 c 4xe8
591 70 m 5
 648 122 l 5
 808 122 l 5
 747 70 l 5
 591 70 l 5
591 122 m 5
 591 202 l 5
 808 202 l 5
 808 122 l 5
 591 122 l 5
591 0 m 5
 591 70 l 5
 808 70 l 5
 808 0 l 5
 591 0 l 5
EndSplineSet
Fore
SplineSet
571 202 m 5
 611.845703125 202 630.118164062 217.392578125 630 250 c 5
 770 250 l 5
 770.020507812 237.392578125 769.5546875 214 760 202 c 5
 571 202 l 5
593.9453125 -31 m 2
 593.919752362 -1.08733517786 595.839332096 5 607 20 c 0x8780
 784 20 l 1
 776.740561055 20 769.653909685 20 763 20 c 0
 743.469387755 20 734 11.3273242981 734 -18 c 0
 733.84375 -47 l 0
 733.963794352 -66.8333333333 744.77555985 -75 767 -75 c 0
 780.070901749 -75 791.623930014 -75 798 -75 c 257
 798 -205 l 257x6780
 726.190429688 -205.002929688 l 0
 670.065784133 -205.002929688 594 -162.809762126 594 -75 c 0
 593.9453125 -31 l 2
571 90 m 1x3780
 628 132 l 1
 808 132 l 1
 751 90 l 1
 571 90 l 1x3780
571 132 m 1
 571 202 l 1
 808 202 l 1
 808 132 l 1
 571 132 l 1
571 20 m 1
 571 90 l 1
 808 90 l 1
 808 20 l 1
 571 20 l 1
30 439 m 257
 44 537 136.521484375 567 198 567 c 256
 270.694604306 567 320 533 337 502 c 1
 245 402 l 1
 245 437 214.168945312 446 198 446 c 256
 164.069335938 446 147 422.741210938 147 402 c 257
 30 439 l 257
30 160 m 257
 147 255 l 1
 165.91015625 239.06640625 180.861328125 220.712890625 180.879882812 202 c 1
 181 160 l 2
 181.109156231 122.479492188 240 122.545898438 240 160 c 2
 240 202 l 257
 339.879882812 202 l 1x0f
 340 162 l 2
 340.11969415 121.4765625 400 121.547851562 400 162 c 0
 400.00390625 202.127929688 l 0
 400.00390625 233.327405245 393.873077864 258.736643703 351 276 c 1
 448.223632812 354.095703125 l 1
 511.601605812 326.930722781 529 279.826703425 529 218 c 0
 529 136 l 2
 529 2.603515625 363.235455622 -52.767578125 290 36 c 257
 229.787245838 -51.9111328125 64.9817978568 8.54394530557 65 106 c 2
 65.0029296875 121.755859375 l 0
 65.0029296875 141.9453125 64.3154296875 161.90625 41.2734375 161.90625 c 0
 37.990234375 161.90625 34.2529296875 161.299804688 30 160 c 257
30 160 m 1
 30 259 l 1
 301 480 l 1
 455.716746118 639.302368913 770 601.889648438 770 321 c 2
 770 250 l 1
 718 191 l 0
 630 191 l 0x0f40
 630 307 l 2
 630 416.044921875 509 475 425 400 c 1
 155 181.391601562 l 1
 30 160 l 1
EndSplineSet
Layer: 2
Layer: 3
SplineSet
252 402 m 5x81c0
 252 437 221.168872071 446 205 446 c 260
 171.069268588 446 154 422.741210938 154 402 c 261
 37 439 l 261
 51 537 143.521099076 567 205 567 c 260
 273.51047442 567 336 522.000376919 336 506 c 5
 252 402 l 5x81c0
836 0 m 5xc0d0
 788.999661055 -12.4930914169 771 -30.1830071848 771 -57 c 4
 771 -84.4038826708 796.452142731 -92.0888671875 807.159179688 -92.0888671875 c 4
 816.096687074 -92.0888671875 825.903201062 -89.1338714624 835.932617188 -81.9326171875 c 5
 835.932617188 -190.932617188 l 5
 806.003062927 -204.835435278 778.065311145 -205 753 -205 c 4
 682.438076551 -205 627.752929688 -156.094442071 627.752929688 -96 c 4xc0e0
 627.752929688 -57.8524702476 633.690287217 -29.0432239348 669.5 0 c 5
 836 0 l 5xc0d0
628 89 m 5x98d0
 684 122 l 5
 836 122 l 5
 788 89 l 5
 628 89 l 5x98d0
628 122 m 5
 628 202 l 5
 836 202 l 5
 836 122 l 5
 628 122 l 5
628 0 m 5
 628 89 l 5
 836 89 l 5x90d0
 836 0 l 5xc0d0
 766.666666667 -0 697.333333333 0 628 0 c 5
662.5 193 m 4x86c8
 662.5 209.106294971 662.5 231.525434442 662.5 263 c 5
 662.5 384.090820312 594.474065302 440.019883946 503.783203125 440.004882812 c 4
 474.263671875 440 429.078125 446.000000001 378 384 c 4
 198.322265625 149 l 5
 104.583007812 43.8623046875 l 5
 15 119 l 5
 288.456054688 479 l 5
 374.967773438 588 486.555664062 578 520 578 c 4
 539 578 l 4
 683.061523438 578 801 456.72579055 801 275 c 5
 801 240.040956467 801 210 801 193 c 5
 662.5 193 l 4x86c8
386 202 m 261
 386 162 l 5
 386 144 395.9296875 129 418 129 c 260
 442.840446443 129 453.493164062 154.421110061 453.493164062 182.888671875 c 4
 453.493164062 250.191074308 409.834431566 274.751078631 351 281 c 261
 428 382 l 261
 488.212995653 368.01384292 576.296875 318.535158484 576.296875 175.188476562 c 4
 576.296875 79.5726761536 534.257390595 -8 436 -8 c 260
 393.190844299 -8 365.155208333 0.45068359375 340 34 c 261
 318.140231838 -2.486328125 286.535060976 -8 259 -8 c 260
 172.925378394 -8 163.961442164 53.2314453125 130.249023438 53.2314453125 c 4
 123.120978167 53.2314453125 114.88656325 50.4942230632 104.583007812 43.8623046875 c 261
 157 166 l 261
 164.521269811 171.025958807 171.045523848 173.087890625 176.9609375 173.087890625 c 4
 204.00289246 173.087890625 218.321295836 130 257 130 c 260xa4c0
 275.736328125 130 286 144.55859375 286 163 c 5
 286 202 l 261
 386 202 l 261
EndSplineSet
LCarets2: 1 0
Ligature2: "si_blws_3 subtable" si_Ka si_MatraUu
EndChar

StartChar: si_KRa
Encoding: 96 -1 55
GlifName: si_K_R_a
Width: 760
VWidth: 0
Flags: HW
LayerCount: 4
Back
Fore
SplineSet
226 -47 m 5
 356 -47 l 261
 356 -84.54296875 460.16015625 -103.663085938 518.01171875 -103.663085938 c 4
 582.697265625 -103.663085938 710.890625 -86.53125 710.890625 -43.638671875 c 4
 710.890625 -31.6240234375 709.682617188 -5 664 -5 c 5
 664 115 l 5
 824.985351562 115 843.002929688 18.3564453125 843.002929688 -47 c 4
 843.002929688 -180.134765625 655.689453125 -234.375 518.578125 -234.375 c 4
 395.78125 -234.375 226 -181.124023438 226 -75 c 260
 226 -47 l 5
EndSplineSet
Refer: 8 3482 N 1 0 0 1 0 0 2
Layer: 2
Layer: 3
LCarets2: 2 0 0
Ligature2: "si_rakaar subtable" si_Ka si_Halant si_Ra
EndChar

StartChar: si_Kh.halant
Encoding: 99 -1 58
GlifName: si_K_h.halant
Width: 622
VWidth: 0
Flags: HW
LayerCount: 4
Back
Fore
SplineSet
336.5 703 m 1
 336.5 819 l 1
 409 819 l 0
 557.359375 819 582.333007812 756 582.333007812 673 c 1
 447 673 l 1
 447 700 422.333007812 703 377 703 c 0
 336.5 703 l 1
69.986328125 710.888671875 m 0
 69.986328125 689.662109375 78.904296875 668.71484375 99.8486328125 651.65234375 c 1
 99.8486328125 604.192383989 112.825195312 512 248 512 c 1
 256 512 l 1
 256 652 l 1
 235 652 l 1
 213.065429688 652 199.7421875 661.502929688 199.7421875 676.362304688 c 0
 199.7421875 688.846679688 206.0625 703 235 703 c 0
 280 703 l 1
 280 819 l 1
 189 819 l 2
 125.959960938 819 69.986328125 764.067382812 69.986328125 710.888671875 c 0
256 512 m 1
 344 512 l 1
 344 652 l 1
 256 652 l 1
 256 512 l 1
64.3330078125 512 m 1
 266.333007812 512 l 1
 266.333007812 652 l 1
 64.3330078125 652 l 1
 64.3330078125 512 l 1
344 512 m 257
 392.392103041 512 452 503.935546875 452 445 c 0
 452 200 l 256
 452 157 452 140 423 140 c 256
 392.206054688 140 392 155 392 192 c 2xfa
 392 222 l 1
 382 222 l 1xf6
 382 14 l 1
 382 0 433.100585938 0 448 0 c 256
 555 0 592 95 592 198 c 256
 592 474 l 0
 592 589.889648438 503.637695312 652 344 652 c 257
 344 512 l 257
30 189 m 256
 30 92 58 0 210 0 c 257
 211 140 l 257
 166.263671875 140 162 166 162 202 c 0
 162 251 l 256
 162 291 169 314 210 314 c 256
 256 314 257.030273438 280.508789062 257 251 c 256
 257 8 l 257xfa
 257 -65 l 1
 392 -65 l 1
 392 290 l 258
 392 423 293 452 229 452 c 256
 112.911132812 452 30.015625 396.71875 30 273 c 0
 30 189 l 256
EndSplineSet
Layer: 2
Layer: 3
LCarets2: 1 0
Ligature2: "si_halant_1 subtable" si_Kha si_Halant
EndChar

StartChar: si_KhI
Encoding: 100 -1 59
GlifName: si_K_hI_
Width: 623
VWidth: 0
Flags: HMW
HStem: 0 21G<139 215.143> 616.5 138.5<205.506 258.667 315 408.859>
VStem: 32 135<148.617 304.903> 262 135<-65 8 134 305.961> 457 140<157.023 565.18>
LayerCount: 4
Back
Fore
SplineSet
35.2919921875 670.735351562 m 4
 35.2919921875 744.907226562 94.2919921875 819 212.666992188 819 c 5
 269.666992188 819 l 5
 269.666992188 703 l 5
 191.666992188 703 l 5
 171.166992188 703 160.916992188 690.25 160.916992188 677.5 c 4
 160.916992188 664.75 171.166992188 652 191.666992188 652 c 5
 247.666992188 652 l 5
 365.666992188 652 l 5
 365.666992188 512 l 5
 247.666992188 512 l 5
 212.666992188 512 l 5
 94.5419921875 512 35.2919921875 570.065215466 35.2919921875 670.735351562 c 4
325.166992188 703 m 5
 325.166992188 819 l 5
 410.666992188 819 l 4
 539.026367188 819 584 756 584 673 c 5
 448.666992188 673 l 5
 448.666992188 700 424 703 378.666992188 703 c 4
 325.166992188 703 l 5
262 134 m 2
 262 222 l 1
 397 222 l 1
 397 176 l 2
 397 134.09375 457 135 457 176 c 258
 457 445 l 262
 457 504 415.403320312 512 365.666992188 512 c 261
 365.666992188 652 l 261
 525.3046875 652 597 590 597 474 c 262
 597 199 l 258
 597 -119 262 -8.8408203125 262 134 c 2
32 189 m 256
 32 273 l 2
 32 511.39453125 397 503.045898438 397 300 c 258
 397 -65 l 1
 262 -65 l 1
 262 8 l 257
 262 261 l 258
 262 331.477539062 167 329.173828125 167 261 c 258
 167 202 l 0
 167 166 171.263671875 140 216 140 c 257
 216 0 l 257
 64 0 32 92 32 189 c 256
EndSplineSet
Layer: 2
Layer: 3
LCarets2: 1 0
Ligature2: "si_abvs_1 subtable" si_Kha si_MatraI
EndChar

StartChar: si_KhIi
Encoding: 101 -1 60
GlifName: si_K_hI_i
Width: 623
VWidth: 0
Flags: HMW
HStem: 0 21G<139 215.143> 616.5 138.5<205.506 258.667 315 408.859>
VStem: 32 135<148.617 304.903> 262 135<-65 8 134 305.961> 457 140<157.023 565.18>
LayerCount: 4
Back
Fore
SplineSet
384.666992188 711 m 0
 384.666992188 771 432.666992188 819 492.666992188 819 c 0
 552.666992188 819 600.666992188 771 600.666992188 711 c 0
 600.666992188 651 552.666992188 603 492.666992188 603 c 0
 432.666992188 603 384.666992188 651 384.666992188 711 c 0
315.666992188 703 m 1
 315.666992188 819 l 1
 492.666992188 819 l 1
 492.666992188 703 l 1
 315.666992188 703 l 1
211.666992188 645 m 2
 257.666992188 645 l 1
 369.666992188 645 l 1
 369.666992188 505 l 5
 257.666992188 505 l 5
 222.666992188 505 l 6
 -13.4375 505 -14.228515625 819 222.666992188 819 c 2
 259.666992188 819 l 1
 259.666992188 703 l 1
 211.666992188 703 l 2
 162.751953125 703 162.875976562 645 211.666992188 645 c 2
262 134 m 2
 262 222 l 1
 397 222 l 1
 397 176 l 2
 397 134.09375 457 135 457 176 c 258
 457 438 l 262
 457 497 415.403320312 505 365.666992188 505 c 261
 365.666992188 645 l 257
 377.842773438 645 399.506835987 644.917703042 410.666992188 644.919921875 c 0
 543.287109375 644.946289063 597 596 597 474 c 258
 597 199 l 258
 597 -119 262 -8.8408203125 262 134 c 2
32 189 m 256
 32 273 l 2
 32 511.39453125 397 503.045898438 397 300 c 258
 397 -65 l 1
 262 -65 l 1
 262 8 l 257
 262 261 l 258
 262 331.477539062 167 329.173828125 167 261 c 258
 167 202 l 0
 167 166 171.263671875 140 216 140 c 257
 216 0 l 257
 64 0 32 92 32 189 c 256
EndSplineSet
Layer: 2
Layer: 3
LCarets2: 1 0
Ligature2: "si_abvs_2 subtable" si_Kha si_MatraIi
EndChar

StartChar: si_KhU
Encoding: 102 -1 61
GlifName: si_K_hU_
Width: 635
VWidth: 0
Flags: HW
HStem: -205 140<68 280 336 471> 0 21G<138 214> 616 139<207.992 262.667 329 446.137>
VStem: 30 135<148.617 304.903> 68 212<-205 -65> 260 135<-30 8 206 305.961> 461 140<-65 173> 461 10<-205 -65> 470 140<185.592 590.378>
LayerCount: 4
Back
Fore
SplineSet
46 566 m 257
 183 530 l 257
 183 595.735351562 222.258789062 616.5 262.666992188 616.5 c 1xe0
 273 616.5 l 1
 273 755 l 1
 262.666992188 755 l 1
 156.126953125 755 46 672.125976562 46 566 c 257
260 134 m 2
 260 222 l 1
 395 222 l 1
 395 206 l 2
 395 164.09375 465 165 465 206 c 258
 465 500 l 258
 465 579 448.251953125 616 370 616 c 257
 329 616 l 1
 329 755 l 1
 370 755 l 257
 504.272460938 755 605 699 605 500 c 258xe480
 605 209 l 258
 605 -50 260 -8.8408203125 260 134 c 2
30 189 m 256
 30 273 l 2xf4
 30 511.39453125 395 503.045898438 395 300 c 258
 395 -30 l 1
 260 -30 l 1
 260 8 l 257
 260 261 l 258
 260 331.477539062 165 329.173828125 165 261 c 258
 165 202 l 0
 165 166 169.263671875 140 214 140 c 257
 214 0 l 257
 62 0 30 92 30 189 c 256
456 173 m 1xe2
 596 173 l 1
 596 -205 l 1xe2
 456 -205 l 1xe1
 456 173 l 1xe2
336 -65 m 1
 466 -65 l 1
 466 -205 l 1xe1
 336 -205 l 1
 336 -65 l 1
68 -65 m 1
 280 -65 l 1
 280 -205 l 1
 68 -205 l 1xe8
 68 -65 l 1
EndSplineSet
Layer: 2
Layer: 3
LCarets2: 1 0
Ligature2: "si_blws_1 subtable" si_Kha si_MatraU
EndChar

StartChar: si_KhUu
Encoding: 103 -1 62
GlifName: si_K_hU_u
Width: 635
VWidth: 0
Flags: HW
HStem: -204.777 140<73.1697 272.669> -182 140<170.645 280 336 459.748> 0 21G<138 214> 616 139<207.992 262.667 329 446.137>
VStem: 30 135<148.617 304.903> 68 212<-182 -64.7773> 260 135<226 305.961> 461 140<-61 193> 470 140<205.592 590.378>
LayerCount: 4
Back
Fore
SplineSet
68 -39 m 1
 94.333984375 -58.3330078125 141.444335938 -64.77734375 162.741210938 -64.77734375 c 0xb4
 205.333984375 -64.77734375 240.666992188 -42 280 -42 c 1x74
 280 -182 l 1x74
 240.666992188 -182 205.333984375 -204.77734375 162.741210938 -204.77734375 c 0
 141.444335938 -204.77734375 94.333984375 -198.333007812 68 -179 c 1
 68 -39 l 1
336 -42 m 5
 353 -42 433.1484375 -46.1669921875 456 -61 c 5x71
 456 -205 l 5
 430.106445312 -186.638671875 357 -182 336 -182 c 5
 336 -42 l 5
46 566 m 257
 183 530 l 257
 183 595.735351562 222.258789062 616.5 262.666992188 616.5 c 1
 273 616.5 l 1
 273 755 l 1
 262.666992188 755 l 1
 156.126953125 755 46 672.125976562 46 566 c 257
260 154 m 2
 260 242 l 1
 395 242 l 1
 395 226 l 2
 395 184.09375 465 185 465 226 c 258
 465 500 l 258
 465 579 448.251953125 616 370 616 c 257
 329 616 l 1
 329 755 l 1
 370 755 l 257
 504.272460938 755 605 699 605 500 c 258x3280
 605 229 l 258
 605 -30 260 11.1591796875 260 154 c 2
30 189 m 256
 30 273 l 2x3a
 30 511.39453125 395 503.045898438 395 300 c 258
 395 -16 l 1
 260 -16 l 1
 260 261 l 256
 260 331.477539062 165 329.173828125 165 261 c 258
 165 202 l 0
 165 166 169.263671875 140 214 140 c 257
 214 0 l 257
 62 0 30 92 30 189 c 256
456 193 m 1x31
 596 193 l 1
 596 -205 l 1
 456 -205 l 1
 456 193 l 1x31
EndSplineSet
Layer: 2
Layer: 3
LCarets2: 1 0
Ligature2: "si_blws_3 subtable" si_Kha si_MatraUu
EndChar

StartChar: si_GIi
Encoding: 110 -1 69
GlifName: si_G_I_i
Width: 703
VWidth: 0
Flags: HW
LayerCount: 4
Back
SplineSet
433 789 m 5
 333.741210938 789 275.643469845 711.403987573 276.623046875 619 c 4
 278 489.111328125 382.586914062 462.178710938 433.984375 462.178710938 c 4
 434 581 l 4
 414 581 395 595.641601562 395 620 c 4
 395 639.706054688 409.615384615 659 433 659 c 4
 433 789 l 5
279 659 m 5
 426 659 l 5
 426 789 l 5
 263 789 l 5
 163.741210938 789 86.623046875 723.409179688 87 630 c 261
 87 602 l 5
 217 602 l 261
 217 654.112304688 252.142578125 658 279 659 c 5
490 789 m 5
 490 659 l 4
 514 659 529 639.706054688 529 620 c 4
 529 595.641601562 510 581 490 581 c 4
 489.984375 462.178710938 l 4
 567.234064596 477.304068718 647.376953125 519.376953125 647.376953125 619 c 4
 647.376953125 711.409179688 590.893529585 789 490 789 c 5
EndSplineSet
Fore
SplineSet
411 671 m 4
 411 606 464 553 529 553 c 4
 594 553 647 606 647 671 c 4
 647 736 594 789 529 789 c 4
 464 789 411 736 411 671 c 4
85 602 m 5
 215 602 l 261
 215 654.112304688 250.142578125 658 277 659 c 5
 529 659 l 4
 529 789 l 5
 261 789 l 5
 161.741210938 789 84.623046875 723.409179688 85 630 c 261
 85 602 l 5
EndSplineSet
Refer: 7 3484 N 1 0 0 1 0 0 2
Layer: 2
Layer: 3
LCarets2: 1 0
Ligature2: "si_abvs_2 subtable" si_Ga si_MatraIi
EndChar

StartChar: si_GU
Encoding: 111 -1 70
GlifName: si_G_U_
Width: 717
VWidth: 0
Flags: HW
LayerCount: 4
Back
Fore
SplineSet
271 241 m 1
 283 241 l 256xec
 335.52734375 241 337 205.037109375 337 188 c 256
 337 170.962890625 335.52734375 135 283 135 c 256
 283 -8 l 257
 399.689453125 -8 461 45.3369140625 461 166 c 256
 460.849609375 216 l 0
 461 325.407226562 407.0859375 347 371 347 c 257
 271 347 l 1
 271 241 l 1
30.0791015625 198 m 0
 30.0791015625 358 l 0
 30.419921875 474.262695312 87.7041015625 564 227 564 c 257
 227 421 l 257
 174.887695312 421 171 375.857421875 171 348 c 256
 171 198 l 256
 171 173.958984375 174.887695312 135 227 135 c 257
 227 -8 l 257
 87.7041015625 -8 30.419921875 81.7373046875 30.0791015625 198 c 0
490 421 m 261
 490 564 l 261
 629.295898438 564 686.580078125 474.262695312 686.920898438 358 c 4
 686.920898438 138 l 4
 546 138 l 260
 546 348 l 260
 546 375.857421875 542.112304688 421 490 421 c 261
254 241 m 256xf4
 393 240.5 l 1
 392.834960938 350 l 0
 393.465820312 376.4921875 388.192382812 421 434 421 c 257
 434 564 l 257
 290.0625 564 254 468.006835938 254 350 c 0
 254 241 l 256xf4
EndSplineSet
Refer: 27 -1 N 1 0 0 1 440 0 2
Layer: 2
Layer: 3
LCarets2: 1 0
Ligature2: "si_blws_1 subtable" si_Ga si_MatraU
EndChar

StartChar: si_GUu
Encoding: 112 -1 71
GlifName: si_G_U_u
Width: 717
VWidth: 0
Flags: HW
LayerCount: 4
Back
Fore
SplineSet
490 201 m 5
 530.845703125 201 546.118164062 216.392578125 546 249 c 5
 687 249 l 5
 687.020507812 236.392578125 686.5546875 213 677 201 c 5
 490 201 l 5
271 241 m 1
 283 241 l 256xec
 335.52734375 241 337 205.037109375 337 188 c 256
 337 170.962890625 335.52734375 135 283 135 c 256
 283 -8 l 257
 399.689453125 -8 461 45.3369140625 461 166 c 256
 460.849609375 216 l 0
 461 325.407226562 407.0859375 347 371 347 c 257
 271 347 l 1
 271 241 l 1
30.0791015625 198 m 0
 30.0791015625 358 l 0
 30.419921875 474.262695312 87.7041015625 564 227 564 c 257
 227 421 l 257
 174.887695312 421 171 375.857421875 171 348 c 256
 171 198 l 256
 171 173.958984375 174.887695312 135 227 135 c 257
 227 -8 l 257
 87.7041015625 -8 30.419921875 81.7373046875 30.0791015625 198 c 0
490 421 m 257
 490 564 l 257
 629.295898438 564 686.580078125 474.262695312 686.920898438 358 c 0
 686.920898438 247 l 1
 686.920898438 198 l 0
 546 198 l 256
 546 348 l 256
 546 375.857421875 542.112304688 421 490 421 c 257
254 241 m 256xf4
 393 240.5 l 1
 392.834960938 350 l 0
 393.465820312 376.4921875 388.192382812 421 434 421 c 257
 434 564 l 257
 290.0625 564 254 468.006835938 254 350 c 0
 254 241 l 256xf4
EndSplineSet
Refer: 45 -1 N 1 0 0 1 460 0 2
Layer: 2
Layer: 3
LCarets2: 1 0
Ligature2: "si_blws_3 subtable" si_Ga si_MatraUu
EndChar

StartChar: si_GhU
Encoding: 121 -1 80
GlifName: si_G_hU_
Width: 687
VWidth: 0
Flags: HW
LayerCount: 4
Back
Fore
SplineSet
508 131 m 5xc0
 648 131 l 5
 648 -205 l 5xc0
 508 -205 l 5xa0
 508 131 l 5xc0
388 -65 m 5
 518 -65 l 5
 518 -205 l 5xa0
 388 -205 l 5
 388 -65 l 5
90 -65 m 5
 332 -65 l 5
 332 -205 l 5
 90 -205 l 5
 90 -65 l 5
EndSplineSet
Refer: 476 3485 N 1 0 0 1 0 0 2
Layer: 2
Layer: 3
LCarets2: 1 0
Ligature2: "si_blws_1 subtable" si_Gha si_MatraU
EndChar

StartChar: si_GhUu
Encoding: 122 -1 81
GlifName: si_G_hU_u
Width: 687
VWidth: 0
Flags: HW
LayerCount: 4
Back
Fore
SplineSet
80 -34 m 5x40
 120.479058098 -59.3330078118 156.004982507 -67.77734375 188.741210938 -67.77734375 c 4x80
 240.051257498 -67.77734375 282.616287438 -34 330 -34 c 5x40
 330 -174 l 5x40
 282.616287438 -174 240.051257498 -204.77734375 188.741210938 -204.77734375 c 4x80
 156.004982507 -204.77734375 120.479058098 -197.083007812 80 -174 c 5
 80 -34 l 5x40
508 131 m 5
 648 131 l 5
 648 -205 l 5
 508 -205 l 5
 508 131 l 5
388 -34 m 5
 417.142857143 -34 468.825642023 -39.9220703125 508 -61 c 5
 508 -205 l 5
 463.610630834 -180.252473958 424 -174 388 -174 c 5
 388 -34 l 5
EndSplineSet
Refer: 476 3485 N 1 0 0 1 0 0 2
Layer: 2
Layer: 3
LCarets2: 1 0
Ligature2: "si_blws_3 subtable" si_Gha si_MatraUu
EndChar

StartChar: si_Ng.halant
Encoding: 128 -1 86
GlifName: si_N_g.halant
Width: 593
VWidth: 0
Flags: HW
HStem: -8 140<171.931 242.975 347.705 418.207> 200 2<422 563> 251 100<169.169 283.967> 397 100<151.604 283.958> 616.5 138.5<197.992 252.667 319 394.64>
VStem: 30 138<136.767 248.569 566 585.612> 245 100<134.344 202> 287.355 105.382<352.53 396.918> 422 141<136.767 588.707>
LayerCount: 4
Back
Fore
SplineSet
89 652 m 1
 48 652 7.8095703125 819 224 819 c 2
 265.666992188 819 l 1
 265.666992188 703 l 1
 232.666992188 703 l 0
 203.729492188 703 197.409179688 688.846679688 197.409179688 676.362304688 c 0
 197.409179688 661.502929688 210.732421875 652 232.666992188 652 c 1
 263.666992188 652 l 1
 263.666992188 522 l 1
 245.666992188 522 l 1
 110.4921875 522 89 607.938476562 89 652 c 1
321.166992188 703 m 1
 321.166992188 819 l 1xe4
 376.666992188 819 l 0
 525.026367188 819 550 756 550 673 c 1
 414.666992188 673 l 1
 414.666992188 700 390 703 344.666992188 703 c 0
 321.166992188 703 l 1
233.666992188 522 m 1
 233.666992188 652 l 1
 331.666992188 652 l 1
 331.666992188 522 l 1
 233.666992188 522 l 1
42 522 m 1
 42 652 l 1
 234 652 l 1
 234 522 l 1
 42 522 l 1
53 374 m 0
 53 435.52734375 93.2119140625 497 173 497 c 1
 238 497 l 17
 317.788085938 497 357.737304688 435.443359375 357.737304688 373.916015625 c 0
 357.737304688 312.443359375 317.861328125 251 238 251 c 9
 214 251 l 25
 214 351.200195312 l 25
 229 351.200195312 l 17
 244.500976562 351.200195312 252.35546875 362.75 252.35546875 374.25 c 0
 252.35546875 385.649414062 244.63671875 397 229 397 c 9
 174 397 l 1
 158.36328125 397 151 385.399414062 151 374 c 0xfd80
 53 374 l 0
29.9990234375 196.92578125 m 0
 29.9990234375 278.692382812 31.6669921875 351 167.666992188 351 c 257
 229 351.200195312 l 1
 229 251 l 1
 200.666992188 251 l 257
 181.666992188 251 168 242 168 217 c 256
 168 166 l 0
 168 154 177 132 207 132 c 0
 237 132 245 152.875 245 166 c 0
 245 202 l 257
 345 202 l 257
 345 166 l 0xfe80
 345 152.875 353 132 383 132 c 0
 413 132 422 154 422 166 c 0
 422 202 l 1
 563 202 l 257
 563 160 l 0
 563 58 496.380859375 -8 404 -8 c 256
 370.151367188 -8 328.924804688 3.466796875 300 35 c 257
 276.108398438 3.466796875 239.958984375 -8 212 -8 c 256
 105.00390625 -8 30 58 30 160 c 0
 29.9990234375 196.92578125 l 0
331.666992188 522 m 261
 331.666992188 652 l 261
 491.3046875 652 563 588 563 474 c 262
 563 200 l 261
 422 200 l 261
 422 455 l 262
 422 514 381.403320312 522 331.666992188 522 c 261
EndSplineSet
Layer: 2
Layer: 3
LCarets2: 1 0
Ligature2: "si_halant_1 subtable" si_Nga si_Halant
EndChar

StartChar: si_NgI
Encoding: 129 -1 87
GlifName: si_N_gI_
Width: 593
VWidth: 0
Flags: HW
HStem: -8 140<171.931 242.975 347.705 418.207> 200 2<422 563> 251 100<169.169 283.967> 397 100<151.604 283.958> 616.5 138.5<197.992 252.667 319 394.64>
VStem: 30 138<136.767 248.569 566 585.612> 245 100<134.344 202> 287.355 105.382<352.53 396.918> 422 141<136.767 588.707>
LayerCount: 4
Back
Fore
SplineSet
31.2919921875 670.735351562 m 0
 31.2919921875 744.907226562 90.2919921875 819 208.666992188 819 c 1
 253.666992188 819 l 1
 253.666992188 703 l 1
 187.666992188 703 l 1
 167.166992188 703 156.916992188 690.25 156.916992188 677.5 c 0
 156.916992188 664.75 167.166992188 652 187.666992188 652 c 1
 253.666992188 652 l 1
 253.666992188 512 l 1
 208.666992188 512 l 1
 90.5419921875 512 31.2919921875 570.065429688 31.2919921875 670.735351562 c 0
309.166992188 703 m 1
 309.166992188 819 l 1
 376.666992188 819 l 0
 505.026367188 819 550 756 550 673 c 1
 414.666992188 673 l 1
 414.666992188 700 390 703 344.666992188 703 c 0
 309.166992188 703 l 1
53 374 m 0
 53 435.52734375 93.2119140625 497 173 497 c 1
 238 497 l 17
 317.788085938 497 357.737304688 435.443359375 357.737304688 373.916015625 c 0
 357.737304688 312.443359375 317.861328125 251 238 251 c 9
 214 251 l 25
 214 351.200195312 l 25
 229 351.200195312 l 17
 244.500976562 351.200195312 252.35546875 362.75 252.35546875 374.25 c 0
 252.35546875 385.649414062 244.63671875 397 229 397 c 9
 174 397 l 1
 158.36328125 397 151 385.399414062 151 374 c 0xfd80
 53 374 l 0
29.9990234375 196.92578125 m 0
 29.9990234375 278.692382812 31.6669921875 351 167.666992188 351 c 257
 229 351.200195312 l 1
 229 251 l 1
 200.666992188 251 l 257
 181.666992188 251 168 242 168 217 c 256
 168 166 l 0
 168 154 177 132 207 132 c 0
 237 132 245 152.875 245 166 c 0
 245 202 l 257
 345 202 l 257
 345 166 l 0xfe80
 345 152.875 353 132 383 132 c 0
 413 132 422 154 422 166 c 0
 422 202 l 1
 563 202 l 257
 563 160 l 0
 563 58 496.380859375 -8 404 -8 c 256
 370.151367188 -8 328.924804688 3.466796875 300 35 c 257
 276.108398438 3.466796875 239.958984375 -8 212 -8 c 256
 105.00390625 -8 30 58 30 160 c 0
 29.9990234375 196.92578125 l 0
253.666992188 512 m 1
 253.666992188 652 l 1
 331.666992188 652 l 257
 491.3046875 652 563 590 563 473 c 258
 563 200 l 257
 422 200 l 257
 422 446 l 258
 422 504 381.403320312 512 331.666992188 512 c 257
 253.666992188 512 l 1
EndSplineSet
Layer: 2
Layer: 3
LCarets2: 1 0
Ligature2: "si_abvs_1 subtable" si_Nga si_MatraI
EndChar

StartChar: si_NgIi
Encoding: 130 -1 88
GlifName: si_N_gI_i
Width: 593
VWidth: 0
Flags: HW
HStem: -8 140<171.931 242.975 347.705 418.207> 200 2<422 563> 251 100<169.169 283.967> 397 100<151.604 283.958> 616.5 138.5<197.992 252.667 319 394.64>
VStem: 30 138<136.767 248.569 566 585.612> 245 100<134.344 202> 287.355 105.382<352.53 396.918> 422 141<136.767 588.707>
LayerCount: 4
Back
Fore
SplineSet
350.666992188 711 m 0
 350.666992188 771 398.666992188 819 458.666992188 819 c 0
 518.666992188 819 566.666992188 771 566.666992188 711 c 0
 566.666992188 651 518.666992188 603 458.666992188 603 c 0
 398.666992188 603 350.666992188 651 350.666992188 711 c 0
295.666992188 703 m 1
 295.666992188 819 l 1
 458.666992188 819 l 1
 458.666992188 703 l 1
 295.666992188 703 l 1
197.666992188 645 m 2
 243.666992188 645 l 1
 335.666992188 645 l 1
 335.666992188 522 l 1
 243.666992188 522 l 1
 208.666992188 522 l 2
 -27.4375 522 -28.228515625 819 208.666992188 819 c 2
 239.666992188 819 l 1
 239.666992188 703 l 1
 197.666992188 703 l 2
 148.751953125 703 148.875976562 645 197.666992188 645 c 2
53 374 m 0
 53 435.52734375 93.2119140625 497 173 497 c 1
 238 497 l 17
 317.788085938 497 357.737304688 435.443359375 357.737304688 373.916015625 c 0
 357.737304688 312.443359375 317.861328125 251 238 251 c 9
 214 251 l 25
 214 351.200195312 l 25
 229 351.200195312 l 17
 244.500976562 351.200195312 252.35546875 362.75 252.35546875 374.25 c 0
 252.35546875 385.649414062 244.63671875 397 229 397 c 9
 174 397 l 1
 158.36328125 397 151 385.399414062 151 374 c 0xfd80
 53 374 l 0
29.9990234375 196.92578125 m 0
 29.9990234375 278.692382812 31.6669921875 351 167.666992188 351 c 257
 229 351.200195312 l 1
 229 251 l 1
 200.666992188 251 l 257
 181.666992188 251 168 242 168 217 c 256
 168 166 l 0
 168 154 177 132 207 132 c 0
 237 132 245 152.875 245 166 c 0
 245 202 l 257
 345 202 l 257
 345 166 l 0xfe80
 345 152.875 353 132 383 132 c 0
 413 132 422 154 422 166 c 0
 422 202 l 1
 563 202 l 257
 563 160 l 0
 563 58 496.380859375 -8 404 -8 c 256
 370.151367188 -8 328.924804688 3.466796875 300 35 c 257
 276.108398438 3.466796875 239.958984375 -8 212 -8 c 256
 105.00390625 -8 30 58 30 160 c 0
 29.9990234375 196.92578125 l 0
331.666992188 522 m 261
 331.666992188 645 l 261
 343.842773438 645 365.506835938 644.91796875 376.666992188 644.919921875 c 4
 509.287109965 644.943131556 563 595 563 475 c 262
 563 200 l 261
 422 200 l 261
 422 457 l 262
 422 514 381.403320312 522 331.666992188 522 c 261
EndSplineSet
Layer: 2
Layer: 3
LCarets2: 1 0
Ligature2: "si_abvs_2 subtable" si_Nga si_MatraIi
EndChar

StartChar: si_NngIi
Encoding: 133 -1 91
GlifName: si_N_ngI_i
Width: 843
VWidth: 0
Flags: HW
LayerCount: 4
Back
SplineSet
627 789 m 5
 527.741210938 789 469.643469845 711.403987573 470.623046875 619 c 4
 472 489.111328125 576.586914062 462.178710938 627.984375 462.178710938 c 4
 628 581 l 4
 608 581 589 595.641601562 589 620 c 4
 589 639.706054688 603.615384615 659 627 659 c 4
 627 789 l 5
473 659 m 5
 620 659 l 5
 620 789 l 5
 457 789 l 5
 357.741210938 789 280.623046875 723.409179688 281 630 c 261
 281 602 l 5
 411 602 l 261
 411 654.112304688 446.142578125 658 473 659 c 5
684 789 m 5
 684 659 l 4
 708 659 723 639.706054688 723 620 c 4
 723 595.641601562 704 581 684 581 c 4
 683.984375 462.178710938 l 4
 761.234064596 477.304068718 841.376953125 519.376953125 841.376953125 619 c 4
 841.376953125 711.409179688 784.893529585 789 684 789 c 5
EndSplineSet
Fore
SplineSet
652 671 m 4
 652 606 705 553 770 553 c 4
 835 553 888 606 888 671 c 4
 888 736 835 789 770 789 c 4
 705 789 652 736 652 671 c 4
326 602 m 5
 456 602 l 261
 456 654.112304688 491.142578125 658 518 659 c 5
 770 659 l 4
 770 789 l 5
 502 789 l 5
 402.741210938 789 325.623046875 723.409179688 326 630 c 261
 326 602 l 5
EndSplineSet
Refer: 478 3487 N 1 0 0 1 0 0 2
Layer: 2
Layer: 3
LCarets2: 1 0
Ligature2: "si_abvs_2 subtable" si_Nnga si_MatraIi
EndChar

StartChar: si_NngU
Encoding: 134 -1 92
GlifName: si_N_ngU_
Width: 911
VWidth: 0
Flags: HW
LayerCount: 4
Back
Fore
SplineSet
30.15234375 232.96484375 m 4
 30.15234375 403.796875 80.9417291469 564.245117188 275.05078125 564.245117188 c 4
 326.371713247 564.245117188 377.683245616 564.08203125 429 564 c 5
 429 421 l 5
 234 421 l 6
 190.859307528 421 166.8828125 333.178710938 166.8828125 235.68359375 c 4
 166.8828125 155.119321507 167.557185254 88.5967715588 232 12 c 5
 102.0390625 -28 l 5
 42.3973930754 49.1838960169 30.15234375 142.409521254 30.15234375 232.96484375 c 4
EndSplineSet
Refer: 70 -1 N 1 0 0 1 194 0 2
Layer: 2
Layer: 3
LCarets2: 1 0
Ligature2: "si_blws_1 subtable" si_Nnga si_MatraU
EndChar

StartChar: si_NngUu
Encoding: 135 -1 93
GlifName: si_N_ngU_u
Width: 911
VWidth: 0
Flags: HW
LayerCount: 4
Back
Fore
SplineSet
30.15234375 232.96484375 m 0
 30.15234375 403.796875 80.9417291469 564.245117188 275.05078125 564.245117188 c 0
 326.371713247 564.245117188 377.683245616 564.08203125 429 564 c 1
 429 421 l 1
 234 421 l 2
 190.859307528 421 166.8828125 333.178710938 166.8828125 235.68359375 c 0
 166.8828125 155.119321507 167.557185254 88.5967715588 232 12 c 1
 102.0390625 -28 l 1
 42.3973930754 49.1838960169 30.15234375 142.409521254 30.15234375 232.96484375 c 0
EndSplineSet
Refer: 71 -1 N 1 0 0 1 194 0 2
Layer: 2
Layer: 3
LCarets2: 1 0
Ligature2: "si_blws_3 subtable" si_Nnga si_MatraUu
EndChar

StartChar: si_C.halant
Encoding: 136 -1 94
GlifName: si_C_.halant
Width: 565
VWidth: 0
Flags: HW
LayerCount: 4
Back
Fore
SplineSet
-6 252 m 261
 -6 354 l 261
 211 354 l 5
 211 360 l 261
 211.053191489 389.333333333 189.720744681 400 169 400 c 260
 159.146718147 400 133.971428571 397 129 376 c 261
 30 402 l 261
 56.4043419267 489.737373737 132.592039801 503 169 503 c 260
 212.90717755 503 257.605961938 486.113727937 281 459 c 260
 304.371454811 431.912446088 314 406 314 350 c 262
 314 252 l 261
 230 252 l 262
 192.719956204 252 171.9814906 224.45007754 171.9814906 196.087537981 c 4
 171.9814906 166.000973934 195.317767955 135 247 135 c 261
 247 -5 l 261
 119.557711088 -5 33 87.232421875 33 192 c 260
 33 212.028588835 33.5161514498 232.23982856 44.3095703125 252 c 5
 -6 252 l 261
302.5 703 m 5
 302.5 819 l 5xe4
 348 819 l 4
 496.359468997 819 521.333007812 756 521.333007812 673 c 5
 386 673 l 5
 386 700 361.333333332 703 316 703 c 4
 302.5 703 l 5
303 522 m 261
 303 652 l 261
 462.637695312 652 534.333007812 589.889648438 534.333007812 474 c 4
 534.333007812 238 l 260
 534.333007812 138.590909091 499.333007812 -5 303.333007812 -5 c 261
 303.333007812 135 l 261
 384.333007812 135 394.333007812 183.180995475 394.333007812 255 c 260
 394.333007812 455 l 4
 394.333007812 513.935546875 352.736328125 522 303 522 c 261
59.0302734375 707.4375 m 4xec
 59.0302734375 780.906821466 135.951875139 819 247 819 c 5
 247 703 l 5
 224 703 l 4
 195.0625 703 188.7421875 688.846679688 188.7421875 676.362304688 c 4
 188.7421875 661.502929688 202.065477453 652 224 652 c 5
 245 652 l 5
 245 522 l 5
 237 522 l 5
 101.825498318 522 89.8486328125 607.590820312 89.8486328125 651.65234375 c 5
 75.2352372607 652.027905731 59.0302734375 677.38607251 59.0302734375 707.4375 c 4xec
245 522 m 5
 245 652 l 5
 303 652 l 5
 303 522 l 5
 245 522 l 5
53.3330078125 522 m 5
 53.3330078125 652 l 5
 245.333007812 652 l 5
 245.333007812 522 l 5
 53.3330078125 522 l 5
EndSplineSet
Layer: 2
Layer: 3
LCarets2: 1 0
Ligature2: "si_halant_1 subtable" si_Ca si_Halant
EndChar

StartChar: si_CI
Encoding: 137 -1 95
GlifName: si_C_I_
Width: 565
VWidth: 0
Flags: HW
LayerCount: 4
Back
Fore
SplineSet
-6 252 m 257
 -6 354 l 257
 211 354 l 1
 211 360 l 257
 211.053191489 389.333333333 189.720744681 400 169 400 c 256
 159.146718147 400 133.971428571 397 129 376 c 257
 30 402 l 257
 56.4043419267 489.737373737 132.592039801 503 169 503 c 256
 212.90717755 503 257.605961938 486.113727937 281 459 c 256
 304.371454811 431.912446088 314 406 314 350 c 258
 314 252 l 257
 230 252 l 258
 192.719927105 252 171.981445312 224.450251299 171.981445312 196.087890625 c 0
 171.981445312 166.001152895 195.317736755 135 247 135 c 257
 247 -5 l 257
 119.557711088 -5 33 87.232421875 33 192 c 256
 33 212.028588835 34.5161514498 233.23982856 44.3095703125 252 c 1
 -6 252 l 257
32.625 670.735351562 m 0
 32.625 744.906836942 91.6253961249 819 210 819 c 1
 247 819 l 1
 247 703 l 1
 189 703 l 1
 168.5 703 158.25 690.25 158.25 677.5 c 0
 158.25 664.75 168.5 652 189 652 c 1
 245 652 l 1
 303 652 l 1
 303 522 l 1
 245 522 l 1
 210 522 l 1
 91.8753966837 522 32.625 576.407017969 32.625 670.735351562 c 0
302.5 703 m 1
 302.5 819 l 1
 348 819 l 0
 476.359468997 819 521.333007812 756 521.333007812 673 c 1
 386 673 l 1
 386 700 361.333333332 703 316 703 c 0
 302.5 703 l 1
303 522 m 257
 303 652 l 257
 462.638004752 652 534.333007812 589.889361702 534.333007812 474 c 0
 534.333007812 238 l 256
 534.333007812 138.590909091 499.333007812 -5 303.333007812 -5 c 257
 303.333007812 135 l 257
 386.333007813 135 394.333007812 185.884695471 394.333007812 258 c 256
 394.333007812 455 l 0
 394.333007812 513.935185185 352.736029237 522 303 522 c 257
EndSplineSet
Layer: 2
Layer: 3
LCarets2: 1 0
Ligature2: "si_abvs_1 subtable" si_Ca si_MatraI
EndChar

StartChar: si_CIi
Encoding: 138 -1 96
GlifName: si_C_I_i
Width: 611
VWidth: 0
Flags: HW
LayerCount: 4
Back
SplineSet
80.3095703125 252 m 5
 30 252 l 261
 30 354 l 261
 247 354 l 5
 247 360 l 261
 247.052734375 389.333007812 225.720703125 400 205 400 c 260
 195.146484375 400 169.971679688 397 165 376 c 261
 66 402 l 261
 92.404296875 489.737304688 168.591796875 503 205 503 c 260
 248.907226562 503 293.606445312 486.11328125 317 459 c 260
 340.37109375 431.912109375 350 406 350 350 c 262
 350 252 l 261
 266 252 l 262
 228.719726562 252 207.981445312 224.450195312 207.981445312 196.087890625 c 4
 207.981445312 166.000976562 231.317382812 135 283 135 c 261
 283 -5 l 261
 155.557617188 -5 69 87.232421875 69 192 c 260
 69 212.028320312 70.5166015625 233.240234375 80.3095703125 252 c 5
476 506 m 4xdd
 450.888671875 506 283 503.313476562 283 666 c 5
 379 666 l 4xbd
 377.708007812 661.416992188 377 656.428710938 377 651 c 4
 377 622 400 599 429 599 c 4
 458 599 481 621.641601562 481 649 c 4
 481 679.706054688 458 703 429 703 c 4
 338 703 l 5
 338 819 l 5
 416 819 l 5
 545.258789062 819 599.376953125 735.409179688 599.376953125 649 c 4
 599.376953125 578.637695312 551.310546875 506 476 506 c 4xdd
246 819 m 5
 283 819 l 5
 283 703 l 5
 225 703 l 5
 212 703 205.5 693.75 205.5 684.5 c 4
 205.5 675.25 212 666 225 666 c 5
 281 666 l 5
 339 666 l 5
 339 522 l 5
 281 522 l 5
 246 522 l 5
 127.875 522 68.625 596.407226562 68.625 670.735351562 c 4
 68.625 744.907226562 127.625 819 246 819 c 5
339 522 m 261
 339 652 l 261
 351.17578125 652 362.83984375 651.973632812 374 651.919921875 c 5
 374 635.08203125 374 613.09765625 374 586 c 5
 408.828125 586 439.78515625 586 467 586 c 5
 471.022460938 598.763671875 474.860351562 612.767578125 478.514648438 628 c 5
 541.134765625 600.012695312 570.333007812 547.95703125 570.333007812 474 c 4
 570.333007812 238 l 260
 570.333007812 138.590820312 535.282226562 -5 339 -5 c 261
 339 135 l 261
 416.252929688 135 430.333007812 180.362304688 430.333007812 244 c 260
 430.333007812 455 l 4xde
 430.333007812 513.935546875 388.736328125 522 339 522 c 261
EndSplineSet
Fore
SplineSet
358 711 m 0
 358 771 406 819 466 819 c 0
 526 819 574 771 574 711 c 0
 574 651 526 603 466 603 c 0
 406 603 358 651 358 711 c 0
339 703 m 1
 339 819 l 5
 466 819 l 1
 466 703 l 1
 339 703 l 1
235 645 m 2
 281 645 l 1
 343 645 l 1
 343 522 l 1
 281 522 l 1
 246 522 l 2
 9.8955078125 522 9.1044921875 819 246 819 c 2
 283 819 l 1
 283 703 l 1
 235 703 l 2
 186.084960938 703 186.208984375 645 235 645 c 2
30 252 m 257
 30 354 l 257
 247 354 l 1
 247 360 l 257
 247.052734375 389.333007812 225.720703125 400 205 400 c 256
 195.146484375 400 169.971679688 397 165 376 c 257
 66 402 l 257
 92.404296875 489.737304688 168.591796875 503 205 503 c 256
 248.907226562 503 293.606445312 486.11328125 317 459 c 256
 340.37109375 431.912109375 350 406 350 350 c 258
 350 252 l 257
 266 252 l 258
 228.719726562 252 207.981445312 224.450195312 207.981445312 196.087890625 c 0
 207.981445312 166.000976562 231.317382812 135 283 135 c 257
 283 -5 l 257
 155.557617188 -5 69 87.232421875 69 192 c 256
 69 212.028320312 70.5166015625 233.240234375 80.3095703125 252 c 1
 30 252 l 257
339 522 m 257
 339 645 l 257
 351.17578125 645 372.83984375 644.91796875 384 644.919921875 c 0
 516.620117188 644.946289062 570.333007812 596.227539062 570.333007812 474 c 2
 570.333007812 238 l 256
 570.333007812 138.590820312 535.782226562 -5 339.5 -5 c 257
 339.5 135 l 257
 416.752929688 135 430.333007812 180.362304688 430.333007812 244 c 256
 430.333007812 455 l 0
 430.333007812 513.935546875 388.736328125 522 339 522 c 257
EndSplineSet
Layer: 2
Layer: 3
LCarets2: 1 0
Ligature2: "si_abvs_2 subtable" si_Ca si_MatraIi
EndChar

StartChar: si_Ch.halant
Encoding: 146 -1 103
GlifName: si_C_h.halant
Width: 655
VWidth: 0
Flags: HW
LayerCount: 4
Back
Fore
SplineSet
315.000976562 529 m 1
 322.684570312 529 l 1
 446.000976562 696 l 1
 446.000976562 819 l 1
 315.000976562 819 l 1
 315.000976562 529 l 1
EndSplineSet
Refer: 480 3489 N 1 0 0 1 0 0 2
Layer: 2
Layer: 3
LCarets2: 1 0
Ligature2: "si_halant_1 subtable" si_Cha si_Halant
EndChar

StartChar: si_ChIi
Encoding: 148 -1 105
GlifName: si_C_hI_i
Width: 628
VWidth: 0
Flags: HW
LayerCount: 4
Back
Fore
SplineSet
520 690 m 4
 520 626 573 574 638 574 c 4
 703 574 756 626 756 690 c 4
 756 754 703 806 638 806 c 4
 573 806 520 754 520 690 c 4
30 460 m 257
 148 421 l 257
 152.416015625 436 167.216796875 451 195 451 c 256
 210.331054688 451 250 441.890625 250 402 c 1
 198 402 l 2
 101 402 35 373 35 251 c 1xa780
 174 251 l 1
 174.000976562 262.104492188 175.73828125 283 209 283 c 2x9780
 426 283 l 2x8f80
 455 283 455 263 455 251 c 1xa780
 594 251 l 1
 594 286.55078125 568.432617188 314.060546875 519.358398438 335.237304688 c 1
 339 335 l 1x8f80
 314 536 l 257x9780
 277.783203125 561.654296875 234.892578125 574.547851562 193.251953125 574.547851562 c 0
 121.807617188 574.547851562 54.0458984375 536.590820312 30 460 c 257
34 202 m 257
 34 59.24609375 112 -12 289 -12 c 0
 342 -12 l 256
 511 -12 594 64 594 202 c 257
 594 262 l 1
 594 316.096679688 574.321289062 360 496 360 c 1
 457.169921875 360 l 1
 447.706054688 360 434.09375 360 419 360 c 0
 395.857421875 360 377 378.857421875 377 402 c 0x9780
 377 425.142578125 395.857421875 444 419 444 c 0
 442.142578125 444 461 425.142578125 461 402 c 0
 585 402 l 0
 585 494 510 569 418 569 c 0
 325 569 250 494 250 402 c 0x9780
 250 310 315 235 417 235 c 0
 454 236 l 1xc780
 454 202 l 257
 454 151 415 123 350 123 c 256
 278 123 l 0
 215 123 174 148.80078125 174 202 c 257
 34 202 l 257
304 522 m 1
 438 470 l 1
 610.459960938 696.424804688 l 1
 436 696 l 1
 304 522 l 1
256.501953125 678.518554688 m 1
 257 658.54296875 l 1
 385 658.715820312 l 1
 385.001953125 678.75390625 l 257
 384.908203125 717.836914062 411.2578125 720.81640625 431.399414062 721.615234375 c 1
 639.6484375 721.995117188 l 0
 657.6484375 722.0390625 668.932617188 707.595703125 668.96875 692.81640625 c 0
 669.01171875 674.547851562 654.7890625 663.532226562 639.7890625 663.49609375 c 0
 622.540039062 663.455078125 610.506835938 676.924804688 610.46875 692.67578125 c 0
 610.459960938 696.424804688 l 1
 521.959960938 696.212890625 l 1
 521.96875 692.462890625 l 1
 522.205078125 594.296875 600.693359375 574.286132812 639.2421875 574.377929688 c 0
 698.640625 574.521484375 757.932617188 617.563476562 757.752929688 692.279296875 c 0
 757.586914062 761.586914062 714.608398438 819.676757812 640.1640625 819.498046875 c 1
 389.165039062 819.084960938 l 1
 314.720703125 818.90625 257.000976562 769.57421875 257.452148438 699.518554688 c 257
 256.501953125 678.518554688 l 1
EndSplineSet
Layer: 2
Layer: 3
LCarets2: 1 0
Ligature2: "si_abvs_2 subtable" si_Cha si_MatraIi
EndChar

StartChar: si_J.halant
Encoding: 151 -1 108
GlifName: si_J_.halant
Width: 626
VWidth: 0
Flags: HW
HStem: 619 200<32.001 168.001>
VStem: 32.001 136<619 819>
LayerCount: 4
Back
Fore
SplineSet
316.000976562 529 m 1
 316.000976562 819 l 1
 447.000976562 819 l 5
 447.000976562 696 l 5
 323.684570312 529 l 1
 316.000976562 529 l 1
EndSplineSet
Refer: 481 3490 N 1 0 0 1 0 0 2
Layer: 2
Layer: 3
LCarets2: 1 0
Ligature2: "si_halant_1 subtable" si_Ja si_Halant
EndChar

StartChar: si_Jh.halant
Encoding: 161 -1 117
GlifName: si_J_h.halant
Width: 1138
VWidth: 0
Flags: HW
HStem: -8 140<171.931 242.975 347.705 418.207> 200 2<422 563> 336 138<182.644 263> 616.5 138.5<197.992 252.667 319 394.64>
VStem: 30 138<136.767 320.681 566 585.612> 245 100<134.344 202> 422 141<136.767 588.707>
LayerCount: 4
Back
SplineSet
733 168 m 4
 733 156 742 134 772 134 c 4
 802 134 810 154.875 810 168 c 4
 810 204 l 261
 910 204 l 261
 910 168 l 4
 910 154.875 918 134 948 134 c 4
 978 134 987 156 987 168 c 4
 987 204 l 5
 1128 204 l 261
 1128 162 l 4
 1128 60 1061.38085938 -6 969 -6 c 260
 935.151367188 -6 893.924804688 5.466796875 865 37 c 261
 841.108398438 5.466796875 804.958984375 -6 777 -6 c 260
 670.00390625 -6 595 60 595 162 c 4
 594.999023438 263.92578125 l 4
 594.999023438 345.692382812 610.333984375 456 806.333984375 456 c 261
 828.666992188 456 l 5
 828 338 l 5
 805.666992188 338 l 261
 765.666992188 338 733 324 733 264 c 260
 733 168 l 4
1128 474 m 262
 1128 202 l 261
 987 202 l 261
 987 455 l 262
 987 514 946.403320312 522 896.666992188 522 c 261
 896.666992188 652 l 261
 1056.3046875 652 1128 590 1128 474 c 262
245 404 m 5xa4
 245 439 214.168945312 448 198 448 c 260
 164.069335938 448 147 424.741210938 147 404 c 261
 30 441 l 261
 44 539 136.521484375 569 198 569 c 260
 270.694335938 569 320 535 337 504 c 5
 245 404 l 5xa4
448.223632812 356.095703125 m 5
 511.6015625 328.930664062 529 281.827148438 529 220 c 4
 529 138 l 6
 529 4.603515625 363.235351562 -50.767578125 290 38 c 261
 229.787109375 -49.9111328125 64.9814453125 10.5439453125 65 108 c 6
 65.0029296875 123.755859375 l 4
 65.0029296875 143.9453125 64.3154296875 163.90625 41.2734375 163.90625 c 4
 37.990234375 163.90625 34.2529296875 163.299804688 30 162 c 261
 147 257 l 5
 165.91015625 241.06640625 180.861328125 222.712890625 180.879882812 204 c 5
 181 162 l 6
 181.107421875 124.479492188 240 124.545898438 240 162 c 6
 240 204 l 261
 339.879882812 204 l 5
 340 164 l 6
 340.122070312 123.4765625 400 123.547851562 400 164 c 4
 400.00390625 204.127929688 l 4
 400.00390625 235.327148438 393.873046875 260.736328125 351 278 c 5
 448.223632812 356.095703125 l 5
594.999023438 263.92578125 m 5
 595 380 476 451 392 376 c 5
 155 183.391601562 l 5
 30 162 l 5
 30 261 l 5
 301 482 l 5
 465 623 733 524 732.999023438 315.92578125 c 5
 594.999023438 263.92578125 l 5
896.166992188 819 m 5xe4
 941.666992188 819 l 4
 1090.02636719 819 1115 756 1115 673 c 5
 979.666992188 673 l 5
 979.666992188 700 955 703 909.666992188 703 c 4
 896.166992188 703 l 5
 896.166992188 819 l 5xe4
840.666992188 703 m 5
 817.666992188 703 l 4
 788.729492188 703 782.409179688 688.846679688 782.409179688 676.362304688 c 4
 782.409179688 661.502929688 795.732421875 652 817.666992188 652 c 5
 838.666992188 652 l 5
 838.666992188 522 l 5
 830.666992188 522 l 5
 695.4921875 522 683.515625 607.590820312 683.515625 651.65234375 c 5
 668.90234375 652.028320312 652.697265625 677.385742188 652.697265625 707.4375 c 4xec
 652.697265625 780.907226562 729.619140625 819 840.666992188 819 c 5
 840.666992188 703 l 5
839 652 m 5
 839 522 l 5
 647 522 l 5
 647 652 l 5
 839 652 l 5
EndSplineSet
Fore
SplineSet
30 439 m 257
 44 537 136.521484375 567 198 567 c 256
 270.694604306 567 320 533 337 502 c 1
 245 402 l 1xa4
 245 437 214.168945312 446 198 446 c 256
 164.069335938 446 147 422.741210938 147 402 c 257
 30 439 l 257
30 160 m 257
 147 255 l 1
 165.91015625 239.06640625 180.861328125 220.712890625 180.879882812 202 c 1
 181 160 l 2
 181.107306155 122.479492188 240 122.545898438 240 160 c 2
 240 202 l 257
 339.879882812 202 l 1
 340 162 l 2
 340.121689016 121.4765625 400 121.547851562 400 162 c 0
 400.00390625 202.127929688 l 0
 400.00390625 233.327405245 393.873077864 258.736643703 351 276 c 1
 448.223632812 354.095703125 l 1
 511.601605812 326.930722781 529 279.826703425 529 218 c 0
 529 136 l 2
 529 2.603515625 363.235455622 -52.767578125 290 36 c 257
 229.787245838 -51.9111328125 64.9818787551 8.54394529059 65 106 c 2
 65.0029296875 121.755859375 l 0
 65.0029296875 141.9453125 64.3154296875 161.90625 41.2734375 161.90625 c 0
 37.990234375 161.90625 34.2529296875 161.299804688 30 160 c 257
30 160 m 1
 30 259 l 1
 335 509 l 1
 512.716796875 640.302734375 808 575 808 384 c 1
 671 369 l 17
 651 451 509 469 425 400 c 1
 155 181.391601562 l 1
 30 160 l 1
574.999023438 261.92578125 m 0
 574.999023438 343.692382812 589.666992188 454 785.666992188 454 c 257
 808 384 l 1
 808 336 l 1
 785.666992188 336 l 257
 745.666992188 336 713 322 713 262 c 256
 713 166 l 0
 713 154 722 132 752 132 c 0
 782 132 790 152.875 790 166 c 0
 790 202 l 257
 890 202 l 257
 890 166 l 0
 890 152.875 898 132 928 132 c 0
 958 132 967 154 967 166 c 0
 967 202 l 1
 1108 202 l 257
 1108 160 l 0
 1108 58 1041.38085938 -8 949 -8 c 256
 915.151367188 -8 873.924804688 3.466796875 845 35 c 257
 821.108398438 3.466796875 784.958984375 -8 757 -8 c 256
 650.00390625 -8 575 58 575 160 c 0
 574.999023438 261.92578125 l 0
876.666992188 522 m 261
 876.666992188 652 l 261
 1036.3046875 652 1108 590 1108 474 c 262
 1108 200 l 257
 967 200 l 257
 967 455 l 262
 967 514 926.403320312 522 876.666992188 522 c 261
876.166992188 703 m 5
 876.166992188 819 l 5xe4
 921.666992188 819 l 4
 1070.02636719 819 1095 756 1095 673 c 5
 959.666992188 673 l 5
 959.666992188 700 935 703 889.666992188 703 c 4
 876.166992188 703 l 5
644 652 m 5
 603 652 562.809570312 819 779 819 c 6
 820.666992188 819 l 5
 820.666992188 703 l 5
 787.666992188 703 l 4
 758.729492188 703 752.409179688 688.846679688 752.409179688 676.362304688 c 4
 752.409179688 661.502929688 765.732421875 652 787.666992188 652 c 5
 818.666992188 652 l 5
 818.666992188 522 l 5
 800.666992188 522 l 5
 665.4921875 522 644 607.938476562 644 652 c 5
594 522 m 5
 594 652 l 5
 819 652 l 5
 819 522 l 5
 594 522 l 5
EndSplineSet
Layer: 2
Layer: 3
LCarets2: 1 0
Ligature2: "si_halant_1 subtable" si_Jha si_Halant
EndChar

StartChar: si_JhI
Encoding: 162 -1 118
GlifName: si_J_hI_
Width: 1138
VWidth: 0
Flags: HW
LayerCount: 4
Back
Fore
SplineSet
574.999023438 261.92578125 m 0
 574.999023438 343.692382812 589.666992188 454 785.666992188 454 c 257
 808 384 l 1
 808 336 l 1
 785.666992188 336 l 257
 745.666992188 336 713 322 713 262 c 256
 713 166 l 0
 713 154 722 132 752 132 c 0
 782 132 790 152.875 790 166 c 0
 790 202 l 257
 890 202 l 257
 890 166 l 0
 890 152.875 898 132 928 132 c 0
 958 132 967 154 967 166 c 0
 967 202 l 1
 1108 202 l 257
 1108 160 l 0
 1108 58 1041.38085938 -8 949 -8 c 256
 915.151367188 -8 873.924804688 3.466796875 845 35 c 257
 821.108398438 3.466796875 784.958984375 -8 757 -8 c 256
 650.00390625 -8 575 58 575 160 c 0
 574.999023438 261.92578125 l 0
872 522 m 5
 872 652 l 5
 876 652 l 261
 1035.63769531 652 1108 590 1108 474 c 262
 1108 200 l 257
 967 200 l 257
 967 454 l 262
 967 514 925.736328125 522 876 522 c 261
 872 522 l 5
30 439 m 257
 44 537 136.521484375 567 198 567 c 256
 270.694335938 567 320 533 337 502 c 1
 245 402 l 1xa4
 245 437 214.168945312 446 198 446 c 256
 164.069335938 446 147 422.741210938 147 402 c 257
 30 439 l 257
30 160 m 257
 147 255 l 1
 165.91015625 239.06640625 180.861328125 220.712890625 180.879882812 202 c 1
 181 160 l 2
 181.107421875 122.479492188 240 122.545898438 240 160 c 2
 240 202 l 257
 339.879882812 202 l 1
 340 162 l 2
 340.122070312 121.4765625 400 121.547851562 400 162 c 0
 400.00390625 202.127929688 l 0
 400.00390625 233.327148438 393.873046875 258.736328125 351 276 c 1
 448.223632812 354.095703125 l 1
 511.6015625 326.930664062 529 279.827148438 529 218 c 0
 529 136 l 2
 529 2.603515625 363.235351562 -52.767578125 290 36 c 257
 229.787109375 -51.9111328125 64.9814453125 8.5439453125 65 106 c 2
 65.0029296875 121.755859375 l 0
 65.0029296875 141.9453125 64.3154296875 161.90625 41.2734375 161.90625 c 0
 37.990234375 161.90625 34.2529296875 161.299804688 30 160 c 257
30 160 m 1
 30 259 l 1
 335 509 l 1
 512.716796875 640.302734375 808 575 808 384 c 1
 671 369 l 17
 651 451 509 469 425 400 c 1
 155 181.391601562 l 1
 30 160 l 1
585.625 670.735351562 m 4
 585.625 744.907226562 644.625 819 763 819 c 5
 816 819 l 5
 816 703 l 5
 742 703 l 5
 721.5 703 711.25 690.25 711.25 677.5 c 4
 711.25 664.75 721.5 652 742 652 c 5
 814 652 l 5
 814 522 l 5
 763 522 l 5
 644.875 522 585.625 576.407226562 585.625 670.735351562 c 4
871.5 703 m 5
 871.5 819 l 5
 921 819 l 4
 1049.359375 819 1094.33300781 756 1094.33300781 673 c 5
 959 673 l 5
 959 700 934.333007812 703 889 703 c 4
 871.5 703 l 5
EndSplineSet
Layer: 2
Layer: 3
LCarets2: 1 0
Ligature2: "si_abvs_1 subtable" si_Jha si_MatraI
EndChar

StartChar: si_JhIi
Encoding: 163 -1 119
GlifName: si_J_hI_i
Width: 1138
VWidth: 0
Flags: HW
LayerCount: 4
Back
Fore
SplineSet
574.999023438 261.92578125 m 0
 574.999023438 343.692382812 589.666992188 454 785.666992188 454 c 257
 808 384 l 1
 808 336 l 1
 785.666992188 336 l 257
 745.666992188 336 713 322 713 262 c 256
 713 166 l 0
 713 154 722 132 752 132 c 0
 782 132 790 152.875 790 166 c 0
 790 202 l 257
 890 202 l 257
 890 166 l 0
 890 152.875 898 132 928 132 c 0
 958 132 967 154 967 166 c 0
 967 202 l 1
 1108 202 l 257
 1108 160 l 0
 1108 58 1041.38085938 -8 949 -8 c 256
 915.151367188 -8 873.924804688 3.466796875 845 35 c 257
 821.108398438 3.466796875 784.958984375 -8 757 -8 c 256
 650.00390625 -8 575 58 575 160 c 0
 574.999023438 261.92578125 l 0
876 522 m 261
 876 645 l 261
 888.17578125 645 909.8398438 644.917703042 921 644.919921875 c 4
 1053.62011719 644.946289063 1108 596 1108 474 c 262
 1108 200 l 257
 967 200 l 257
 967 454 l 262
 967 514 925.736328125 522 876 522 c 261
30 439 m 257
 44 537 136.521484375 567 198 567 c 256
 270.694335938 567 320 533 337 502 c 1
 245 402 l 1xa4
 245 437 214.168945312 446 198 446 c 256
 164.069335938 446 147 422.741210938 147 402 c 257
 30 439 l 257
30 160 m 257
 147 255 l 1
 165.91015625 239.06640625 180.861328125 220.712890625 180.879882812 202 c 1
 181 160 l 2
 181.107421875 122.479492188 240 122.545898438 240 160 c 2
 240 202 l 257
 339.879882812 202 l 1
 340 162 l 2
 340.122070312 121.4765625 400 121.547851562 400 162 c 0
 400.00390625 202.127929688 l 0
 400.00390625 233.327148438 393.873046875 258.736328125 351 276 c 1
 448.223632812 354.095703125 l 1
 511.6015625 326.930664062 529 279.827148438 529 218 c 0
 529 136 l 2
 529 2.603515625 363.235351562 -52.767578125 290 36 c 257
 229.787109375 -51.9111328125 64.9814453125 8.5439453125 65 106 c 2
 65.0029296875 121.755859375 l 0
 65.0029296875 141.9453125 64.3154296875 161.90625 41.2734375 161.90625 c 0
 37.990234375 161.90625 34.2529296875 161.299804688 30 160 c 257
30 160 m 1
 30 259 l 1
 335 509 l 1
 512.716796875 640.302734375 808 575 808 384 c 1
 671 369 l 17
 651 451 509 469 425 400 c 1
 155 181.391601562 l 1
 30 160 l 1
895 711 m 4
 895 771 943 819 1003 819 c 4
 1063 819 1111 771 1111 711 c 4
 1111 651 1063 603 1003 603 c 4
 943 603 895 651 895 711 c 4
876 703 m 5
 876 819 l 5
 1003 819 l 5
 1003 703 l 5
 876 703 l 5
762 645 m 6
 819.666992188 645 l 5
 819.666992188 522 l 5
 773 522 l 6
 536.895507812 522 536.104492188 819 773 819 c 6
 820 819 l 5
 820 703 l 5
 762 703 l 6
 713.084960938 703 713.208984375 645 762 645 c 6
EndSplineSet
Layer: 2
Layer: 3
LCarets2: 1 0
Ligature2: "si_abvs_2 subtable" si_Jha si_MatraIi
EndChar

StartChar: si_JhU
Encoding: 164 -1 120
GlifName: si_J_hU_
Width: 1138
VWidth: 0
Flags: HW
LayerCount: 4
Back
Fore
SplineSet
952 123 m 5
 1092 123 l 5
 1092 -205 l 5
 952 -205 l 5
 952 123 l 5
864 -65 m 5
 962 -65 l 5
 962 -205 l 5
 864 -205 l 5
 864 -65 l 5
596 -65 m 1
 808 -65 l 1
 808 -205 l 1
 596 -205 l 1
 596 -65 l 1
EndSplineSet
Refer: 482 3491 N 1 0 0 1 0 0 2
Layer: 2
Layer: 3
LCarets2: 1 0
Ligature2: "si_blws_1 subtable" si_Jha si_MatraU
EndChar

StartChar: si_JhUu
Encoding: 165 -1 121
GlifName: si_J_hU_u
Width: 1138
VWidth: 0
Flags: HW
LayerCount: 4
Back
Fore
SplineSet
600 -39 m 1
 626.333984375 -58.3330078125 679.444335938 -64.77734375 700.741210938 -64.77734375 c 0xa0
 743.333984375 -64.77734375 768.666992188 -42 808 -42 c 1x60
 808 -182 l 1x60
 768.666992188 -182 743.333984375 -204.77734375 700.741210938 -204.77734375 c 0
 679.444335938 -204.77734375 626.333984375 -198.333007812 600 -179 c 1
 600 -39 l 1
952 123 m 1
 1092 123 l 1
 1092 -205 l 1
 952 -205 l 1
 952 123 l 1
864 -42 m 1
 881 -42 929.1484375 -46.1669921875 952 -61 c 1
 952 -205 l 1
 926.106445312 -186.638671875 885 -182 864 -182 c 1
 864 -42 l 1
EndSplineSet
Refer: 482 3491 N 1 0 0 1 0 0 2
Layer: 2
Layer: 3
LCarets2: 1 0
Ligature2: "si_blws_3 subtable" si_Jha si_MatraUu
EndChar

StartChar: si_Ndj.halant
Encoding: 199 -1 144
GlifName: si_N_dj.halant
Width: 765
VWidth: 0
Flags: HW
LayerCount: 4
Back
Fore
SplineSet
490.000976562 529 m 5
 490.000976562 819 l 5
 621.000976562 819 l 5
 621.000976562 696 l 5
 497.684570312 529 l 5
 490.000976562 529 l 5
EndSplineSet
Refer: 485 3494 N 1 0 0 1 0 0 2
Layer: 2
Layer: 3
LCarets2: 1 0
Ligature2: "si_halant_1 subtable" si_Ndja si_Halant
EndChar

StartChar: si_NdjU
Encoding: 202 -1 147
GlifName: si_N_djU_
Width: 765
VWidth: 0
Flags: HW
LayerCount: 4
Back
Fore
SplineSet
618 131 m 1xc0
 758 131 l 1
 758 -205 l 1xc0
 618 -205 l 1xa0
 618 131 l 1xc0
518 -65 m 1
 628 -65 l 1
 628 -205 l 1xa0
 518 -205 l 1
 518 -65 l 1
245 -65 m 1
 462 -65 l 1
 462 -205 l 1
 245 -205 l 1
 245 -65 l 1
EndSplineSet
Refer: 485 3494 N 1 0 0 1 0 0 2
Layer: 2
Layer: 3
EndChar

StartChar: si_NdjUu
Encoding: 203 -1 148
GlifName: si_N_djU_u
Width: 765
VWidth: 0
Flags: HW
LayerCount: 4
Back
Fore
SplineSet
245 -34 m 1x40
 285.479492188 -59.3330078125 305.004882812 -67.77734375 337.741210938 -67.77734375 c 4x80
 389.05078125 -67.77734375 404.616210938 -38 452 -38 c 1x40
 452 -178 l 1x40
 404.616210938 -178 389.05078125 -204.77734375 337.741210938 -204.77734375 c 4x80
 305.004882812 -204.77734375 285.479492188 -197.083007812 245 -174 c 1
 245 -34 l 1x40
618 131 m 1
 758 131 l 1
 758 -205 l 1
 618 -205 l 1
 618 131 l 1
508 -38 m 1
 537.142578125 -38 578.825195312 -39.921875 618 -61 c 1
 618 -205 l 1
 573.610351562 -180.252929688 544 -178 508 -178 c 1
 508 -38 l 1
EndSplineSet
Refer: 485 3494 N 1 0 0 1 0 0 2
Layer: 2
Layer: 3
LCarets2: 1 0
Ligature2: "si_blws_3 subtable" si_Ndja si_MatraUu
EndChar

StartChar: si_Tt.halant
Encoding: 206 -1 150
GlifName: si_T_t.halant
Width: 559
VWidth: 0
Flags: HW
HStem: -5 145<190.604 241 297.333 363.532> 522 130<47.333 83.8486 218 371.602> 703 116<186.982 241 296.5 374.559>
VStem: 30.333 138<161.934 321.696> 53.0303 129.712<654.604 741.366> 388.333 140<163.883 505.169>
LayerCount: 4
Back
Fore
SplineSet
29.9990234375 261.92578125 m 0
 29.9990234375 343.692808447 44.6669921875 474 240.666992188 474 c 257
 240.666992188 336 l 257
 200.666992188 336 168 322 168 262 c 256
 168 222 l 2
 168 182.580197218 189 135 240.666992188 135 c 257
 240.666992188 -5 l 257
 96.6669921873 -5 30 116.579646018 30 208 c 256
 29.9990234375 261.92578125 l 0
296.5 703 m 5
 296.5 819 l 5xe4
 342 819 l 4
 490.359468997 819 515.333007812 756 515.333007812 673 c 5
 380 673 l 5
 380 700 355.333333332 703 310 703 c 4
 296.5 703 l 5
297 522 m 261
 297 652 l 261
 456.637695312 652 528.333007812 589.889648438 528.333007812 474 c 4
 528.333007812 233 l 256
 528.333007812 135.636363636 493.333007812 -5 297.333007812 -5 c 257
 297.333007812 135 l 257
 378.333007812 135 388.333007812 183.180995475 388.333007812 255 c 256
 388.333007812 455 l 4
 388.333007812 513.935546875 346.736328125 522 297 522 c 261
53.0302734375 707.4375 m 4xec
 53.0302734375 780.906821466 129.951875139 819 241 819 c 5
 241 703 l 5
 218 703 l 4
 189.0625 703 182.7421875 688.846679688 182.7421875 676.362304688 c 4
 182.7421875 661.502929688 196.065477453 652 218 652 c 5
 239 652 l 5
 239 522 l 5
 231 522 l 5
 95.8254983179 522 83.8486328125 607.590820312 83.8486328125 651.65234375 c 5
 69.2352372607 652.027905731 53.0302734375 677.38607251 53.0302734375 707.4375 c 4xec
239 522 m 5
 239 652 l 5
 297 652 l 5
 297 522 l 5
 239 522 l 5
47.3330078125 522 m 5
 47.3330078125 652 l 5
 239.333007812 652 l 5
 239.333007812 522 l 5
 47.3330078125 522 l 5
EndSplineSet
Layer: 2
SplineSet
241 832 m 5xce40
 241 695 l 5
 297 695 l 5
 297 832 l 5
 241 832 l 5xce40
EndSplineSet
Layer: 3
LCarets2: 1 0
Ligature2: "si_halant_1 subtable" si_Tta si_Halant
EndChar

StartChar: si_TtI
Encoding: 207 -1 151
GlifName: si_T_tI_
Width: 559
VWidth: 0
Flags: HW
HStem: -5 140<191.465 241 297.333 363.532> 522 130<162.943 371.602> 703 116<162.859 241 296.5 375.934>
VStem: 30.333 138<158.996 318.463 652.801 702.367> 388.333 140<159.778 505.169>
LayerCount: 4
Back
Fore
SplineSet
29.9990234375 261.92578125 m 0
 29.9990234375 343.692808447 44.6669921875 474 240.666992188 474 c 257
 240.666992188 336 l 257
 200.666992188 336 168 322 168 262 c 256
 168 222 l 2
 168 182.580197218 189 135 240.666992188 135 c 257
 240.666992188 -5 l 257
 96.6669921873 -5 30 116.579646018 30 208 c 256
 29.9990234375 261.92578125 l 0
36.6248017975 670.735464239 m 0
 36.6248017975 744.90689325 95.6252638507 819 214 819 c 1
 241 819 l 1
 241 703 l 1
 193 703 l 1
 172.5 703 162.25 690.25 162.25 677.5 c 0
 162.25 664.75 172.5 652 193 652 c 1
 239 652 l 1
 297 652 l 1
 297 522 l 1
 239 522 l 1
 214 522 l 1
 95.8752646888 522 36.6248017975 576.407059186 36.6248017975 670.735464239 c 0
296.5 703 m 5
 296.5 819 l 5
 342 819 l 4
 470.359468997 819 515.333007812 756 515.333007812 673 c 5
 380 673 l 5
 380 700 355.333333332 703 310 703 c 4
 296.5 703 l 5
297 522 m 257
 297 652 l 257
 456.638004752 652 528.333007812 589.889361702 528.333007812 474 c 0
 528.333007812 233 l 256
 528.333007812 135.636363636 493.333007812 -5 297.333007812 -5 c 257
 297.333007812 135 l 257
 380.333007813 135 388.333007812 185.884695471 388.333007812 258 c 256
 388.333007812 455 l 0
 388.333007812 513.935185185 346.736029237 522 297 522 c 257
EndSplineSet
Layer: 2
Layer: 3
LCarets2: 1 0
Ligature2: "si_abvs_1 subtable" si_Tta si_MatraI
EndChar

StartChar: si_TtIi
Encoding: 208 -1 152
GlifName: si_T_tI_i
Width: 559
VWidth: 0
Flags: HW
HStem: -5 140<190.924 240.667 297 363.295> 522 123<162.489 360.124> 603 41.9199<364 474.62> 703 116<162.367 241 297 424>
VStem: 30 138<158.959 320.681> 297 4<522 645> 316 108<703 771> 388.333 140<163.24 506.406>
LayerCount: 4
Back
SplineSet
240.666992188 135 m 261
 240.666992188 -5 l 261
 96.6669921875 -5 30 116.579646018 30 208 c 260
 29.9990234375 261.92578125 l 4
 29.9990234375 343.692808447 44.6669921875 474 240.666992188 474 c 261
 240.666992188 336 l 261
 200.666992188 336 168 322 168 262 c 260
 168 222 l 6
 168 182.580197218 189 135 240.666992188 135 c 261
434 506 m 4xdd
 408.889077935 506 241 503.313280134 241 666 c 5
 337 666 l 4xbd
 335.707642875 661.417368777 335 656.428394569 335 651 c 4
 335 622 358 599 387 599 c 4
 416 599 439 621.641509434 439 649 c 4
 439 679.705882353 416 703 387 703 c 4
 296 703 l 5
 296 819 l 5
 374 819 l 5
 503.258943829 819 557.376953125 735.409245091 557.376953125 649 c 4
 557.376953125 578.637968034 509.310692202 506 434 506 c 4xdd
214 819 m 5
 241 819 l 5
 241 703 l 5
 193 703 l 5
 180 703 173.5 693.75 173.5 684.5 c 4
 173.5 675.25 180 666 193 666 c 5
 239 666 l 5
 297 666 l 5
 297 522 l 5
 239 522 l 5
 214 522 l 5
 95.8752646888 522 36.6248017975 596.407059186 36.6248017975 670.735464239 c 4
 36.6248017975 744.90689325 95.6252638507 819 214 819 c 5
297 522 m 261
 297 652 l 261
 309.17586333 652 320.840129373 651.63867922 332.000007384 650.919734538 c 5
 333.028480216 634.337016414 334.028394158 612.686375869 335 586 c 5
 368.330509084 586 397.955418442 586 424 591 c 5
 428.371898836 602.24442025 432.542529325 614.580803708 436.514249808 628.000008258 c 5
 499.134386118 600.012337276 528.333007812 547.957173121 528.333007812 474 c 4
 528.333007812 238 l 260
 528.333007812 138.590909091 493.282552083 -5 297 -5 c 261
 297 135 l 261
 374.252500429 135 388.333007812 180.362745098 388.333007812 244 c 260
 388.333007812 455 l 4xde
 388.333007812 513.935185185 346.736029237 522 297 522 c 261
EndSplineSet
Fore
SplineSet
316 711 m 4xbe
 316 771 364 819 424 819 c 4
 484 819 532 771 532 711 c 4
 532 651 484 603 424 603 c 4
 364 603 316 651 316 711 c 4xbe
297 703 m 5
 297 819 l 5
 424 819 l 5
 424 703 l 5
 297 703 l 5
193 645 m 2
 239 645 l 1
 301 645 l 1
 301 522 l 1
 239 522 l 1
 204 522 l 2xdc
 -32.1044921875 522 -32.8955078125 819 204 819 c 2
 241 819 l 1
 241 703 l 1
 193 703 l 2
 144.084960938 703 144.208984375 645 193 645 c 2
297 -5 m 257
 297 135 l 257
 374.252500429 135 388.333007812 180.362745098 388.333007812 244 c 256
 388.333007812 455 l 0
 388.333007812 513.935546875 346.736328125 522 297 522 c 257
 297 645 l 257xdd
 309.17578125 645 330.83984375 644.91796875 342 644.919921875 c 0xbd
 474.620117188 644.946289062 527 596 528.333007812 474 c 2
 528.333007812 238 l 256
 528.333007812 138.590909091 493.282552083 -5 297 -5 c 257
29.9990234375 261.92578125 m 0
 29.9990234375 343.692808447 44.6669921875 474 240.666992188 474 c 257
 240.666992188 336 l 257
 200.666992188 336 168 322 168 262 c 256
 168 222 l 2
 168 182.580197218 189 135 240.666992188 135 c 257
 240.666992188 -5 l 257
 96.6669921875 -5 30 116.579646018 30 208 c 256
 29.9990234375 261.92578125 l 0
EndSplineSet
Layer: 2
Layer: 3
LCarets2: 1 0
Ligature2: "si_abvs_2 subtable" si_Tta si_MatraIi
EndChar

StartChar: si_TtUu
Encoding: 210 -1 154
GlifName: si_T_tU_u
Width: 559
VWidth: 0
Flags: HW
HStem: -201.777 140<56.9001 207.511> -174 140<157.206 240 298 365.581> -5 145<190.271 240.667 297 363.199> 616.5 138.5<187.506 240.667 297 359.086>
VStem: 30 138<163.517 320.681 566 595.186> 52 188<-174 -61.7773> 388 140<167.672 248 508 588.145>
LayerCount: 4
Back
Fore
SplineSet
241 -5 m 1281
297.333007812 -5 m 1281
EndSplineSet
Refer: 29 3542 S 1 0 0 1 15 0 2
Refer: 21 3495 N 1 0 0 1 0 0 2
Layer: 2
Layer: 3
LCarets2: 1 0
Ligature2: "si_blws_3 subtable" si_Tta si_MatraUu
EndChar

StartChar: si_Tth.halant
Encoding: 216 -1 159
GlifName: si_T_th.halant
Width: 593
VWidth: 0
Flags: HW
LayerCount: 4
Back
Fore
SplineSet
427.000976562 518 m 5
 427.000976562 819 l 5xe640
 563.000976562 819 l 5
 563.000976562 518 l 5
 427.000976562 518 l 5
EndSplineSet
Refer: 486 3496 N 1 0 0 1 0 0 2
Layer: 2
Layer: 3
LCarets2: 1 0
Ligature2: "si_halant_1 subtable" si_Ttha si_Halant
EndChar

StartChar: si_TthI
Encoding: 217 -1 160
GlifName: si_T_thI_
Width: 593
VWidth: 0
Flags: HW
LayerCount: 4
Back
Fore
SplineSet
179.744140625 645 m 6
 5 645 3.6318359375 922 208 922 c 4
 394 922 l 4
 500 922 543.333007812 853.6015625 543.333007812 776 c 5
 408 776 l 5
 408 804.181640625 387.614257812 805.916992188 349.848632812 806 c 4
 208 806 l 4
 166.888671875 806 167.373046875 755 208 755 c 5
 208 645 l 5
 179.744140625 645 l 6
EndSplineSet
Refer: 486 3496 N 1 0 0 1 0 0 2
Layer: 2
Layer: 3
LCarets2: 1 0
Ligature2: "si_abvs_1 subtable" si_Ttha si_MatraI
EndChar

StartChar: si_TthIi
Encoding: 218 -1 161
GlifName: si_T_thI_i
Width: 593
VWidth: 0
Flags: HW
LayerCount: 4
Back
Fore
SplineSet
51.5263671875 776.125 m 0
 51.5263671875 847.744140625 102.186523438 922 208 922 c 2
 455 922 l 2
 515 922 563 874 563 814 c 0
 563 754 515 706 455 706 c 0
 397.692382812 706 347.331054688 749.790039062 347.286132812 806 c 1
 208 806 l 0
 187.504882812 806 177.34765625 793.325195312 177.34765625 780.61328125 c 0
 177.34765625 767.825195312 187.625976562 755 208 755 c 1
 208 645 l 1
 179.744140625 645 l 2
 95.4755859375 645 51.5263671875 709.418945312 51.5263671875 776.125 c 0
EndSplineSet
Refer: 486 3496 N 1 0 0 1 0 0 2
Layer: 2
Layer: 3
LCarets2: 1 0
Ligature2: "si_abvs_2 subtable" si_Ttha si_MatraIi
EndChar

StartChar: si_TthU
Encoding: 219 -1 162
GlifName: si_T_thU_
Width: 593
VWidth: 0
Flags: HW
LayerCount: 4
Back
Fore
SplineSet
409 123 m 5
 549 123 l 5
 549 -205 l 5
 409 -205 l 5
 409 123 l 5
328 -65 m 5
 419 -65 l 5
 419 -205 l 5
 328 -205 l 5
 328 -65 l 5
59 -65 m 5
 272 -65 l 5
 272 -205 l 5
 59 -205 l 5
 59 -65 l 5
EndSplineSet
Refer: 486 3496 N 1 0 0 1 0 0 2
Layer: 2
Layer: 3
LCarets2: 1 0
Ligature2: "si_blws_1 subtable" si_Ttha si_MatraU
EndChar

StartChar: si_TthUu
Encoding: 220 -1 163
GlifName: si_T_thU_u
Width: 593
VWidth: 0
Flags: HW
LayerCount: 4
Back
Fore
SplineSet
54 -39 m 5
 80.333984375 -58.3330078125 123.444335938 -64.77734375 144.741210938 -64.77734375 c 4xa0
 187.333984375 -64.77734375 232.666992188 -42 272 -42 c 5x60
 272 -182 l 5x60
 232.666992188 -182 187.333984375 -204.77734375 144.741210938 -204.77734375 c 4
 123.444335938 -204.77734375 80.333984375 -198.333007812 54 -179 c 5
 54 -39 l 5
408 123 m 5
 548 123 l 5
 548 -205 l 5
 408 -205 l 5
 408 123 l 5
328 -42 m 5
 345 -42 385.1484375 -46.1669921875 408 -61 c 5
 408 -205 l 5
 382.106445312 -186.638671875 349 -182 328 -182 c 5
 328 -42 l 5
EndSplineSet
Refer: 486 3496 N 1 0 0 1 0 0 2
Layer: 2
Layer: 3
LCarets2: 1 0
Ligature2: "si_blws_3 subtable" si_Ttha si_MatraUu
EndChar

StartChar: si_Dd.halant
Encoding: 221 -1 164
GlifName: si_D_d.halant
Width: 632
VWidth: 0
Flags: HW
LayerCount: 4
Back
Fore
SplineSet
128 652 m 5
 87 652 46.8095703125 819 263 819 c 6
 304.666992188 819 l 5
 304.666992188 703 l 5
 271.666992188 703 l 4
 242.729492188 703 236.409179688 688.846679688 236.409179688 676.362304688 c 4
 236.409179688 661.502929688 249.732421875 652 271.666992188 652 c 5
 302.666992188 652 l 5
 302.666992188 522 l 5
 284.666992188 522 l 5
 149.4921875 522 128 607.938476562 128 652 c 5
360.166992188 703 m 5
 360.166992188 819 l 5xe4
 415.666992188 819 l 4
 564.026367188 819 589 756 589 673 c 5
 453.666992188 673 l 5
 453.666992188 700 429 703 383.666992188 703 c 4
 360.166992188 703 l 5
272.666992188 522 m 5
 272.666992188 652 l 5
 370.666992188 652 l 5
 370.666992188 522 l 5
 272.666992188 522 l 5
81 522 m 5
 81 652 l 5
 273 652 l 5
 273 522 l 5
 81 522 l 5
30 251 m 257
 30 353 l 257
 281 353 l 1
 281 359 l 257
 281.052734375 388.333007812 259.720703125 399 239 399 c 256
 229.146484375 399 203.971679688 396 199 375 c 257
 100 401 l 257
 126.404296875 488.737304688 202.591796875 502 239 502 c 256
 282.907226562 502 327.606445312 485.11328125 351 458 c 256
 374.37109375 430.912109375 384 404.666992188 384 349 c 258
 384 251 l 257
 242 251 l 1
 211.474609375 251 207 231 207 219 c 1
 207 166 l 0
 207 154 216 132 246 132 c 0
 276 132 284 152.875 284 166 c 0
 284 202 l 257
 384 202 l 257
 384 166 l 0
 384 152.875 392 132 422 132 c 0
 452 132 461 154 461 166 c 0
 461 202 l 1
 602 202 l 257
 602 160 l 0
 602 58 535.380859375 -8 443 -8 c 256
 409.151367188 -8 367.924804688 3.466796875 339 35 c 257
 315.108398438 3.466796875 278.958984375 -8 251 -8 c 256
 145.767578125 -8 72 58 72 160 c 0
 72 219 l 257
 72 226 72 246 80 251 c 1
 30 251 l 257
370.666992188 522 m 261
 370.666992188 652 l 261
 530.3046875 652 602 590 602 474 c 262
 602 200 l 257
 461 200 l 257
 461 455 l 4
 461 513.935546875 420.403320312 522 370.666992188 522 c 261
EndSplineSet
Layer: 2
Layer: 3
LCarets2: 1 0
Ligature2: "si_halant_1 subtable" si_Dda si_Halant
EndChar

StartChar: si_DdI
Encoding: 222 -1 165
GlifName: si_D_dI_
Width: 632
VWidth: 0
Flags: HW
LayerCount: 4
Back
Fore
SplineSet
70.2919921875 670.735351562 m 4
 70.2919921875 744.907226562 129.291992188 819 247.666992188 819 c 5
 292.666992188 819 l 5
 292.666992188 703 l 5
 226.666992188 703 l 5
 206.166992188 703 195.916992188 690.25 195.916992188 677.5 c 4
 195.916992188 664.75 206.166992188 652 226.666992188 652 c 5
 292.666992188 652 l 5
 292.666992188 512 l 5
 247.666992188 512 l 5
 129.541992188 512 70.2919921875 570.065429688 70.2919921875 670.735351562 c 4
348.166992188 703 m 5
 348.166992188 819 l 5
 415.666992188 819 l 4
 544.026367188 819 589 756 589 673 c 5
 453.666992188 673 l 5
 453.666992188 700 429 703 383.666992188 703 c 4
 348.166992188 703 l 5
30 251 m 257
 30 353 l 257
 281 353 l 1
 281 359 l 257
 281.052734375 388.333007812 259.720703125 399 239 399 c 256
 229.146484375 399 203.971679688 396 199 375 c 257
 100 401 l 257
 126.404296875 488.737304688 202.591796875 502 239 502 c 256
 282.907226562 502 327.606445312 485.11328125 351 458 c 256
 374.37109375 430.912109375 384 404.666992188 384 349 c 258
 384 251 l 257
 242 251 l 1
 211.474609375 251 207 231 207 219 c 1
 207 166 l 0
 207 154 216 132 246 132 c 0
 276 132 284 152.875 284 166 c 0
 284 202 l 257
 384 202 l 257
 384 166 l 0
 384 152.875 392 132 422 132 c 0
 452 132 461 154 461 166 c 0
 461 202 l 1
 602 202 l 257
 602 160 l 0
 602 58 535.380859375 -8 443 -8 c 256
 409.151367188 -8 367.924804688 3.466796875 339 35 c 257
 315.108398438 3.466796875 278.958984375 -8 251 -8 c 256
 145.767578125 -8 72 58 72 160 c 0
 72 219 l 257
 72 226 72 246 80 251 c 1
 30 251 l 257
292.666992188 512 m 5
 292.666992188 652 l 5
 370.666992188 652 l 261
 530.3046875 652 602 590 602 474 c 262
 602 200 l 257
 461 200 l 257
 461 445 l 262
 461 504 420.403320312 512 370.666992188 512 c 261
 292.666992188 512 l 5
EndSplineSet
Layer: 2
Layer: 3
LCarets2: 1 0
Ligature2: "si_abvs_1 subtable" si_Dda si_MatraI
EndChar

StartChar: si_DdIi
Encoding: 223 -1 166
GlifName: si_D_dI_i
Width: 632
VWidth: 0
Flags: HW
LayerCount: 4
Back
Fore
SplineSet
389.666992188 711 m 4
 389.666992188 771 437.666992188 819 497.666992188 819 c 4
 557.666992188 819 605.666992188 771 605.666992188 711 c 4
 605.666992188 651 557.666992188 603 497.666992188 603 c 4
 437.666992188 603 389.666992188 651 389.666992188 711 c 4
334.666992188 703 m 5
 334.666992188 819 l 5
 497.666992188 819 l 5
 497.666992188 703 l 5
 334.666992188 703 l 5
236.666992188 645 m 6
 282.666992188 645 l 5
 374.666992188 645 l 5
 374.666992188 522 l 5
 282.666992188 522 l 5
 247.666992188 522 l 6
 11.5625 522 10.771484375 819 247.666992188 819 c 6
 278.666992188 819 l 5
 278.666992188 703 l 5
 236.666992188 703 l 6
 187.751953125 703 187.875976562 645 236.666992188 645 c 6
30 251 m 257
 30 353 l 257
 281 353 l 1
 281 359 l 257
 281.052734375 388.333007812 259.720703125 399 239 399 c 256
 229.146484375 399 203.971679688 396 199 375 c 257
 100 401 l 257
 126.404296875 488.737304688 202.591796875 502 239 502 c 256
 282.907226562 502 327.204975896 484.761637636 351 458 c 256
 370.945336903 435.568004285 384 404.203769169 384 349 c 258
 384 251 l 257
 242 251 l 1
 211.474609375 251 207 231 207 219 c 1
 207 166 l 0
 207 154 216 132 246 132 c 0
 276 132 284 152.875 284 166 c 0
 284 202 l 257
 384 202 l 257
 384 166 l 0
 384 152.875 392 132 422 132 c 0
 452 132 461 154 461 166 c 0
 461 202 l 1
 602 202 l 257
 602 160 l 0
 602 58 535.380859375 -8 443 -8 c 256
 409.151367188 -8 367.924804688 3.466796875 339 35 c 257
 315.108398438 3.466796875 278.958984375 -8 251 -8 c 256
 145.767578125 -8 72 58 72 160 c 0
 72 219 l 257
 72 226 72 246 80 251 c 1
 30 251 l 257
370.666992188 522 m 261
 370.666992188 645 l 261
 382.842773438 645 404.506835938 644.91796875 415.666992188 644.919921875 c 4
 548.287109375 644.946289062 602 596 602 474 c 262
 602 200 l 257
 461 200 l 257
 461 455 l 262
 461 514 420.403320312 522 370.666992188 522 c 261
EndSplineSet
Layer: 2
Layer: 3
LCarets2: 1 0
Ligature2: "si_abvs_2 subtable" si_Dda si_MatraIi
EndChar

StartChar: si_DdU
Encoding: 224 -1 167
GlifName: si_D_dU_
Width: 632
VWidth: 0
Flags: HW
LayerCount: 4
Back
Fore
SplineSet
449 123 m 5
 589 123 l 5
 589 -205 l 5
 449 -205 l 5
 449 123 l 5
367 -65 m 5
 459 -65 l 5
 459 -205 l 5
 367 -205 l 5
 367 -65 l 5
99 -65 m 5
 311 -65 l 5
 311 -205 l 5
 99 -205 l 5
 99 -65 l 5
EndSplineSet
Refer: 487 3497 N 1 0 0 1 0 0 2
Layer: 2
Layer: 3
LCarets2: 1 0
Ligature2: "si_blws_1 subtable" si_Dda si_MatraU
EndChar

StartChar: si_DdUu
Encoding: 225 -1 168
GlifName: si_D_dU_u
Width: 632
VWidth: 0
Flags: HW
LayerCount: 4
Back
Fore
SplineSet
95 -39 m 5
 121.333984375 -58.3330078125 164.444335938 -64.77734375 185.741210938 -64.77734375 c 4xa0
 228.333984375 -64.77734375 273.666992188 -42 313 -42 c 5x60
 313 -182 l 5x60
 273.666992188 -182 228.333984375 -204.77734375 185.741210938 -204.77734375 c 4
 164.444335938 -204.77734375 121.333984375 -198.333007812 95 -179 c 5
 95 -39 l 5
449 123 m 5
 589 123 l 5
 589 -205 l 5
 449 -205 l 5
 449 123 l 5
369 -42 m 5
 386 -42 426.1484375 -46.1669921875 449 -61 c 5
 449 -205 l 5
 423.106445312 -186.638671875 390 -182 369 -182 c 5
 369 -42 l 5
EndSplineSet
Refer: 487 3497 N 1 0 0 1 0 0 2
Layer: 2
Layer: 3
Ligature2: "si_blws_3 subtable" si_Dda si_MatraUu
EndChar

StartChar: si_Ddh.halant
Encoding: 231 -1 173
GlifName: si_D_dh.halant
Width: 624
VWidth: 0
Flags: HW
LayerCount: 4
Back
Fore
SplineSet
466.000976562 518 m 5
 466.000976562 819 l 5xe640
 602.000976562 819 l 5
 602.000976562 518 l 5
 466.000976562 518 l 5
EndSplineSet
Refer: 6 3498 N 1 0 0 1 0 0 2
Layer: 2
Layer: 3
LCarets2: 1 0
Ligature2: "si_halant_1 subtable" si_Ddha si_Halant
EndChar

StartChar: si_DdhI
Encoding: 232 -1 174
GlifName: si_D_dhI_
Width: 624
VWidth: 0
Flags: HW
LayerCount: 4
Back
Fore
SplineSet
218.744140625 645 m 6
 44 645 42.6318359375 922 247 922 c 4
 433 922 l 4
 539 922 582.333007812 853.6015625 582.333007812 776 c 5
 447 776 l 5
 447 804.181640625 426.614257812 805.916992188 388.848632812 806 c 4
 247 806 l 4
 205.888671875 806 206.373046875 755 247 755 c 5
 247 645 l 5
 218.744140625 645 l 6
EndSplineSet
Refer: 6 3498 N 1 0 0 1 0 0 2
Layer: 2
Layer: 3
LCarets2: 1 0
Ligature2: "si_abvs_1 subtable" si_Ddha si_MatraI
EndChar

StartChar: si_DdhIi
Encoding: 233 -1 175
GlifName: si_D_dhI_i
Width: 624
VWidth: 0
Flags: HW
HStem: -5 140<190.924 240.667 297 363.295> 522 123<162.489 360.124> 603 41.9199<364 474.62> 703 116<162.367 241 297 424>
VStem: 30 138<158.959 320.681> 297 4<522 645> 316 108<703 771> 388.333 140<163.24 506.406>
LayerCount: 4
Back
Fore
SplineSet
90.525998713 776.12481558 m 4
 90.525998713 847.743795132 141.186828003 922 247 922 c 6
 494 922 l 6
 554 922 602 874 602 814 c 4
 602 754 554 706 494 706 c 4
 436.691904867 706 386.331202293 749.789570238 386.286602991 806 c 5
 247 806 l 4
 226.505240005 806 216.347875439 793.325441637 216.347875439 780.613330017 c 4
 216.347875439 767.825665494 226.626336944 755 247 755 c 5
 247 645 l 5
 218.744140625 645 l 6
 134.475108451 645 90.525998713 709.418489437 90.525998713 776.12481558 c 4
EndSplineSet
Refer: 6 3498 N 1 0 0 1 0 0 2
Layer: 2
Layer: 3
LCarets2: 1 0
Ligature2: "si_abvs_2 subtable" si_Ddha si_MatraIi
EndChar

StartChar: si_DdhU
Encoding: 234 -1 176
GlifName: si_D_dhU_
Width: 624
VWidth: 0
Flags: HW
LayerCount: 4
Back
Fore
SplineSet
449 123 m 5
 589 123 l 5
 589 -205 l 5
 449 -205 l 5
 449 123 l 5
367 -65 m 5
 459 -65 l 5
 459 -205 l 5
 367 -205 l 5
 367 -65 l 5
99 -65 m 5
 311 -65 l 5
 311 -205 l 5
 99 -205 l 5
 99 -65 l 5
EndSplineSet
Refer: 6 3498 N 1 0 0 1 0 0 2
Layer: 2
Layer: 3
LCarets2: 1 0
Ligature2: "si_blws_1 subtable" si_Ddha si_MatraU
EndChar

StartChar: si_DdhUu
Encoding: 235 -1 177
GlifName: si_D_dhU_u
Width: 624
VWidth: 0
Flags: HW
LayerCount: 4
Back
Fore
SplineSet
95 -39 m 5
 121.333984375 -58.3330078125 164.444335938 -64.77734375 185.741210938 -64.77734375 c 4xa0
 228.333984375 -64.77734375 273.666992188 -42 313 -42 c 5x60
 313 -182 l 5x60
 273.666992188 -182 228.333984375 -204.77734375 185.741210938 -204.77734375 c 4
 164.444335938 -204.77734375 121.333984375 -198.333007812 95 -179 c 5
 95 -39 l 5
449 123 m 5
 589 123 l 5
 589 -205 l 5
 449 -205 l 5
 449 123 l 5
369 -42 m 5
 386 -42 426.1484375 -46.1669921875 449 -61 c 5
 449 -205 l 5
 423.106445312 -186.638671875 390 -182 369 -182 c 5
 369 -42 l 5
EndSplineSet
Refer: 6 3498 N 1 0 0 1 0 0 2
Layer: 2
Layer: 3
Ligature2: "si_blws_3 subtable" si_Ddha si_MatraUu
EndChar

StartChar: si_NnU
Encoding: -1 -1 180
GlifName: si_N_nU_
Width: 963
VWidth: 0
Flags: HW
LayerCount: 4
Back
Fore
SplineSet
828 131 m 1xc0
 968 131 l 1
 968 -205 l 1xc0
 828 -205 l 1xa0
 828 131 l 1xc0
632 -65 m 1
 838 -65 l 1
 838 -205 l 1xa0
 632 -205 l 1
 632 -65 l 1
310 -65 m 5
 576 -65 l 1
 576 -205 l 1
 310 -205 l 5
 310 -65 l 5
EndSplineSet
Refer: 16 3499 N 1 0 0 1 0 0 2
Layer: 2
Layer: 3
LCarets2: 1 0
Ligature2: "si_blws_1 subtable" si_Nna si_MatraU
EndChar

StartChar: si_NnUu
Encoding: -1 -1 181
GlifName: si_N_nU_u
Width: 963
VWidth: 0
Flags: HW
LayerCount: 4
Back
Fore
SplineSet
314 -34 m 1x40
 354.479492188 -59.3330078125 390.004882812 -67.77734375 422.741210938 -67.77734375 c 0x80
 474.05078125 -67.77734375 527.616210938 -34 575 -34 c 5x40
 575 -174 l 5x40
 527.616210938 -174 474.05078125 -204.77734375 422.741210938 -204.77734375 c 0x80
 390.004882812 -204.77734375 354.479492188 -197.083007812 314 -174 c 1
 314 -34 l 1x40
828 131 m 1
 968 131 l 1
 968 -205 l 1
 828 -205 l 1
 828 131 l 1
633 -34 m 5
 662.142578125 -34 788.825195312 -39.921875 828 -61 c 1
 828 -205 l 1
 783.610351562 -180.252929688 669 -174 633 -174 c 5
 633 -34 l 5
EndSplineSet
Refer: 16 3499 N 1 0 0 1 0 0 2
Layer: 2
Layer: 3
Ligature2: "si_blws_3 subtable" si_Nna si_MatraUu
EndChar

StartChar: si_Nndd.halant
Encoding: 242 -1 183
GlifName: si_N_ndd.halant
Width: 789
VWidth: 0
Flags: HW
LayerCount: 4
Back
Fore
SplineSet
285 652 m 1
 244 652 203.809570312 819 420 819 c 2
 461.666992188 819 l 1
 461.666992188 703 l 1
 428.666992188 703 l 0
 399.729492188 703 393.409179688 688.846679688 393.409179688 676.362304688 c 0
 393.409179688 661.502929688 406.732421875 652 428.666992188 652 c 1
 459.666992188 652 l 1
 459.666992188 522 l 1
 441.666992188 522 l 1
 306.4921875 522 285 607.938476562 285 652 c 1
517.166992188 703 m 1
 517.166992188 819 l 1xe4
 572.666992188 819 l 0
 721.026367188 819 746 756 746 673 c 1
 610.666992188 673 l 1
 610.666992188 700 586 703 540.666992188 703 c 0
 517.166992188 703 l 1
429.666992188 522 m 1
 429.666992188 652 l 1
 527.666992188 652 l 1
 527.666992188 522 l 1
 429.666992188 522 l 1
238 522 m 1
 238 652 l 1
 430 652 l 1
 430 522 l 1
 238 522 l 1
30 210 m 4
 30 277 l 6
 30 445.615234375 177.1015625 542.5390625 316 492 c 5
 316 361 l 5
 294 370 l 4
 251 387 158 396 158 247 c 4
 158 210 l 4
 158 129.435546875 168.557617188 88.5966796875 233 12 c 5
 103.0390625 -28 l 5
 43.3974609375 49.18359375 30 119.444335938 30 210 c 4
207 231 m 257
 207 333 l 257
 423 333 l 1
 423 339 l 257
 423.05859375 368.0546875 395.028320312 385 372 385 c 256
 356.973632812 385 330.58203125 384 316 361 c 257
 217 401 l 257
 245.494140625 488.737304688 332.7109375 502 372 502 c 256
 496.969726562 502 541 412.60546875 541 329 c 258
 541 231 l 257
 399 231 l 1
 368.474609375 231 364 211 364 199 c 1
 364 166 l 0
 364 154 373 132 403 132 c 0
 433 132 441 152.875 441 166 c 0
 441 202 l 257
 541 202 l 257
 541 166 l 0
 541 152.875 549 132 579 132 c 0
 609 132 618 154 618 166 c 0
 618 202 l 1
 759 202 l 257
 759 160 l 0
 759 58 692.380859375 -8 600 -8 c 256
 566.151367188 -8 524.924804688 3.466796875 496 35 c 257
 472.108398438 3.466796875 435.958984375 -8 408 -8 c 256
 302.767578125 -8 229 58 229 160 c 0
 229 199 l 257
 229 206 229 226 237 231 c 1
 207 231 l 257
527.666992188 522 m 257
 527.666992188 652 l 257
 687.3046875 652 759 590 759 474 c 258
 759 200 l 257
 618 200 l 257
 618 455 l 258
 618 514 577.403320312 522 527.666992188 522 c 257
EndSplineSet
Layer: 2
Layer: 3
LCarets2: 1 0
Ligature2: "si_halant_1 subtable" si_Nndda si_Halant
EndChar

StartChar: si_NnddI
Encoding: 243 -1 184
GlifName: si_N_nddI_
Width: 789
VWidth: 0
Flags: HW
LayerCount: 4
Back
Fore
SplineSet
227.291992188 670.735351562 m 0
 227.291992188 744.907226562 286.291992188 819 404.666992188 819 c 1
 449.666992188 819 l 1
 449.666992188 703 l 1
 383.666992188 703 l 1
 363.166992188 703 352.916992188 690.25 352.916992188 677.5 c 0
 352.916992188 664.75 363.166992188 652 383.666992188 652 c 1
 449.666992188 652 l 1
 449.666992188 512 l 1
 404.666992188 512 l 1
 286.541992188 512 227.291992188 570.065429688 227.291992188 670.735351562 c 0
505.166992188 703 m 1
 505.166992188 819 l 1
 572.666992188 819 l 0
 701.026367188 819 746 756 746 673 c 1
 610.666992188 673 l 1
 610.666992188 700 586 703 540.666992188 703 c 0
 505.166992188 703 l 1
30 210 m 0
 30 277 l 2
 30 445.615234375 177.1015625 542.5390625 316 492 c 1
 316 361 l 1
 294 370 l 0
 251 387 158 396 158 247 c 0
 158 210 l 0
 158 129.435546875 168.557617188 88.5966796875 233 12 c 1
 103.0390625 -28 l 1
 43.3974609375 49.18359375 30 119.444335938 30 210 c 0
207 231 m 257
 207 333 l 257
 423 333 l 1
 423 339 l 257
 423.05859375 368.0546875 395.028320312 385 372 385 c 256
 356.973632812 385 330.58203125 384 316 361 c 257
 217 401 l 257
 245.494140625 488.737304688 332.7109375 502 372 502 c 256
 496.969726562 502 541 412.60546875 541 329 c 258
 541 231 l 257
 399 231 l 1
 368.474609375 231 364 211 364 199 c 1
 364 166 l 0
 364 154 373 132 403 132 c 0
 433 132 441 152.875 441 166 c 0
 441 202 l 257
 541 202 l 257
 541 166 l 0
 541 152.875 549 132 579 132 c 0
 609 132 618 154 618 166 c 0
 618 202 l 1
 759 202 l 257
 759 160 l 0
 759 58 692.380859375 -8 600 -8 c 256
 566.151367188 -8 524.924804688 3.466796875 496 35 c 257
 472.108398438 3.466796875 435.958984375 -8 408 -8 c 256
 302.767578125 -8 229 58 229 160 c 0
 229 199 l 257
 229 206 229 226 237 231 c 1
 207 231 l 257
449.666992188 512 m 1
 449.666992188 652 l 1
 527.666992188 652 l 257
 687.3046875 652 759 590 759 474 c 258
 759 200 l 257
 618 200 l 257
 618 445 l 258
 618 504 577.403320312 512 527.666992188 512 c 257
 449.666992188 512 l 1
EndSplineSet
Layer: 2
Layer: 3
LCarets2: 1 0
Ligature2: "si_abvs_1 subtable" si_Nndda si_MatraI
EndChar

StartChar: si_NnddIi
Encoding: 244 -1 185
GlifName: si_N_nddI_i
Width: 789
VWidth: 0
Flags: HW
LayerCount: 4
Back
Fore
SplineSet
546.666992188 711 m 0
 546.666992188 771 594.666992188 819 654.666992188 819 c 0
 714.666992188 819 762.666992188 771 762.666992188 711 c 0
 762.666992188 651 714.666992188 603 654.666992188 603 c 0
 594.666992188 603 546.666992188 651 546.666992188 711 c 0
491.666992188 703 m 1
 491.666992188 819 l 1
 654.666992188 819 l 1
 654.666992188 703 l 1
 491.666992188 703 l 1
393.666992188 645 m 2
 439.666992188 645 l 1
 531.666992188 645 l 1
 531.666992188 522 l 1
 439.666992188 522 l 1
 404.666992188 522 l 2
 168.5625 522 167.771484375 819 404.666992188 819 c 2
 435.666992188 819 l 1
 435.666992188 703 l 1
 393.666992188 703 l 2
 344.751953125 703 344.875976562 645 393.666992188 645 c 2
30 210 m 0
 30 277 l 2
 30 445.615234375 177.1015625 542.5390625 316 492 c 1
 316 361 l 1
 294 370 l 0
 251 387 158 396 158 247 c 0
 158 210 l 0
 158 129.435546875 168.557617188 88.5966796875 233 12 c 1
 103.0390625 -28 l 1
 43.3974609375 49.18359375 30 119.444335938 30 210 c 0
207 231 m 257
 207 333 l 257
 423 333 l 1
 423 339 l 257
 423.05859375 368.0546875 395.028320312 385 372 385 c 256
 356.973632812 385 330.58203125 384 316 361 c 257
 217 401 l 257
 245.494140625 488.737304688 332.7109375 502 372 502 c 256
 496.969726562 502 541 412.60546875 541 329 c 258
 541 231 l 257
 399 231 l 1
 368.474609375 231 364 211 364 199 c 1
 364 166 l 0
 364 154 373 132 403 132 c 0
 433 132 441 152.875 441 166 c 0
 441 202 l 257
 541 202 l 257
 541 166 l 0
 541 152.875 549 132 579 132 c 0
 609 132 618 154 618 166 c 0
 618 202 l 1
 759 202 l 257
 759 160 l 0
 759 58 692.380859375 -8 600 -8 c 256
 566.151367188 -8 524.924804688 3.466796875 496 35 c 257
 472.108398438 3.466796875 435.958984375 -8 408 -8 c 256
 302.767578125 -8 229 58 229 160 c 0
 229 199 l 257
 229 206 229 226 237 231 c 1
 207 231 l 257
527.666992188 522 m 261
 527.666992188 645 l 261
 539.842773438 645 561.506835938 644.91796875 572.666992188 644.919921875 c 4
 705.287109375 644.946289062 759 596 759 474 c 262
 759 200 l 261
 618 200 l 261
 618 455 l 262
 618 514 577.403320312 522 527.666992188 522 c 261
EndSplineSet
Layer: 2
Layer: 3
Ligature2: "si_abvs_2 subtable" si_Nndda si_MatraIi
EndChar

StartChar: si_NnddU
Encoding: 245 -1 186
GlifName: si_N_nddU_
Width: 728
VWidth: 0
Flags: HW
LayerCount: 4
Back
Fore
SplineSet
606 123 m 5
 746 123 l 5
 746 -205 l 5
 606 -205 l 5
 606 123 l 5
524 -65 m 5
 616 -65 l 5
 616 -205 l 5
 524 -205 l 5
 524 -65 l 5
256 -65 m 5
 468 -65 l 5
 468 -205 l 5
 256 -205 l 5
 256 -65 l 5
EndSplineSet
Refer: 488 3500 N 1 0 0 1 0 0 2
Layer: 2
Layer: 3
LCarets2: 1 0
Ligature2: "si_blws_1 subtable" si_Nndda si_MatraU
EndChar

StartChar: si_NnddUu
Encoding: 246 -1 187
GlifName: si_N_nddU_u
Width: 728
VWidth: 0
Flags: HW
LayerCount: 4
Back
Fore
SplineSet
247 -39 m 1
 273.333984375 -58.3330078125 316.444335938 -64.77734375 337.741210938 -64.77734375 c 0xa0
 380.333984375 -64.77734375 428.666992188 -42 468 -42 c 5x60
 468 -182 l 5x60
 428.666992188 -182 380.333984375 -204.77734375 337.741210938 -204.77734375 c 0
 316.444335938 -204.77734375 273.333984375 -198.333007812 247 -179 c 1
 247 -39 l 1
601 123 m 1
 741 123 l 1
 741 -205 l 1
 601 -205 l 1
 601 123 l 1
524 -42 m 5
 541 -42 578.1484375 -46.1669921875 601 -61 c 1
 601 -205 l 1
 575.106445312 -186.638671875 545 -182 524 -182 c 5
 524 -42 l 5
EndSplineSet
Refer: 488 3500 N 1 0 0 1 0 0 2
Layer: 2
Layer: 3
Ligature2: "si_blws_3 subtable" si_Nndda si_MatraUu
EndChar

StartChar: si_TU
Encoding: 250 -1 191
GlifName: si_T_U_
Width: 771
VWidth: 0
Flags: HW
LayerCount: 4
Back
Fore
SplineSet
523 19 m 0
 522.853515625 147.37890625 611.365234375 197.002929688 718.190429688 197.002929688 c 0
 725.229492188 197.002929688 732.533203125 197.001953125 740 197 c 257xc0
 740 54 l 257
 735.680664062 54 727.854492188 54 719 54 c 0
 694.803710938 54 664 43.79296875 664 -5 c 256xa0
 664.176757812 -23 l 0
 523 -23 l 0
 523 19 l 0
523 15 m 0
 664.176757812 15 l 0
 664 -5 l 256xa0
 664 -53.79296875 694.803710938 -64 719 -64 c 0
 727.854492188 -64 735.680664062 -64 740 -64 c 257
 740 -205 l 257xc0
 732.533203125 -205.001953125 725.229492188 -205.002929688 718.190429688 -205.002929688 c 0
 611.365234375 -205.002929688 522.853515625 -155.936523438 523 -29 c 0
 523 15 l 0
30.234375 153.779296875 m 257
 74.234375 248.779296875 l 257
 203.458984375 286.311523438 189.541015625 127.219726562 292.270507812 127.219726562 c 0
 335.114257812 127.219726562 372.774414062 154.372070312 372.774414062 194.299804688 c 0
 372.774414062 219.890625 362.270507812 244.2109375 324 260 c 1
 421.223632812 338.095703125 l 1
 493 306.298828125 504.459960938 235.932617188 504.459960938 185.0546875 c 0
 504.459960938 82.5751953125 427.352539062 -8 296 -8 c 0
 234.065429688 -8 163.42578125 24.9990234375 111.234375 100.732421875 c 0
 90.234375 131.205078125 75.234375 165.557617188 30.234375 153.779296875 c 257
37.234375 438.779296875 m 257
 51.234375 536.779296875 143.755859375 566.779296875 205.234375 566.779296875 c 256
 273.745117188 566.779296875 336.234375 521.779296875 336.234375 505.779296875 c 1
 252.234375 401.779296875 l 1xb0
 252.234375 436.779296875 221.403320312 445.779296875 205.234375 445.779296875 c 256
 171.303710938 445.779296875 154.234375 422.520507812 154.234375 401.779296875 c 257
 37.234375 438.779296875 l 257
30.234375 153.779296875 m 1
 30.234375 258.779296875 l 1
 301.234375 479.779296875 l 1
 446.0546875 639.08203125 740.234375 581.668945312 740.234375 320.779296875 c 2
 740.234375 134.779296875 l 0
 600.234375 134.779296875 l 0
 600.234375 306.779296875 l 2
 600.234375 415.82421875 496.94140625 454.779296875 425.234375 399.779296875 c 1
 155.234375 188.170898438 l 1
 30.234375 153.779296875 l 1
EndSplineSet
Layer: 2
Layer: 3
LCarets2: 1 0
Ligature2: "si_blws_1 subtable" si_Ta si_MatraU
EndChar

StartChar: si_TUu
Encoding: 251 -1 192
GlifName: si_T_U_u
Width: 819
VWidth: 0
Flags: HW
LayerCount: 4
Back
Fore
SplineSet
552 202 m 1
 592.845703125 202 601 218 601 250 c 5
 740 250 l 1
 740.020507812 237.392578125 739.5546875 214 730 202 c 1
 552 202 l 1
574.9453125 -31 m 2
 574.919921875 -1.0869140625 576.838867188 5 588 20 c 0x8780
 765 20 l 1
 757.740234375 20 750.654296875 20 744 20 c 0
 724.469726562 20 715 11.3271484375 715 -18 c 0
 714.84375 -47 l 0
 714.963867188 -66.8330078125 725.775390625 -75 748 -75 c 0
 761.071289062 -75 772.624023438 -75 779 -75 c 257
 779 -205 l 257x6780
 707.190429688 -205.002929688 l 0
 651.065429688 -205.002929688 575 -162.809570312 575 -75 c 0
 574.9453125 -31 l 2
552 90 m 1x3780
 609 132 l 1
 789 132 l 1
 732 90 l 1
 552 90 l 1x3780
552 132 m 1
 552 202 l 1
 789 202 l 1
 789 132 l 1
 552 132 l 1
552 20 m 1
 552 90 l 1
 789 90 l 1
 789 20 l 1
 552 20 l 1
30.234375 153.779296875 m 257
 74.234375 248.779296875 l 257
 203.458984375 286.311523438 189.541015625 127.219726562 292.270507812 127.219726562 c 0
 335.114257812 127.219726562 372.774414062 154.372070312 372.774414062 194.299804688 c 0
 372.774414062 219.890625 362.270507812 244.2109375 324 260 c 1
 421.223632812 338.095703125 l 1
 493 306.298828125 504.459960938 235.932617188 504.459960938 185.0546875 c 0
 504.459960938 82.5751953125 427.352539062 -8 296 -8 c 0
 234.065429688 -8 163.42578125 24.9990234375 111.234375 100.732421875 c 0
 90.234375 131.205078125 75.234375 165.557617188 30.234375 153.779296875 c 257
37.234375 438.779296875 m 257
 51.234375 536.779296875 143.755859375 566.779296875 205.234375 566.779296875 c 256
 273.745117188 566.779296875 336.234375 521.779296875 336.234375 505.779296875 c 1
 252.234375 401.779296875 l 1xb0
 252.234375 436.779296875 221.403320312 445.779296875 205.234375 445.779296875 c 256
 171.303710938 445.779296875 154.234375 422.520507812 154.234375 401.779296875 c 257
 37.234375 438.779296875 l 257
30.234375 153.779296875 m 1
 30.234375 258.779296875 l 1
 301.234375 479.779296875 l 1
 446.0546875 639.08203125 740.234375 581.668945312 740.234375 320.779296875 c 2
 740.234375 184.779296875 l 0
 600.234375 184.779296875 l 0
 600.234375 306.779296875 l 2
 600.234375 415.82421875 496.94140625 454.779296875 425.234375 399.779296875 c 1
 155.234375 188.170898438 l 1
 30.234375 153.779296875 l 1
EndSplineSet
Layer: 2
Layer: 3
LCarets2: 1 0
Ligature2: "si_blws_3 subtable" si_Ta si_MatraUu
EndChar

StartChar: si_Th.halant
Encoding: 257 -1 197
GlifName: si_T_h.halant
Width: 544
VWidth: 0
Flags: HW
LayerCount: 4
Back
Fore
SplineSet
395.000976562 518 m 5
 531.000976562 518 l 5
 531.000976562 819 l 5
 395.000976562 819 l 5xe640
 395.000976562 518 l 5
EndSplineSet
Refer: 489 3502 N 1 0 0 1 0 0 2
Layer: 2
Layer: 3
LCarets2: 1 0
Ligature2: "si_halant_1 subtable" si_Tha si_Halant
EndChar

StartChar: si_ThI
Encoding: 258 -1 198
GlifName: si_T_hI_
Width: 544
VWidth: 0
Flags: HW
LayerCount: 4
Back
SplineSet
325 819 m 5
 370.5 819 l 4
 498.859375 819 543.833007812 756 543.833007812 673 c 5
 408.5 673 l 5
 408.5 700 383.833007812 703 338.5 703 c 4
 325 703 l 5
 325 819 l 5
243 522 m 5
 124.875 522 65.625 576.407226562 65.625 670.735351562 c 4
 65.625 744.907226562 124.625 819 243 819 c 5
 270 819 l 5
 270 703 l 5
 222 703 l 5
 201.5 703 191.25 690.25 191.25 677.5 c 4
 191.25 664.75 201.5 652 222 652 c 5
 243 652 l 5
 283 652 l 5
 283 522 l 5
 243 522 l 5
328 513 m 257xdd80
 328 460.071289062 353.65234375 444.23828125 387 437 c 257
 387 351 l 257
 283.619140625 370.607421875 248 441.038085938 248 514 c 256
 248 652 l 257
 328 652 l 257
 462.272460938 652 563 597 563 414 c 258
 563 195 l 257
 423 195 l 257
 423 395 l 258
 423 474 406.251953125 513 328 513 c 257xdd80
29.8849759217 220.126665795 m 0
 29.8849759217 298.835352593 38.1696614407 394 205.666992188 394 c 257
 263 394 l 1
 263 276 l 1
 207.666992188 276 l 257
 168.322100011 276 167.999910678 262.454820272 167.999910678 204.911110192 c 2
 168 166 l 2
 168 154 177 132 207 132 c 0
 237 132 245 152.875 245 166 c 0
 245 202 l 257
 345 202 l 257
 345 166 l 0xee80
 345 152.875 353 132 383 132 c 0
 413.76953125 132 423 154 423 166 c 0
 423 202 l 1
 563 202 l 257
 563 160 l 0
 563 58 496.380859375 -8 404 -8 c 256
 370.151367188 -8 328.924804688 3.466796875 300 35 c 257
 276.108398438 3.466796875 239.958984375 -8 212 -8 c 256
 105.00390625 -8 30 58 30 160 c 0
 29.8849759217 220.126665795 l 0
EndSplineSet
Fore
SplineSet
147.744140625 645 m 6
 -27 645 -28.3681640625 922 176 922 c 4
 362 922 l 4
 468 922 511.333007812 853.6015625 511.333007812 776 c 5
 376 776 l 5
 376 804.181640625 355.614257812 805.916992188 317.848632812 806 c 4
 176 806 l 4
 134.888671875 806 135.373046875 755 176 755 c 5
 176 645 l 5
 147.744140625 645 l 6
EndSplineSet
Refer: 489 3502 N 1 0 0 1 0 0 2
Layer: 2
Layer: 3
LCarets2: 1 0
Ligature2: "si_abvs_1 subtable" si_Tha si_MatraI
EndChar

StartChar: si_ThIi
Encoding: 259 -1 199
GlifName: si_T_hI_i
Width: 544
VWidth: 0
Flags: HW
LayerCount: 4
Back
Fore
SplineSet
19.5263671875 776.125 m 4
 19.5263671875 709.418945312 63.4755859375 645 147.744140625 645 c 6
 176 645 l 5
 176 755 l 5
 155.625976562 755 145.34765625 767.825195312 145.34765625 780.61328125 c 4
 145.34765625 793.325195312 155.504882812 806 176 806 c 4
 315.286132812 806 l 5
 315.331054688 749.790039062 365.692382812 706 423 706 c 4
 483 706 531 754 531 814 c 4
 531 874 483 922 423 922 c 6
 176 922 l 6
 70.1865234375 922 19.5263671875 847.744140625 19.5263671875 776.125 c 4
EndSplineSet
Refer: 489 3502 N 1 0 0 1 0 0 2
Layer: 2
Layer: 3
LCarets2: 1 0
Ligature2: "si_abvs_2 subtable" si_Tha si_MatraIi
EndChar

StartChar: si_DI
Encoding: 267 -1 204
GlifName: si_D_I_
Width: 522
VWidth: 0
Flags: HW
LayerCount: 4
Back
Fore
SplineSet
30 602 m 5
 160 602 l 261
 160 654.112304688 195.142578125 658 222 659 c 5
 281 659 l 5
 307.857421875 658 343 654.112304688 343 602 c 261
 473 602 l 5
 473 630 l 261
 473 724 396.258789062 789 297 789 c 5
 206 789 l 5
 106.741210938 789 30 724 30 630 c 261
 30 602 l 5
EndSplineSet
Refer: 5 3503 N 1 0 0 1 0 0 2
Layer: 2
Layer: 3
LCarets2: 1 0
Ligature2: "si_abvs_1 subtable" si_Da si_MatraI
EndChar

StartChar: si_DIi
Encoding: 268 -1 205
GlifName: si_D_I_i
Width: 522
VWidth: 0
Flags: HW
HStem: 462.179 118.821<398.05 466.746> 659 130<169.924 465.037>
VStem: 472 118.377<586.298 654.053>
LayerCount: 4
Back
Fore
SplineSet
250 671 m 4
 250 736 303 789 368 789 c 4
 433 789 486 736 486 671 c 4
 486 606 433 553 368 553 c 4
 303 553 250 606 250 671 c 4
30 602 m 1
 30 630 l 257
 29.623046875 723.409179688 106.741210938 789 206 789 c 1
 368 789 l 5
 368 659 l 4
 222 659 l 1
 195.142578125 658 160 654.112304688 160 602 c 257
 30 602 l 1
EndSplineSet
Refer: 5 3503 N 1 0 0 1 0 0 2
Layer: 2
Layer: 3
LCarets2: 1 0
Ligature2: "si_abvs_2 subtable" si_Da si_MatraIi
EndChar

StartChar: si_DU
Encoding: 269 -1 206
GlifName: si_D_U_
Width: 483
VWidth: 0
Flags: HW
HStem: -197 140<30 202>
VStem: 30 172<-197 -57>
LayerCount: 4
Back
SplineSet
349 123 m 1
 482 137 l 1
 482 -205 l 1
 349 -205 l 1
 349 123 l 1
279 -205 m 1
 279 -65 l 1
 359 -65 l 1
 359 -205 l 1
 279 -205 l 1
51 -205 m 1
 51 -65 l 1
 223 -65 l 1
 223 -205 l 1
 51 -205 l 1
296 136 m 1
 328.727539062 136 348 140 361 172 c 1
 482 138 l 1
 457 52 388.826171875 0.1318359375 296 0 c 1
 296 136 l 1
257 136 m 5
 296 136 l 1
 296 0 l 1
 257 0 l 5
 257 136 l 5
173 198 m 257
 173 146 220 136 257 136 c 256
 257 0 l 256
 137 0 30 59.3916015625 30 198 c 256
 30 334.290039062 122.043945312 402 255 402 c 258
 313 402 l 257
 313 471.391601562 194.682617188 473.067382812 176 420 c 257
 58 459 l 257
 102.088510991 636.081916218 442 614.212890625 442 401 c 258
 442 263 l 257
 256 263 l 258
 217 263 173 257.190429688 173 198 c 257
EndSplineSet
Fore
SplineSet
313 136 m 1
 453 136 l 1
 453 -205 l 1
 313 -205 l 1
 313 136 l 1
35 -65 m 5
 257 -65 l 5
 257 -205 l 5
 35 -205 l 5
 35 -65 l 5
30 198 m 256
 30 337.016601562 125.044921875 402 256 402 c 258
 313 402 l 257
 313 439.3671875 278.239257812 457.174804688 243.4296875 457.174804688 c 0
 213.982421875 457.174804688 184.5 444.4296875 176 420 c 257
 58 459 l 257
 79.41796875 539.204101562 157.759765625 577.969726562 238.147460938 577.969726562 c 0
 338.48046875 577.969726562 442 517.580078125 442 402 c 258
 442 263 l 257
 256 263 l 258
 217 263 173 257.190429688 173 198 c 257
 173 146 220 136 257 136 c 256
 257 0 l 256
 137 0 30 59.3916015625 30 198 c 256
EndSplineSet
Layer: 2
Layer: 3
SplineSet
173 198 m 261
 173 146 220 136 257 136 c 260
 257 0 l 260
 137 0 30 59.3916015625 30 198 c 260
 30 337.016601562 125.044921875 402 256 402 c 262
 313 402 l 261
 313 439.3671875 278.239257812 457.174804688 243.4296875 457.174804688 c 4
 213.982421875 457.174804688 184.5 444.4296875 176 420 c 261
 58 459 l 261
 79.41796875 539.204101562 157.759765625 577.969726562 238.147460938 577.969726562 c 4
 338.48046875 577.969726562 442 517.580078125 442 402 c 262
 442 263 l 261
 256 263 l 262
 217 263 173 257.190429688 173 198 c 261
EndSplineSet
LCarets2: 1 0
Ligature2: "si_blws_1 subtable" si_Da si_MatraU
EndChar

StartChar: si_DUu
Encoding: 270 -1 207
GlifName: si_D_U_u
Width: 483
VWidth: 0
Flags: HW
HStem: -205 23<243 266.488> -65 23<243 266.594> 0 136<191.491 267> 263 139<186.515 313> 457.175 120.795<185.712 299.966>
VStem: 30 143<153.262 247.849> 45 142<-182 -65> 313 140<-61 136>
LayerCount: 4
Back
Fore
SplineSet
35 -39 m 5
 61.333984375 -58.3330078125 84.4443359375 -64.77734375 105.741210938 -64.77734375 c 4
 148.333984375 -64.77734375 156.666992188 -42 196 -42 c 5xfb
 196 -182 l 5
 156.666992188 -182 148.333984375 -204.77734375 105.741210938 -204.77734375 c 4
 84.4443359375 -204.77734375 61.333984375 -198.333007812 35 -179 c 5
 35 -39 l 5
196 -42 m 5
 213 -42 234.1484375 -46.1669921875 257 -61 c 5
 257 -205 l 5
 231.106445312 -186.638671875 217 -182 196 -182 c 5
 196 -42 l 5
313 136 m 1
 453 136 l 1
 453 -205 l 1
 313 -205 l 1
 313 136 l 1
30 198 m 256
 30 337.016601562 125.044921875 402 256 402 c 258
 313 402 l 257
 313 439.3671875 278.239257812 457.174804688 243.4296875 457.174804688 c 0
 213.982421875 457.174804688 184.5 444.4296875 176 420 c 257
 58 459 l 257
 79.41796875 539.204101562 157.759765625 577.969726562 238.147460938 577.969726562 c 0
 338.48046875 577.969726562 442 517.580078125 442 402 c 258
 442 263 l 257
 256 263 l 258
 217 263 173 257.190429688 173 198 c 257xfd
 173 146 220 136 257 136 c 256
 257 0 l 256
 137 0 30 59.3916015625 30 198 c 256
EndSplineSet
Layer: 2
Layer: 3
LCarets2: 1 0
Ligature2: "si_blws_3 subtable" si_Da si_MatraUu
EndChar

StartChar: si_Dh.halant
Encoding: 284 -1 214
GlifName: si_D_h.halant
Width: 593
VWidth: 0
Flags: HW
LayerCount: 4
Back
Fore
SplineSet
89 652 m 5
 48 652 7.8095703125 819 224 819 c 6
 265.666992188 819 l 5
 265.666992188 703 l 5
 232.666992188 703 l 4
 203.729492188 703 197.409179688 688.846679688 197.409179688 676.362304688 c 4
 197.409179688 661.502929688 210.732421875 652 232.666992188 652 c 5
 263.666992188 652 l 5
 263.666992188 522 l 5
 245.666992188 522 l 5
 110.4921875 522 89 607.938476562 89 652 c 5
321.166992188 703 m 5
 321.166992188 819 l 5xe4
 376.666992188 819 l 4
 525.026367188 819 550 756 550 673 c 5
 414.666992188 673 l 5
 414.666992188 700 390 703 344.666992188 703 c 4
 321.166992188 703 l 5
233.666992188 522 m 5
 233.666992188 652 l 5
 331.666992188 652 l 5
 331.666992188 522 l 5
 233.666992188 522 l 5
42 522 m 5
 42 652 l 5
 234 652 l 5
 234 522 l 5
 42 522 l 5
29.9990234375 261.92578125 m 0
 29.9990234375 343.692382812 44.6669921875 474 240.666992188 474 c 257
 263 474 l 1
 263 336 l 1
 240.666992188 336 l 257
 200.666992188 336 168 322 168 262 c 256
 168 166 l 0
 168 154 177 132 207 132 c 0
 237 132 245 152.875 245 166 c 0
 245 202 l 257
 345 202 l 257
 345 166 l 0
 345 152.875 353 132 383 132 c 0
 413 132 422 154 422 166 c 0
 422 202 l 1
 563 202 l 257
 563 160 l 0
 563 58 496.380859375 -8 404 -8 c 256
 370.151367188 -8 328.924804688 3.466796875 300 35 c 257
 276.108398438 3.466796875 239.958984375 -8 212 -8 c 256
 105.00390625 -8 30 58 30 160 c 0
 29.9990234375 261.92578125 l 0
331.666992188 522 m 261
 331.666992188 652 l 261
 491.3046875 652 563 589 563 474 c 262
 563 200 l 257
 422 200 l 257
 422 454 l 262
 422 514 381.403320312 522 331.666992188 522 c 261
EndSplineSet
Layer: 2
Layer: 3
LCarets2: 1 0
Ligature2: "si_halant_1 subtable" si_Dha si_Halant
EndChar

StartChar: si_DhI
Encoding: 285 -1 215
GlifName: si_D_hI_
Width: 593
VWidth: 0
Flags: HW
LayerCount: 4
Back
Fore
SplineSet
31.2919921875 670.735351562 m 4
 31.2919921875 744.907226562 90.2919921875 819 208.666992188 819 c 5
 253.666992188 819 l 5
 253.666992188 703 l 5
 187.666992188 703 l 5
 167.166992188 703 156.916992188 690.25 156.916992188 677.5 c 4
 156.916992188 664.75 167.166992188 652 187.666992188 652 c 5
 253.666992188 652 l 5
 253.666992188 512 l 5
 208.666992188 512 l 5
 90.5419921875 512 31.2919921875 570.065429688 31.2919921875 670.735351562 c 4
309.166992188 703 m 5
 309.166992188 819 l 5
 376.666992188 819 l 4
 505.026367188 819 550 756 550 673 c 5
 414.666992188 673 l 5
 414.666992188 700 390 703 344.666992188 703 c 4
 309.166992188 703 l 5
29.9990234375 261.92578125 m 0
 29.9990234375 343.692382812 44.6669921875 474 240.666992188 474 c 257
 263 474 l 1
 263 336 l 1
 240.666992188 336 l 257
 200.666992188 336 168 322 168 262 c 256
 168 166 l 0
 168 154 177 132 207 132 c 0
 237 132 245 152.875 245 166 c 0
 245 202 l 257
 345 202 l 257
 345 166 l 0
 345 152.875 353 132 383 132 c 0
 413 132 422 154 422 166 c 0
 422 202 l 1
 563 202 l 257
 563 160 l 0
 563 58 496.380859375 -8 404 -8 c 256
 370.151367188 -8 328.924804688 3.466796875 300 35 c 257
 276.108398438 3.466796875 239.958984375 -8 212 -8 c 256
 105.00390625 -8 30 58 30 160 c 0
 29.9990234375 261.92578125 l 0
253.666992188 512 m 5
 253.666992188 652 l 5
 331.666992188 652 l 261
 491.3046875 652 563 590 563 473 c 262
 563 200 l 257
 422 200 l 257
 422 446 l 262
 422 504 381.403320312 512 331.666992188 512 c 261
 253.666992188 512 l 5
EndSplineSet
Layer: 2
Layer: 3
LCarets2: 1 0
Ligature2: "si_abvs_1 subtable" si_Dha si_MatraI
EndChar

StartChar: si_DhIi
Encoding: 286 -1 216
GlifName: si_D_hI_i
Width: 593
VWidth: 0
Flags: HW
LayerCount: 4
Back
Fore
SplineSet
350.666992188 711 m 4
 350.666992188 771 398.666992188 819 458.666992188 819 c 4
 518.666992188 819 566.666992188 771 566.666992188 711 c 4
 566.666992188 651 518.666992188 603 458.666992188 603 c 4
 398.666992188 603 350.666992188 651 350.666992188 711 c 4
295.666992188 703 m 5
 295.666992188 819 l 5
 458.666992188 819 l 5
 458.666992188 703 l 5
 295.666992188 703 l 5
197.666992188 645 m 6
 243.666992188 645 l 5
 335.666992188 645 l 5
 335.666992188 522 l 5
 243.666992188 522 l 5
 208.666992188 522 l 6
 -27.4375 522 -28.228515625 819 208.666992188 819 c 6
 239.666992188 819 l 5
 239.666992188 703 l 5
 197.666992188 703 l 6
 148.751953125 703 148.875976562 645 197.666992188 645 c 6
29.9990234375 261.92578125 m 0
 29.9990234375 343.692382812 44.6669921875 474 240.666992188 474 c 257
 263 474 l 1
 263 336 l 1
 240.666992188 336 l 257
 200.666992188 336 168 322 168 262 c 256
 168 166 l 0
 168 154 177 132 207 132 c 0
 237 132 245 152.875 245 166 c 0
 245 202 l 257
 345 202 l 257
 345 166 l 0
 345 152.875 353 132 383 132 c 0
 413 132 422 154 422 166 c 0
 422 202 l 1
 563 202 l 257
 563 160 l 0
 563 58 496.380859375 -8 404 -8 c 256
 370.151367188 -8 328.924804688 3.466796875 300 35 c 257
 276.108398438 3.466796875 239.958984375 -8 212 -8 c 256
 105.00390625 -8 30 58 30 160 c 0
 29.9990234375 261.92578125 l 0
331.666992188 522 m 261
 331.666992188 645 l 261
 343.842773438 645 365.506835938 644.91796875 376.666992188 644.919921875 c 4
 509.287109375 644.946289062 563 596 563 475 c 262
 563 200 l 257
 422 200 l 257
 422 456 l 262
 422 514 381.403320312 522 331.666992188 522 c 261
EndSplineSet
Layer: 2
Layer: 3
LCarets2: 1 0
Ligature2: "si_abvs_2 subtable" si_Dha si_MatraIi
EndChar

StartChar: si_DhU
Encoding: 287 -1 217
GlifName: si_D_hU_
Width: 580
VWidth: 0
Flags: HW
LayerCount: 4
Back
Fore
SplineSet
409 123 m 5
 549 123 l 5
 549 -205 l 5
 409 -205 l 5
 409 123 l 5
328 -65 m 5
 419 -65 l 5
 419 -205 l 5
 328 -205 l 5
 328 -65 l 5
59 -65 m 5
 272 -65 l 5
 272 -205 l 5
 59 -205 l 5
 59 -65 l 5
EndSplineSet
Refer: 490 3504 N 1 0 0 1 0 0 2
Layer: 2
Layer: 3
LCarets2: 1 0
Ligature2: "si_blws_1 subtable" si_Dha si_MatraU
EndChar

StartChar: si_DhUu
Encoding: 288 -1 218
GlifName: si_D_hU_u
Width: 580
VWidth: 0
Flags: HW
LayerCount: 4
Back
Fore
SplineSet
54 -39 m 5
 80.333984375 -58.3330078125 123.444335938 -64.77734375 144.741210938 -64.77734375 c 4xa0
 187.333984375 -64.77734375 232.666992188 -42 272 -42 c 5x60
 272 -182 l 5x60
 232.666992188 -182 187.333984375 -204.77734375 144.741210938 -204.77734375 c 4
 123.444335938 -204.77734375 80.333984375 -198.333007812 54 -179 c 5
 54 -39 l 5
408 123 m 5
 548 123 l 5
 548 -205 l 5
 408 -205 l 5
 408 123 l 5
328 -42 m 5
 345 -42 385.1484375 -46.1669921875 408 -61 c 5
 408 -205 l 5
 382.106445312 -186.638671875 349 -182 328 -182 c 5
 328 -42 l 5
EndSplineSet
Refer: 490 3504 N 1 0 0 1 0 0 2
Layer: 2
Layer: 3
Ligature2: "si_blws_3 subtable" si_Dha si_MatraUu
EndChar

StartChar: si_NU
Encoding: 297 -1 226
GlifName: si_N_U_
Width: 728
VWidth: 0
Flags: HW
LayerCount: 4
Back
Fore
SplineSet
582 131 m 5xc0
 722 131 l 5
 722 -205 l 5xc0
 582 -205 l 5xa0
 582 131 l 5xc0
432 -65 m 5
 592 -65 l 5
 592 -205 l 5xa0
 432 -205 l 5
 432 -65 l 5
134 -65 m 5
 376 -65 l 5
 376 -205 l 5
 134 -205 l 5
 134 -65 l 5
EndSplineSet
Refer: 14 3505 N 1 0 0 1 0 0 2
Layer: 2
Layer: 3
LCarets2: 1 0
Ligature2: "si_blws_1 subtable" si_Na si_MatraU
EndChar

